<?xml version="1.0" standalone="no"?>
<!DOCTYPE svg PUBLIC "-//W3C//DTD SVG 1.1//EN" "http://www.w3.org/Graphics/SVG/1.1/DTD/svg11.dtd" >
<svg xmlns="http://www.w3.org/2000/svg">
<metadata>
This is a custom SVG webfont generated by Font Squirrel.
Copyright   : Copyright c 2010 by Kimberly Geswein All rights reserved
Designer    : Kimberly Geswein
Foundry     : Kimberly Geswein
</metadata>
<defs>
<font id="GloriaHallelujahRegular" horiz-adv-x="571" >
<font-face units-per-em="1024" ascent="819" descent="-205" />
<missing-glyph horiz-adv-x="512" />
<glyph unicode=" "  horiz-adv-x="512" />
<glyph unicode="&#x09;" horiz-adv-x="512" />
<glyph unicode="&#xa0;" horiz-adv-x="512" />
<glyph unicode="!" horiz-adv-x="167" d="M108 97q14 0 28 -9t18 -22t-7 -28.5t-48 -28.5q-30 4 -43 14.5t-14.5 22.5t5.5 23.5t18 20t23 11t20 -3.5zM24 834q30 28 47 12.5t25 -58.5t9.5 -104t2 -124t2 -120t9.5 -90q0 -17 -2 -29t-8 -20t-18 -11.5t-32 -3.5q-3 0 -6.5 3t-7 19.5t-6.5 50t-6 94.5t-5.5 153.5 t-3.5 227.5z" />
<glyph unicode="&#x22;" horiz-adv-x="404" d="M22 810q0 8 0.5 28.5t0.5 43t0.5 43t0.5 28.5q2 3 11 12.5t12 11.5q2 0 5 1q2 0 4 0.5t3 0.5t3 -0.5t4 -0.5q3 -1 6 -1q1 -1 4.5 -4t7.5 -7t7 -8t4 -5q-5 -54 6.5 -102t26.5 -90l29 -81q14 -38 14 -73q0 -13 -3.5 -28t-11.5 -27.5t-20 -21t-30 -8.5q-26 0 -43 18 t-26 46.5t-12.5 62.5t-4 66t0.5 58t1 37zM214 884q0 13 4.5 25.5t12 22.5t18.5 16.5t24 6.5q15 0 27 -24.5t22 -62t16.5 -81t11.5 -81t7 -63t2 -26.5q0 -48 -52 -48q-19 0 -33.5 20.5t-25 52t-17 70t-10.5 73.5t-5.5 62t-1.5 37z" />
<glyph unicode="#" horiz-adv-x="781" d="M234 272q0 11 -5 45t-17 91q-70 -21 -111.5 -17t-58 20.5t-9 38.5t35 37t73.5 17t108 -21q4 6 7 23.5l7 41.5l7 49l6 47q3 21 5.5 35.5t5.5 15.5q7 4 21 6l28 4q17 2 36 2l15 -183h83q0 3 1 19.5t4 40.5t8 51.5t13 50.5t18.5 38.5t25.5 15.5q5 0 13.5 -0.5t16.5 -2.5 t14 -7.5t6 -14.5v-167q12 -5 33 -9t46 -8l51 -9q25 -4 46 -9.5t34.5 -13t13.5 -16.5q-8 -23 -32 -33.5t-53.5 -16.5t-59 -11t-48 -15t-21 -29t22.5 -54q13 0 31.5 2.5t39 4.5t40 2t35.5 -4.5t26 -15.5t10 -31q0 -17 -22 -28.5t-50.5 -19t-56 -12t-39.5 -8.5l8 -48 q4 -28 2.5 -55t-14 -46.5t-43.5 -19.5q-23 7 -33.5 23.5t-16.5 35.5t-10.5 37.5t-16 30.5t-33.5 14t-62 -12v-46q0 -26 -5 -49.5t-19.5 -40t-42.5 -16.5q-10 0 -22.5 17t-26.5 41l-28 46q-15 24 -28 38q-67 7 -103 15.5t-49.5 17.5t-8 18.5t20.5 17.5q36 19 127 39zM376 334 q0 -10 5.5 -15.5t13 -8t16 -3t13.5 -0.5q9 0 21.5 1.5t24 5t20 10.5t8.5 19q0 25 -11.5 45t-36.5 20q-13 0 -26.5 -6t-24 -16.5t-17 -24t-6.5 -27.5z" />
<glyph unicode="$" horiz-adv-x="690" d="M67 20q-20 4 -23.5 20.5t-3.5 30.5q-12 16 -3 27t29.5 17t49 8.5t56 1.5t49 -5.5t29.5 -10.5q11 71 10.5 119.5t-9 81t-24 53t-34 34.5t-38.5 25.5t-38.5 26.5t-33 37.5t-22.5 58.5q0 30 13.5 52.5t34 39t44.5 29.5l45 23q20 11 33.5 21.5t13.5 24.5v191q0 8 10.5 13.5 t24 9.5t25.5 5.5t16 1.5q0 -55 5 -112t26 -109q10 -1 37.5 -4t58.5 -7l57 -7q27 -4 38 -5q3 -1 10 -4l15 -8l14 -7q6 -4 8 -6q7 -20 9 -38.5t-17 -27.5t-67 -3.5t-139 34.5q-13 0 -18.5 -14.5t-7.5 -32t-1.5 -32.5t0.5 -16v-12l1 -18l1 -17q1 -9 1 -13q12 -2 41.5 -6 t66.5 -12t77 -20t73.5 -29.5t55 -41.5t21.5 -55q0 -61 -28 -108t-70.5 -84t-93.5 -66l-96 -55v-35q0 -25 4 -49t9.5 -47.5t9.5 -47.5t4 -49q0 -29 -10 -44t-42 -15q-13 0 -19.5 2t-11 7t-7.5 15l-8 26q-4 11 -11 38l-15 57l-14 58q-6 26 -7 37zM347 383q0 -63 7 -122.5 t22 -120.5h11q26 0 57.5 14t59 36.5t46 50t18.5 54.5q0 38 -24 56.5t-58 25.5t-72.5 6.5t-66.5 -0.5zM159 547q0 -34 20.5 -46t52.5 -12v108q-12 0 -25 -2.5t-23.5 -8.5t-17.5 -15.5t-7 -23.5z" />
<glyph unicode="%" horiz-adv-x="857" d="M275 96q10 26 22 88l28 139q16 78 36 163t44.5 158.5t53.5 126t64 65.5q50 0 50 -51q-2 -21 -10 -65.5t-21 -102.5l-29 -125q-17 -68 -36 -136t-39 -132t-40 -114.5t-39 -83.5t-35 -39t-29 19t-20 90zM498 203q0 39 22 64.5t54.5 41t68.5 21.5t64 6q57 0 81 -24t24 -81 q0 -85 -47.5 -135.5t-135.5 -50.5q-25 0 -48.5 15.5t-42 39t-29.5 51.5t-11 52zM719 246q-40 6 -66.5 6t-38 -10t-7 -31.5t28.5 -57.5q34 -19 53.5 -18.5t28.5 15t8.5 40t-7.5 56.5zM22 569q0 35 8 73.5t26 70t48 52t74 20.5q22 0 42 -11t35 -28.5t24 -39t9 -41.5 q0 -30 -20 -60t-49 -54t-62.5 -38.5t-61.5 -14.5q-31 0 -52 20t-21 51zM198 698q-40 7 -66.5 6.5t-38 -10.5t-7 -31.5t28.5 -57.5q34 -19 53.5 -18.5t28.5 15t8.5 40t-7.5 56.5z" />
<glyph unicode="&#x26;" horiz-adv-x="834" d="M143 178q0 26 4 51.5t9 50.5t9 50t4 51q0 3 -0.5 9.5t-0.5 14.5t-0.5 14.5t-0.5 9.5l-53 42q-30 24 -55 52.5t-42 61.5t-17 70q0 53 34 99t83.5 80.5t105 54.5t99.5 20q66 0 88.5 -30t22.5 -94q0 -45 -16 -86t-35 -81t-35 -80.5t-16 -84.5q0 -27 21.5 -49t51 -37.5 t60 -24t48.5 -8.5h12q1 4 9.5 31t24.5 57.5t37.5 54.5t47.5 23q8 -11 13 -19t8 -15.5t4 -16t1 -20.5q0 -17 -4.5 -33t-9.5 -32t-9.5 -32t-4.5 -34q0 -2 0.5 -7t0.5 -11t0.5 -11.5t0.5 -6.5l60 -18q27 -8 47 -20.5t31.5 -33t11.5 -54.5q-21 -21 -46 -20t-54.5 13t-63.5 30 t-72 31q-21 0 -43 -14t-46 -35t-49.5 -46t-52.5 -46t-56 -35t-60 -14q-35 0 -56 18t-32.5 45t-15 58t-3.5 57zM236 176q0 -9 1 -19.5t4.5 -18.5t11 -13.5t20.5 -5.5q24 0 50 12t51 30t45.5 39t33.5 39q-1 1 -4 4.5t-7 7.5t-8 7t-5 4l-25 16l-37 23l-35 21l-23 12q-3 0 -5 1 q-2 0 -3.5 0.5t-2.5 0.5q-23 0 -35.5 -18.5t-18.5 -44.5t-7 -53t-1 -44zM93 641v-7q0 -3 1 -6q0 -4 1 -8l119 -120q37 23 62.5 60.5t42 81t24 89.5t7.5 86q-38 0 -82.5 -11t-83.5 -32.5t-65 -54.5t-26 -78z" />
<glyph unicode="'" horiz-adv-x="167" d="M24 738q0 3 2.5 9.5t6.5 14.5l8 14q3 7 6 10q2 0 5 1q2 0 4 0.5t3 0.5q21 0 37 -14.5t27 -35.5t16.5 -44t5.5 -39q0 -12 -3.5 -31t-11 -36t-19 -29.5t-28.5 -12.5q-18 0 -29 25t-18 57.5t-9.5 64t-2.5 45.5z" />
<glyph unicode="(" horiz-adv-x="381" d="M22 447q0 20 4.5 54.5t14 75t24.5 82.5t35 76t45.5 55.5t57.5 21.5q1 0 2.5 -0.5t3.5 -0.5q2 -1 5 -1q4 -1 12 -4l16 -7q7 -4 13 -8t7 -6q0 -2 1 -4q0 -2 0.5 -3.5t0.5 -3.5q0 -38 -23 -76t-50.5 -78t-50.5 -84.5t-23 -95.5q0 -69 18.5 -121.5t50.5 -97.5t76 -86l95 -87 q0 -2 1 -6t1 -6q0 -22 -15.5 -30t-34.5 -8q-50 0 -90.5 22.5t-72.5 59.5t-55.5 84t-38.5 97t-22.5 98.5t-7.5 87.5z" />
<glyph unicode=")" horiz-adv-x="404" d="M140 48q0 45 19.5 85t42.5 81t42.5 84.5t19.5 94.5q0 46 -13 81.5t-34.5 63.5t-49.5 51l-58 46l-58 47q-28 25 -51 56q3 11 9.5 16.5t15 8t17.5 2.5h17q71 0 126.5 -37t94 -94t59 -124.5t20.5 -128.5q0 -24 -4.5 -61.5t-14 -80t-24 -85.5t-34.5 -77.5t-46 -56.5t-58 -22 q-20 0 -29 16t-9 34z" />
<glyph unicode="*" horiz-adv-x="595" d="M193 324q0 2 -2 6q-1 2 -1 4q-3 3 -10 7l-14 7q-7 4 -13.5 6.5t-9.5 2.5t-13 -3l-23 -8l-22 -7l-13 -5q-2 0 -12 -1.5t-15 -1.5q-16 0 -30.5 8.5t-14.5 29.5q0 31 17 51t42.5 31.5t54.5 16.5t53 8q-5 8 -16 29l-22 43l-21 44q-10 20 -13 28q0 2 -1 10t-1 13t0.5 13 t3 15.5t7.5 13t15 5.5q3 0 9.5 -2.5t14.5 -6.5l14 -7q7 -4 10 -7q6 -7 20 -27l29 -42l28 -44q13 -21 18 -30q21 26 42 48.5t44 39.5t50.5 26.5t61.5 9.5q0 -28 -12.5 -48t-28 -38.5t-28 -38t-12.5 -47.5q0 -4 1 -12.5t1 -10.5q18 -1 46.5 -1t56 -6t47 -20.5t19.5 -44.5 q0 -26 -11.5 -36t-29.5 -11.5t-39 2t-40 4t-32.5 -5t-16.5 -25.5q2 -4 8 -19l14 -36l18 -45q10 -24 17.5 -46.5t11.5 -40.5t3 -27q0 -2 -5.5 -8.5t-13.5 -14.5l-16 -14q-8 -7 -14 -10q-3 -1 -5 -2q-3 -1 -6 -1q-26 0 -41.5 22.5t-26.5 54t-19.5 64.5t-19.5 53 q-24 -38 -34 -77t-23 -71t-38.5 -52t-80.5 -20q0 39 8.5 75.5t21.5 71.5l26 72q13 35 24 71q0 3 1 6q2 6 2 9z" />
<glyph unicode="+" d="M24 309q-4 0 -13 10t-11 15q-1 2 -1 5q-1 2 -1 6t1 7q0 3 1 5q4 6 13 15t11 9h238q7 58 18.5 119.5t28.5 119.5h13h12q5 -2 13 -6l16 -7q7 -4 12.5 -7.5t5.5 -4.5v-223q19 0 48 6.5t56 7t46 -10t19 -44.5q0 -19 -12.5 -29t-31.5 -15t-40.5 -6.5t-40.5 -5.5t-31.5 -12 t-12.5 -24q0 -27 11.5 -50t25.5 -45.5t25.5 -45.5t11.5 -50q0 -50 -51 -50q-23 0 -42 14t-34 37t-26.5 52t-20 58.5t-13 56.5t-6.5 46z" />
<glyph unicode="," horiz-adv-x="258" d="M174 169q13 0 21 -5.5t11.5 -14t4.5 -19t1 -20.5q0 -23 -5 -55t-15 -66.5t-25 -68t-35 -59.5t-45 -42.5t-55 -16.5q0 24 5 60.5t14.5 77.5t23 81.5t29 73.5t33.5 53.5t37 20.5z" />
<glyph unicode="-" d="M85 361q0 4 1 13t1 11q18 0 49 2l67 6l76 6q39 3 74.5 4.5t65.5 1t47 -3.5q20 0 28 -4.5t8 -29.5q-33 -23 -83 -33.5t-102.5 -15t-101.5 -4.5t-80 -1q-31 -2 -40.5 12.5t-9.5 35.5z" />
<glyph unicode="." horiz-adv-x="252" d="M155 90q50 0 50 -52q-13 -32 -31.5 -43t-35 -8t-29 16.5t-14 30t12 32.5t47.5 24z" />
<glyph unicode="/" horiz-adv-x="444" d="M46 88l7 28q5 20 10 43l9 42l7 27q8 31 23.5 86t38 118t52 126.5t65.5 112t78.5 74t91.5 12.5q-16 -62 -40 -117.5t-51 -107.5l-56 -104l-54.5 -105.5t-48 -111.5t-34.5 -123q-5 -32 -20.5 -37t-35.5 0q-15 4 -27 10.5t-15 26.5z" />
<glyph unicode="0" horiz-adv-x="667" d="M22 419q0 46 8 97t24.5 100t42 93t60 78t78.5 53.5t98 19.5q76 0 134.5 -24.5t98 -69t59.5 -106t20 -134.5q0 -52 -10.5 -111.5t-32 -118t-53.5 -112t-74.5 -94.5t-96 -65.5t-116.5 -24.5q-55 0 -94.5 20t-66.5 53.5t-42.5 77t-23.5 90t-10.5 93t-2.5 85.5zM117 369 q0 -45 4.5 -93t22 -88.5t51 -66.5t91.5 -26q47 0 85 22.5t67 59t50.5 83t35 94t20 92t6.5 78.5q0 51 -7.5 95t-27.5 76.5t-56 51t-94 18.5q-49 0 -86.5 -19t-65 -50t-46 -72t-29.5 -85t-16 -88t-5 -82z" />
<glyph unicode="1" horiz-adv-x="262" d="M22 715v43q0 28 5.5 56t18 49t37.5 21q15 0 24.5 -24.5t15.5 -62t9 -82.5t4.5 -85t2.5 -69.5t3 -36.5q4 -17 13 -52l21 -81l24 -94l25 -93l22 -80q10 -36 15 -52q0 -2 1 -6.5t1 -6.5q0 -12 -8 -19.5t-19.5 -11t-24 -5t-22.5 -1.5q-4 0 -12.5 1t-10.5 1l-50 164 q-26 87 -47 175.5t-34.5 178t-13.5 173.5z" />
<glyph unicode="2" horiz-adv-x="738" d="M236 108q0 61 11.5 120.5t26 119.5t26 121.5t11.5 125.5q0 8 -0.5 28.5t-0.5 43t-0.5 43t-0.5 28.5q-2 4 -11 13t-12 11h-13q-36 0 -60.5 -16t-42 -39.5t-32 -51.5t-31.5 -51.5t-38.5 -39.5t-54.5 -16q0 59 20.5 115t57.5 100t88.5 70.5t114.5 26.5q26 0 43 -2t29 -10 t20 -23t17 -40q0 -9 0.5 -32t1.5 -50v-50q1 -24 1 -33q0 -59 -7 -115.5t-16 -112t-16 -111.5t-7 -114h20l262 119q1 0 5 0.5t9.5 0.5t10.5 0.5t8 0.5q10 0 21 -1t20.5 -4.5t16 -11.5t6.5 -21q0 -23 -14.5 -36.5t-34 -21.5t-40 -13.5t-33.5 -11.5q-10 -6 -32 -17l-51 -25 l-59 -29l-59 -30l-51 -26l-33 -16q-2 0 -7 -0.5t-11 -0.5t-11 -0.5t-7 -0.5q-23 0 -35.5 5t-18 15.5t-6.5 26.5t-1 39z" />
<glyph unicode="3" horiz-adv-x="643" d="M331 48q0 3 1.5 12.5t1.5 11.5q28 19 61.5 49.5t62.5 67t48.5 76.5t19.5 80q0 2 -0.5 4t-0.5 4q-1 2 -1 4l-14 15l-21 22l-21 21l-15 14q-2 0 -5 1q-2 0 -4 0.5t-4 0.5q-21 0 -49 -17t-54.5 -39t-47 -41.5t-27.5 -24.5q-2 -1 -5 -1q-3 -1 -7 -1t-6 1q-3 0 -5 1 q-5 2 -14 11.5t-11 13.5v11v12q9 28 25 70t31.5 88t27 92t11.5 83q0 27 -2.5 53t-11 47t-25.5 33.5t-46 12.5q-38 0 -67.5 -22t-50 -54.5t-29.5 -70t-5 -69.5h-48q-1 0 -4 11l-7 26q-4 15 -7.5 31t-5.5 27v23q0 39 22 74t55.5 61.5t72 42t71.5 15.5q51 0 85 -17.5 t55.5 -47.5t32 -69t14 -81.5t1.5 -86t-5 -81.5q46 -8 85.5 -22.5t69 -38.5t46.5 -59t17 -85q0 -27 -10 -62.5t-28 -74t-42 -75.5t-52 -66t-59 -47t-62 -18q-21 0 -29.5 15t-8.5 33z" />
<glyph unicode="4" horiz-adv-x="690" d="M-7 298q0 43 16 103t44 125t66 129t82.5 115t93.5 82.5t98 31.5q11 0 29.5 -0.5t36.5 -3.5t31 -11t13 -23q0 -1 -2 -7q-1 -3 -1 -5q-2 -4 -8 -11l-14 -15q-7 -8 -14.5 -14.5t-10.5 -8.5q0 -8 -0.5 -28t-0.5 -42.5t-0.5 -43t-0.5 -28.5q0 -35 -0.5 -68t1.5 -65t7 -64 t17 -65q3 0 9.5 -0.5t14.5 -0.5t14.5 -0.5t9.5 -0.5q15 0 29.5 0.5t27 5t22.5 14.5t17 30q35 -14 42 -33.5t7 -47.5q0 -34 -14.5 -51t-38.5 -24.5t-55 -8.5l-61 -2q4 -11 11 -38l14 -58l14 -57q7 -27 9 -37q0 -2 1 -12t1 -15q0 -30 -16.5 -38.5t-45.5 -8.5q-4 0 -17.5 1 t-17.5 1q-2 13 -9 44l-14 64q-7 34 -14.5 64t-11.5 42q-3 9 -9.5 23.5t-16 28t-21 23t-23.5 9.5h-341zM334 738q-35 -25 -73.5 -63.5t-71 -84t-53.5 -94t-21 -92.5h244q0 35 -3.5 85.5t-7.5 100t-8.5 90.5t-5.5 58z" />
<glyph unicode="5" horiz-adv-x="548" d="M408 348q0 13 -3.5 27.5t-11 27t-19.5 20.5t-29 8q-1 0 -2.5 -0.5t-3.5 -0.5q-3 -1 -5 -1q-5 -3 -20 -10t-34 -17l-42 -21l-41 -20l-34 -17q-15 -8 -20 -10q-2 -1 -5 -2t-7 -1q-25 0 -43 24t-30 61t-19 82t-11 87.5t-5 77.5t-1 52q0 7 0.5 24t0.5 36t0.5 36t0.5 23 q27 2 79 10l110 16q58 8 113.5 14.5t90.5 6.5q27 0 45.5 -10.5t18.5 -36.5t-11 -34.5t-41 -14.5q-11 -2 -35 -6l-55 -9l-64 -10l-64 -10l-55 -8q-25 -3 -37 -4q0 -3 -0.5 -9.5t-0.5 -14.5t-0.5 -14.5t-0.5 -9.5q0 -9 1.5 -28.5t5 -43.5t8.5 -49.5t11.5 -46.5t14.5 -34.5 t18 -13.5q22 0 41.5 8t39 18t40.5 18t46 8q47 0 78 -12t49 -36t25.5 -59t7.5 -81q0 -52 -17.5 -110.5t-50.5 -108t-80.5 -82t-108.5 -32.5q0 35 12 64t30 54.5t39 50t39 50.5t30 56t12 68z" />
<glyph unicode="6" horiz-adv-x="524" d="M24 95q0 6 -0.5 21.5t-0.5 32.5t-0.5 32t-0.5 22q0 22 1.5 75.5t7 121.5t16 140.5t28 133t42.5 99.5t61 39q1 0 3 -0.5t4 -0.5q3 -1 5 -1q4 -2 13 -11t11 -14v-11v-12l-8 -32l-12 -55l-16 -68l-16 -68l-13 -55q-5 -24 -7 -31q-1 -3 0 -9t2 -13t2 -12.5t1 -8.5 q23 0 45.5 7t45.5 15.5t46.5 15.5t48.5 7q75 0 110 -42.5t35 -114.5q0 -57 -26 -111.5t-69 -97t-97.5 -68.5t-111.5 -26q-27 0 -48 3t-38.5 13.5t-33 30t-30.5 53.5zM140 214q0 -12 2.5 -32.5t9 -40t18.5 -34t32 -14.5q27 0 58.5 20t58.5 49.5t45.5 63t18.5 60.5 q0 21 -7.5 31t-19.5 14.5t-28 4.5h-33q-30 0 -57.5 -7.5t-49.5 -22.5t-35 -38t-13 -54z" />
<glyph unicode="7" horiz-adv-x="667" d="M500 607v13q-6 3 -20 6l-28 8q-15 4 -28.5 6.5t-19.5 2.5q-14 0 -43.5 1t-67 2t-79 2t-79 2t-67.5 1.5t-44 0.5v63q0 7 19.5 11.5t49 7.5t64.5 4t65.5 1.5t51.5 0.5h24q16 0 46 1t66 0t73.5 -5.5t68.5 -15.5t50.5 -29.5t19.5 -47.5q0 -72 -10.5 -123.5t-25.5 -93.5 t-31 -79.5t-27 -80t-13.5 -94.5t9.5 -124q-14 -29 -30.5 -39.5t-40.5 -10.5q-5 0 -13.5 1t-10.5 1q-1 6 -2.5 21t-1.5 43t3 72t11.5 108t23 150.5t37.5 200.5v12z" />
<glyph unicode="8" horiz-adv-x="643" d="M117 181q0 3 0.5 8t0.5 10.5t0.5 9.5t0.5 5q2 5 12 26l23 46l22 45q11 21 14 26v12v12q-10 8 -28 24l-39 37q-21 20 -43 44t-39.5 49t-29 49.5t-11.5 46.5q0 57 31 94.5t80 60.5t110 33.5t121 14t112.5 3t84.5 -0.5q39 0 61 -22t22 -61q0 -30 -14.5 -65.5t-37.5 -72 t-50.5 -72l-54.5 -67.5l-50 -56q-22 -24 -34 -39l37 -57q18 -28 31 -57t21 -59.5t8 -64.5q0 -75 -46 -110t-120 -35q-37 0 -72 14t-62.5 39t-44 58.5t-16.5 71.5zM236 178q0 -35 23 -59t63 -24q25 0 43 10.5t18 34.5t-9 44.5t-23 38.5t-31 33.5t-34 29.5 q-27 -18 -38.5 -47.5t-11.5 -60.5zM117 643q0 -27 16.5 -57t41 -54.5t54.5 -41t57 -16.5q4 0 12.5 1t10.5 1q8 6 29.5 24.5t45 42.5t43.5 50.5t26 49.5q-19 28 -35 43t-33 22t-36 8t-44 1h-53q-32 0 -62 -6.5t-51.5 -22t-21.5 -45.5z" />
<glyph unicode="9" horiz-adv-x="548" d="M408 488q0 4 -0.5 16t-1.5 25.5t-1.5 25.5t-0.5 16q-30 -33 -52 -52.5t-43.5 -29t-45 -12.5t-56.5 -3t-57.5 5t-45.5 16.5t-40 30t-40 45.5q0 6 -0.5 21.5t-0.5 33t-0.5 32.5t-0.5 21q0 56 14 106t43.5 88t75.5 60t109 22q61 0 104 -23.5t71.5 -62.5t45.5 -89.5 t25.5 -103.5t11 -106t2.5 -96v-21q-2 -14 -7 -44l-13 -68l-15 -79l-15 -79l-12 -67l-9 -44q-17 -32 -44 -46t-61 -14q0 61 9.5 120.5t20.5 118.5t20.5 118t9.5 119zM117 690q0 -22 2.5 -43.5t11 -38t25.5 -27t47 -10.5q28 0 60 24t58.5 57t44 67t17.5 55q0 16 -13.5 31.5 t-32.5 27.5t-39.5 19.5t-33.5 7.5q-42 0 -70.5 -12.5t-45.5 -35t-24 -53.5t-7 -69z" />
<glyph unicode=":" horiz-adv-x="309" d="M93 59q0 36 21.5 55t52.5 27t65 9t59 1q0 -31 -9 -58.5t-26 -48.5t-42.5 -33.5t-58.5 -12.5q-35 0 -48.5 13t-13.5 48zM-2 417q0 18 13.5 33.5t32.5 27t40 18.5t35 7q32 0 41 -19t9 -48q0 -21 -9 -36.5t-24 -25.5t-35 -14.5t-42 -4.5q-4 0 -6 1q-3 0 -5 1q-4 1 -11 7 l-15 14l-13.5 15.5t-8.5 10.5q-1 3 -1 6q-1 3 -1 7z" />
<glyph unicode=";" horiz-adv-x="214" d="M72 -429q38 85 49 175t-2 182l48 48q22 -7 32.5 -28.5t14.5 -48.5t3.5 -55.5t-0.5 -48.5q0 -5 -1.5 -18.5t-1.5 -15.5q-2 -11 -8 -37l-13 -58l-15 -57l-11 -38q-3 -2 -9 -5l-15 -8l-14 -7q-7 -3 -10 -4h-11h-13q-4 2 -12.5 11.5t-10.5 12.5zM117 264h24q13 0 24.5 -3 t19.5 -11t8 -24q0 -24 -21.5 -41t-51 -28.5t-61 -16.5t-50.5 -5q0 28 6 51.5t18.5 41t33 27t50.5 9.5z" />
<glyph unicode="&#x3c;" horiz-adv-x="476" d="M22 286q0 36 22.5 73t59 72t83 65.5t95 53.5t94.5 36.5t81 13.5q0 -32 -16.5 -58.5t-43 -50t-59.5 -45.5l-64 -43q-32 -21 -60.5 -44t-46.5 -50q-1 -3 -2 -5q-1 -3 -1 -6q0 -4 1 -7t2 -5q2 -2 10.5 -11.5t12.5 -12.5l26 -17l48 -30l57 -36l58 -37l47 -30q20 -13 27 -17 q3 -2 12 -11t11 -12q0 -3 1 -6q0 -2 0.5 -4t0.5 -3t-0.5 -2.5t-0.5 -3.5q-1 -3 -1 -5q-3 -5 -10.5 -13.5t-15 -16t-14 -13t-8.5 -5.5q-18 0 -55 14t-82 37.5t-92.5 53.5t-87 62t-64.5 63t-25 56z" />
<glyph unicode="=" horiz-adv-x="595" d="M500 406q32 2 41 -12.5t9 -34.5q0 -26 -15 -40.5t-37.5 -21t-48 -8.5t-45.5 -3q-13 -1 -41.5 -1.5t-64.5 -2t-76 -2.5l-75 -2q-36 -1 -64.5 -1.5t-41.5 -0.5q0 46 31 73t78.5 41t104 17.5t107.5 3t89 -3.5t49 -1zM52 604q92 5 176 9l74 4l75 4q37 2 69.5 3.5t58.5 3.5h14 q22 0 29 -15.5t7 -31.5q0 -27 -9.5 -42.5t-40.5 -29.5q-9 0 -31 -0.5t-46.5 -0.5t-46.5 -0.5t-31 -0.5q-29 0 -76.5 -2.5t-96.5 2t-90.5 20.5t-57.5 54z" />
<glyph unicode="&#x3e;" horiz-adv-x="500" d="M95 48q0 18 15.5 46.5t39.5 61.5t53 68l55 66l47 56q20 24 28 35q0 2 1.5 6t1.5 6l-2 6q-1 2 -1 5q-2 5 -11 14t-13 11q-7 4 -27 17l-46 30l-57 36l-58 36l-47 30q-20 13 -27 17q-17 11 -23 23t-6 32q30 0 78 -9.5t101.5 -25.5t108 -38.5t98 -48.5t71 -54.5t27.5 -56.5 q0 -2 -1 -6t-1 -7l-30 -36l-45 -55l-54 -65l-55 -64l-47 -54l-31 -35q-17 -19 -27 -32.5t-18.5 -22.5t-19 -13.5t-28.5 -4.5q-5 0 -13.5 0.5t-16.5 3t-14 7.5t-6 15z" />
<glyph unicode="?" horiz-adv-x="404" d="M214 48q0 13 10 29.5t24 31t30.5 24.5t30.5 10q2 0 11.5 -9.5t13.5 -14.5q3 -3 6.5 -10.5t7.5 -15t6.5 -14t2.5 -7.5q0 -21 -5.5 -31.5t-14.5 -14.5t-21 -4h-25q-4 0 -16.5 -0.5t-26 1t-24 7t-10.5 18.5zM140 478q0 40 16 75t34.5 68.5t34.5 68t16 75.5q0 14 -8 26.5 t-20.5 22t-28 15t-29.5 5.5q-22 0 -40 -11t-33.5 -26t-29.5 -31.5t-28 -27.5q-2 -2 -14.5 -4.5t-16.5 -2.5q0 44 12 80.5t35 63t58 41.5t80 15q31 0 63.5 -14.5t58.5 -38t42.5 -54t16.5 -62.5q0 -40 -10.5 -72.5t-25 -61t-30 -55t-26.5 -55.5t-13.5 -62t8.5 -75 q-2 -3 -8.5 -7l-13.5 -8l-15 -6q-7 -3 -11 -3q-24 0 -38.5 12.5t-22.5 31t-10.5 39.5t-2.5 38z" />
<glyph unicode="@" horiz-adv-x="952" d="M22 388q0 105 39.5 199.5t107.5 165.5t160.5 112.5t198.5 41.5q70 0 141 -30.5t129 -82t94.5 -118.5t36.5 -140q0 -62 -21 -126.5t-58.5 -124t-87.5 -112t-108.5 -91.5t-122 -61.5t-127.5 -22.5q-78 0 -147.5 31.5t-121.5 85t-82.5 124t-30.5 149.5zM117 388 q0 -65 24 -119.5t65.5 -93.5t97 -60.5t117.5 -21.5q38 0 72.5 11.5t65 31t57.5 46t51 57.5q-14 14 -25 23.5t-21 15t-21.5 8t-26.5 2.5q-21 0 -41 -4.5t-39.5 -10t-40 -10t-42.5 -4.5q-23 0 -48.5 9t-48 25t-37 38.5t-14.5 49.5q0 43 22.5 82t57 68t77 46.5t81.5 17.5 q45 0 70 -16t38.5 -40t21.5 -52t20 -52t32.5 -40t59.5 -16q31 0 50 18.5t28.5 46t12.5 59.5t3 59q0 51 -31.5 96t-78.5 79.5t-102 54.5t-101 20q-82 0 -156 -35.5t-129.5 -94.5t-88 -135.5t-32.5 -158.5zM528 507q-74 -12 -114.5 -31.5t-56 -41.5t-10 -42.5t23.5 -33.5 t43.5 -15t50 13t44 50t25.5 97z" />
<glyph unicode="A" horiz-adv-x="762" d="M262 976q7 20 20 23t29 3q26 0 57.5 -34t65 -90.5t67.5 -130t65.5 -151.5t59 -156t48 -143t32 -112.5t11.5 -65.5t-8.5 -34t-29.5 -16q-13 0 -22.5 8.5t-16.5 20.5t-12.5 24.5t-9.5 20.5l-19 47l-28 72l-29 72l-19 47q-77 13 -155.5 25t-165.5 23h-12 q-40 -172 -70.5 -272t-51 -142.5t-32.5 -35t-15.5 51.5t1.5 117t18.5 161.5t34 185t48.5 186.5t63 167.5t76 127.5zM236 584q0 -41 26.5 -60t64.5 -25t79.5 -4.5t71.5 1.5q0 44 -14.5 95.5t-36.5 103t-48 99.5l-46 87q-12 -12 -26 -45t-27.5 -73.5t-25 -79.5t-16.5 -63 q0 -3 -1 -17t-1 -19z" />
<glyph unicode="B" horiz-adv-x="667" d="M38 829q13 68 48.5 107.5t82 54t99 7t99.5 -33t83 -66t50 -92t0 -111.5t-66 -124q41 -14 75 -28.5t58 -35.5t37.5 -51t13.5 -75q0 -37 -13.5 -78t-37.5 -81t-55.5 -76t-68 -63.5t-75 -44t-75.5 -16.5q-24 0 -47.5 31t-45.5 82.5t-43 118t-39 138t-32.5 142.5t-25 131 t-16.5 103.5t-6 60.5zM236 348q0 -19 8.5 -50t22.5 -62.5t31 -57.5t35 -35q16 -8 37 2.5t42.5 33t42 52t36.5 58.5t25.5 54t9.5 38q0 29 -8 47.5t-23 29.5t-35.5 15.5t-45.5 4.5q-27 0 -58 -9t-57.5 -25.5t-44.5 -41t-18 -54.5zM164 726q0 -20 -1 -49.5t0.5 -61t7 -62.5 t19.5 -53q55 10 95.5 38t65.5 65t36 79.5t8 82t-19 73t-45 52t-70 18.5t-94 -27q0 -9 -0.5 -31t-1 -46.5t-1 -46.5t-0.5 -31z" />
<glyph unicode="C" horiz-adv-x="715" d="M22 381q0 38 10.5 82.5t29.5 89.5t45.5 87.5t60 75.5t72.5 52.5t82 19.5q36 0 67 -9.5t53.5 -28.5t35 -47.5t12.5 -66.5q-24 0 -39 12.5t-28 28t-28 28t-38 12.5q-35 0 -66.5 -18t-58.5 -48t-48 -67.5t-36 -76t-23 -75t-8 -63.5q0 -58 17 -108.5t49.5 -87.5t80 -58.5 t108.5 -21.5q39 0 74 12t68 26t65 26t64 12q5 0 13 -0.5t15.5 -3t13 -7.5t5.5 -15q0 -40 -30.5 -67.5t-73 -45t-88 -25t-74.5 -7.5q-84 0 -157.5 27t-127.5 77t-85.5 120.5t-31.5 158.5z" />
<glyph unicode="D" d="M24 753q0 47 27.5 77t68 47t87 23.5t84.5 6.5q72 0 121.5 -28.5t80 -75t44 -107.5t13.5 -125q0 -42 -9 -99t-26.5 -118t-43.5 -120.5t-60.5 -106.5t-77.5 -76t-94 -29q-10 0 -24 27.5t-31 73t-35.5 105t-36.5 123.5l-33 128l-29 119q-12 54 -19 95.5t-7 59.5zM117 690 q0 -36 5 -81.5t15.5 -94t26.5 -98t37 -93t48 -78.5t60 -55q38 53 65.5 95.5t45.5 84.5t26.5 90t8.5 111q0 46 -6 89t-24 77t-51.5 54.5t-87.5 20.5q-45 0 -86.5 -13.5t-80.5 -36.5q0 -3 -0.5 -13t-0.5 -21.5t-0.5 -22.5t-0.5 -15z" />
<glyph unicode="E" horiz-adv-x="738" d="M72 881q-5 0 -15 3l-22 6q-12 4 -22 8t-13 7q-1 2 -1 4q-1 2 -1 5q0 16 12 27t28 18.5t32 10.5l25 6h13h11l68 -8l87 -9l93 -10q47 -5 86 -10l64 -7q26 -3 31 -3q9 -1 23 -4t28 -9t26.5 -14.5t17.5 -20.5q-9 -18 -15.5 -27.5t-14 -14t-16 -5t-20.5 -0.5q-47 0 -94 3 l-94 7l-94 7q-47 4 -95 4q0 -21 -5 -60.5t-7.5 -84t2 -88.5t24.5 -74q39 23 81.5 24t85.5 1h48q29 0 56 -6.5t46 -22t19 -46.5q0 -22 -9 -33.5t-41 -11.5q-3 0 -13.5 3.5l-22.5 7.5l-22 8q-10 4 -13 4q-1 0 -8.5 0.5t-17.5 0.5t-19.5 0.5t-14.5 0.5q-26 0 -49.5 -3.5 t-41.5 -13.5t-28.5 -29t-10.5 -49q0 -10 2 -34t6 -53.5t11 -61t18 -57.5t25 -43t33 -17q3 0 12 1t11 1q37 25 75.5 55t79.5 56.5t85.5 44.5t92.5 18v-54q0 -5 -21.5 -25t-56.5 -46.5t-78.5 -56.5t-87 -55t-83 -41.5t-65.5 -16.5q-38 0 -67.5 34t-52.5 90t-39 129t-27.5 151 t-18.5 155.5t-11.5 143t-6.5 113.5t-3 67z" />
<glyph unicode="F" d="M0 785q43 22 81.5 32.5t77 14.5t78.5 4h85q9 0 30.5 -0.5t46.5 -0.5t46.5 -0.5t30.5 -0.5q12 -4 18.5 -15t10 -23.5t4.5 -25t1 -19.5h-367v-239h398q0 -37 -23 -59t-58.5 -34t-78.5 -16t-82 -3.5t-69 2.5t-40 2v-23q0 -47 22.5 -88.5t49.5 -80.5t49.5 -76.5t22.5 -76.5 q0 -24 -10 -42.5t-36 -18.5q-28 0 -55 29t-52.5 77t-48.5 111t-43.5 131t-36.5 135.5t-27.5 126t-18 102.5t-6.5 64v11z" />
<glyph unicode="G" horiz-adv-x="785" d="M-2 395q0 55 16 113t44.5 112.5t68 103t87.5 84.5t103 57t114 21q26 0 66.5 -6t78.5 -19t65.5 -34.5t27.5 -52.5q0 -2 -0.5 -3.5t-0.5 -3.5q-1 -3 -1 -5q-2 -3 -11 -12.5t-13 -11.5q-2 -1 -5 -1q-3 -1 -7 -1t-6 1q-3 0 -5 1l-27 14l-46 23l-45 23q-21 10 -26 12 q-5 0 -9 1q-4 0 -7 0.5t-5 0.5q-53 0 -100.5 -19t-87.5 -52t-72.5 -76.5t-55 -92t-34.5 -99t-12 -97.5q0 -63 20 -111.5t56 -81.5t85 -49.5t107 -16.5q34 0 82.5 9t93.5 29t76.5 51.5t31.5 77.5q0 19 -6 29.5t-16 15.5t-24 6t-30 1q-24 0 -42 -8t-35 -18t-34.5 -18t-40.5 -8 q-29 0 -45.5 9t-16.5 41t22.5 51t54 29.5t66 13.5t57.5 3q40 0 74 -6t59 -22t38.5 -44.5t13.5 -72.5q0 -69 -38 -119.5t-95 -83t-123 -48.5t-123 -16q-80 0 -147 28t-115 78.5t-74.5 119.5t-26.5 150z" />
<glyph unicode="H" horiz-adv-x="738" d="M-2 690q0 6 0.5 19.5t0.5 28.5t0.5 28.5t0.5 18.5q28 30 46.5 35.5t29.5 -6.5t16 -37.5t7 -57.5t2 -67.5t1 -66t4.5 -54t12.5 -31.5h381q23 0 33 14.5t12 38t-1.5 53.5t-6 61.5t-2 62t9.5 54t29.5 38t58.5 14.5q15 -22 18 -47t1.5 -51.5t-5.5 -52.5t-4 -51 q0 -65 8.5 -130.5t18 -131t18 -130.5t8.5 -129q2 -68 -9 -97.5t-28 -27t-37.5 33.5t-37.5 83.5t-27.5 123t-8.5 152.5h-401q8 -77 20.5 -144.5t20 -119t5.5 -82t-23 -32.5q-32 0 -54.5 22t-38.5 59.5t-26 88t-16.5 107t-10.5 114.5l-7 114q-4 54 -8 101.5t-11 80.5z" />
<glyph unicode="I" horiz-adv-x="857" d="M357 155q0 58 -14.5 127t-31.5 142l-33 144q-15 71 -16 134h-248q0 9 0.5 25.5t3.5 34t10 31.5t20 17h611q-1 -35 -14.5 -54t-35 -29t-48.5 -13l-53 -6q-27 -3 -52.5 -8.5t-44 -19.5t-28 -39t-4.5 -68q0 -23 3.5 -61.5t11 -83t20 -89.5t30.5 -82t42 -60t56 -23 q22 -2 57.5 0t71 3t67 -1.5t46 -13.5t6.5 -32.5t-49 -58.5q-71 -26 -143.5 -35.5t-146 -10.5t-147 2t-145.5 3q-41 50 -49 76.5t6 37.5t44.5 11.5t66 -2.5t71 -4.5t59.5 6.5z" />
<glyph unicode="J" horiz-adv-x="715" d="M212 72q0 30 18 40.5t45 13.5t58.5 3.5t58.5 10.5t45 33.5t18 72.5q0 139 -15.5 233t-60 149.5t-124 75.5t-207.5 11q-4 1 -11 7l-15 14l-13.5 15.5t-8.5 10.5q-1 2 -1 5q-1 3 -1 7q0 3 1 6q0 2 1 5q3 3 9.5 7.5t14.5 7.5l14 7q7 3 10 3q21 1 63.5 3.5t97 5t117.5 6 t125.5 6t120 4t102.5 1.5q0 -35 -13 -53t-32.5 -27.5t-42.5 -14t-42.5 -12t-32.5 -22.5t-13 -44q0 -57 11.5 -111.5t26 -108.5t26 -108.5t11.5 -110.5q0 -49 -22 -90.5t-58 -71.5t-81 -47t-90 -17q-17 0 -36.5 3.5t-36 12.5t-27 23t-10.5 35z" />
<glyph unicode="K" horiz-adv-x="785" d="M22 769q0 21 -1 45.5t4 45.5t18 35t42 14q21 -29 27 -71.5t8 -90t5 -94t18 -82.5q2 -4 11 -12.5t13 -10.5q33 29 60 60l54 60q27 30 53.5 56.5t58.5 46.5t71 31.5t89 11.5q0 -26 -18.5 -52.5t-47.5 -54t-63 -56.5l-67 -57q-33 -29 -58.5 -58.5t-36.5 -59.5q19 -5 63 -22 t100 -42l116 -54q60 -29 110 -57.5t82 -53.5t32 -40v-15q0 -10 -2 -21t-7.5 -19.5t-17.5 -8.5q-47 2 -88 18t-80 39.5t-77 50t-78 50t-83 39t-93 17.5q-17 -27 -14.5 -52t15 -50t30.5 -51t31.5 -54.5t17.5 -59.5t-10 -66q-2 -3 -8 -7t-13.5 -8t-15 -6.5t-10.5 -2.5 q-14 0 -31.5 28t-37 75.5t-40 109t-39.5 128t-35.5 133.5t-29 125.5t-20 103t-7.5 66.5z" />
<glyph unicode="L" horiz-adv-x="690" d="M0 729q0 22 15 29t33 7q3 0 12.5 -1.5t11.5 -1.5q4 -34 7 -82.5t7.5 -104.5t11.5 -116t19 -117.5t29.5 -109t43.5 -89.5q6 -10 11 -15t10 -7.5t11.5 -3t16.5 -0.5q45 0 87 15.5t83 34.5t83.5 34.5t88.5 15.5q10 0 25.5 0.5t29 -2t23.5 -11t10 -26.5q0 -17 -30 -36.5 t-76.5 -39t-101.5 -38t-105.5 -33t-89.5 -23t-52 -8.5q-40 0 -70.5 27.5t-53 73.5t-38 105.5t-25.5 123.5t-15.5 127.5t-8 118t-3 95.5t-0.5 58z" />
<glyph unicode="M" horiz-adv-x="976" d="M22 476q0 13 0.5 43.5t0.5 64.5t0.5 64t0.5 42l6 24q4 16 10.5 31.5t17 27.5t25.5 12q37 0 69.5 -20.5t62.5 -53t57 -72.5l53 -80l52 -74q26 -35 52 -56q28 12 43.5 45t25.5 75.5t18 89t22.5 85t38.5 63.5t66 25q50 0 91 -39t73 -99t55 -133t38.5 -141t23 -122.5 t7.5 -77.5q0 -10 -1 -21.5t-5.5 -21t-14.5 -14.5t-29 0q-5 1 -12.5 6.5t-15 13t-13 15t-6.5 12.5l-22 121q-12 67 -30.5 135.5t-46 132.5t-68.5 111q-32 -18 -50.5 -54t-31 -78.5t-22.5 -87t-26.5 -81t-42 -59.5t-68.5 -23q-30 0 -58.5 19.5t-55 51t-51.5 69.5l-49 76 q-24 37 -47 69t-46 51q-9 -34 -14 -60t-8 -50.5t-3.5 -50t-0.5 -56.5q0 -47 8 -93t17 -91.5t17 -92t8 -92.5v-9q-2 -4 -9 -11l-14 -15q-7 -7 -14.5 -13.5t-10.5 -8.5q-2 -1 -5 -1q-3 -1 -7 -1q-2 0 -5.5 1t-5.5 1q-8 65 -16.5 122.5t-16 114t-12.5 114.5t-5 125z" />
<glyph unicode="N" horiz-adv-x="762" d="M72 48l-12 51l-15 73l-16 84q-8 44 -14.5 85.5t-10.5 76.5t-4 58q0 10 2.5 34t6.5 51t8 50t7 32q4 1 12.5 1.5t17.5 1.5t17.5 1.5t11.5 0.5q54 0 101.5 -21t91 -53.5t84.5 -72.5l83 -78q41 -37 84.5 -68t92.5 -46q0 5 0.5 17t0.5 25.5t0.5 25t0.5 16.5q0 70 -9 137 t-20 133.5t-20 134t-9 138.5q8 0 20 -0.5t24 -3.5t22 -9t13 -18q5 -81 21 -161l32 -162q16 -80 29 -160.5t13 -159.5q0 -14 -0.5 -31t-4.5 -32t-13 -25t-27 -10q-57 0 -106 26.5t-95 65.5t-90 85.5t-90 85.5t-95.5 65.5t-106.5 26.5q0 -62 9 -119.5t19.5 -114t19.5 -112.5 t9 -114q0 -21 -15 -29t-33 -8q-14 0 -27 3t-20 23z" />
<glyph unicode="O" horiz-adv-x="715" d="M0 309q0 57 15 115t42 111.5t66 99.5t86.5 80t103 53.5t116.5 19.5t106 -24t75 -64t44.5 -91.5t14.5 -105.5q0 -93 -28 -183.5t-82.5 -162t-135 -115.5t-184.5 -44q-62 0 -107 28t-74.5 73t-43.5 100.5t-14 109.5zM95 284q0 -30 9.5 -63t27.5 -61t45 -46.5t62 -18.5 q74 0 135.5 33.5t105.5 87.5t68.5 120.5t24.5 132.5q0 38 -2 78t-14 72.5t-38.5 53t-75.5 20.5q-15 0 -41 -1t-52 -6t-45 -15t-19 -28q0 -2 3.5 -9t8 -15t8 -15t3.5 -9q0 -3 -9 -12.5t-14 -11.5q-56 -14 -93 -36t-59 -56t-30.5 -82t-8.5 -113z" />
<glyph unicode="P" horiz-adv-x="548" d="M11 878q0 34 13 56.5t35 36t49.5 20.5t56.5 9.5t57 2t51 -0.5q46 0 91.5 -9t80.5 -31t57 -59t22 -93q0 -49 -19 -97.5t-50 -92t-69.5 -79.5t-77 -62t-73.5 -40t-58 -11q-14 -44 -16.5 -93t-1.5 -96.5t3 -90t-4 -73t-22.5 -46t-51.5 -9.5q-9 79 -14 160t-8.5 161t-6.5 156 t-8 145t-13.5 129t-22.5 107zM286 907q-17 0 -41.5 -1t-47 -7.5t-38.5 -21.5t-16 -43v-291q46 0 97 24.5t93.5 62.5t70 85.5t27.5 94.5q0 34 -12.5 53t-33 29t-46.5 12.5t-53 2.5z" />
<glyph unicode="Q" horiz-adv-x="905" d="M631 190q-44 0 -87 -15t-86.5 -33.5t-88.5 -33.5t-93 -15q-66 0 -114 25.5t-79 68.5t-46 100.5t-15 120.5q0 62 12.5 133.5t38 143t64 137.5t89.5 117t114.5 81.5t140.5 30.5q54 0 99 -19t81.5 -51.5t64 -75.5t46 -91t28 -98t9.5 -96t-15 -90.5t-32.5 -87.5t-32.5 -85.5 t-15 -83.5v-11l37 -38q24 -25 48 -54.5t42 -62t18 -62.5q0 -22 -8 -33.5t-42 -11.5l-24 24l-28 32l-43 50l-42 50q-21 24 -29 34h-12zM117 402q0 -46 7 -85.5t25.5 -68t51.5 -44.5t85 -16q13 0 38 2t54.5 7t60 13t55 20.5t40.5 29t16 38.5q0 6 -9.5 21.5t-24.5 36.5l-32 45 l-34 48q-17 23 -29.5 42.5t-16.5 32.5q8 20 21 23t28 3q21 0 37 -12.5t28.5 -31.5t24 -41.5t24.5 -41.5t28 -31.5t36 -12.5t36 16t24.5 40.5t14.5 54.5t7.5 58t3 50.5t0.5 32.5q0 57 -12 114.5t-40 104t-74 76t-115 29.5q-53 0 -100.5 -27.5t-87.5 -72.5t-71.5 -103 t-54 -119.5t-34 -121.5t-11.5 -109z" />
<glyph unicode="R" horiz-adv-x="785" d="M-2 785q0 8 0.5 28.5t0.5 43.5t0.5 43.5t0.5 28.5q12 23 38 33.5t57 14.5t60.5 3t47.5 -1q25 0 57.5 -2.5t65.5 -8.5t65 -17.5t57 -30t40 -44.5t15 -62q0 -42 -20 -76t-49.5 -63t-64 -54.5t-64 -50t-49.5 -50.5t-20 -56q0 -2 1.5 -5.5t1.5 -5.5q131 -38 255 -94t244 -120 q3 -2 7 -8.5t7 -14.5l7 -15q3 -7 3 -11q0 -10 -5.5 -15t-13 -7.5t-15.5 -3t-13 -0.5q-61 0 -120 26.5t-119 58.5t-122 58.5t-128 26.5h-36l32 -73q14 -32 23.5 -62t14 -60.5t4.5 -66.5q0 -7 0.5 -18t-1 -22t-7 -20t-17.5 -12q-46 27 -82 83t-62.5 128t-45 153.5t-30 159.5 t-16.5 146.5t-5 114.5zM93 715q0 -15 -1.5 -37.5t-0.5 -46.5t7 -46t21 -37q2 -1 4 -1q2 -1 6 -1q20 0 48.5 12t59.5 32t61.5 46t55 54t39.5 56t15 52q0 22 -17 38t-40 26t-48 14.5t-41 4.5q-19 0 -44.5 0.5t-50.5 -3t-45 -13.5t-27 -31q0 -6 -0.5 -23t-0.5 -36t-0.5 -36 t-0.5 -24z" />
<glyph unicode="S" horiz-adv-x="595" d="M190 48q6 26 28.5 43.5t52 32t62 27t59.5 27t45 34t18 47.5q0 35 -18.5 58.5t-49 40t-69.5 28.5l-79 23q-41 11 -80 25t-69.5 35t-49 51t-18.5 75q0 36 15 69t40 62.5t58 53.5t69 41t72.5 26.5t68.5 9.5h12l27 -11l32 -16q15 -7 26 -13t11 -7v-25q-21 -3 -54 -9t-70 -16 t-74.5 -25t-67.5 -35t-49 -46t-19 -59q0 -48 33.5 -75.5t83.5 -45t109 -31.5t109 -33.5t83.5 -51t33.5 -85.5q0 -29 -17 -60.5t-45.5 -62t-64 -58.5t-73 -48.5t-73 -33t-62.5 -12.5q-9 0 -19 2t-17.5 7t-11 15t1.5 26z" />
<glyph unicode="T" horiz-adv-x="905" d="M453 667q-4 15 -17 20.5t-28 6t-29.5 -1.5t-21.5 -2q-19 1 -66 4l-101 8l-100 7q-47 4 -66 6q0 2 -1 10.5t-1 12.5q0 15 3 27.5t22 19.5q104 -3 206 0.5t203 9.5l204 11q101 6 204 6q0 -42 -19.5 -61.5t-49 -26t-65.5 -5.5t-68.5 -1t-57.5 -12.5t-33 -38.5q-1 -7 -2 -26 t-1.5 -40t-1 -39.5t-0.5 -25.5q0 -64 16 -125.5t35.5 -122t35.5 -121t16 -122.5q0 -47 -53 -47q-33 0 -58 44.5t-43 113t-30 150t-19 156t-10 131t-3 74.5z" />
<glyph unicode="U" horiz-adv-x="690" d="M48 762q18 -13 29 -32.5t18 -39.5q1 -42 1 -101t4 -122.5t16.5 -126t38.5 -112.5t70 -80.5t111 -30.5q61 0 105 28.5t73 73t43 99.5t14 108q0 101 -10 206t-37 202q8 20 20.5 23t26.5 3q29 0 45.5 -23.5t25 -59.5t10 -78.5t0 -81t-4 -68t-2.5 -37.5q0 -58 -3 -117 t-13.5 -113.5t-31 -102t-55 -82.5t-85.5 -55t-123 -20q-89 0 -147 34.5t-93 92t-52 130.5t-24.5 150t-10 151.5t-7.5 134.5z" />
<glyph unicode="V" horiz-adv-x="715" d="M0 803q49 0 81 -28.5t54.5 -75t37 -106t27.5 -122t27 -122t35.5 -106t52.5 -75t78 -28.5q3 0 6 1q2 1 5 2q5 2 14 11t11 13q2 5 9 36.5l18 78.5l26 108l31 122l33 120q16 58 31.5 103.5t29.5 73t24 27.5q13 0 21 -5.5t11.5 -14.5t4.5 -19.5t1 -20.5q0 -17 -6 -59 t-16.5 -99.5t-25.5 -125.5t-33 -137t-39 -133t-42.5 -113.5t-44.5 -79t-45 -29.5q-30 0 -58 16.5t-52.5 43.5t-46 61t-39 68t-31.5 65.5t-23 54.5q-13 30 -30 73l-35 90l-37 93l-33 85l-23 62q-9 24 -9 26v65z" />
<glyph unicode="W" horiz-adv-x="976" d="M0 669q0 18 7 33t29 15q17 0 34.5 -37t36 -94t38 -125.5t42 -132.5t47 -114.5t52.5 -70.5q26 11 42 39.5t26 68t15.5 85.5t10.5 92.5t10.5 90t16 77t27 53.5t42.5 20q15 0 27.5 -3t20.5 -23l15 -42l23 -65l29 -78l33 -81l34 -77q17 -36 32 -61q2 -5 11.5 -14t13.5 -11 l47 48q19 19 29 56.5t15 86t7 104.5l3 112q1 56 4 108t11 91.5t22.5 63t39.5 23.5q1 0 3 -0.5t4 -0.5q3 -1 5 -1l5 -5l8 -7q4 -3 7 -6.5t4 -5.5q0 -8 0.5 -28t0.5 -43t0.5 -43.5t0.5 -28.5q0 -22 -0.5 -61t-3 -88.5t-8 -105.5t-15.5 -111t-25 -105.5t-36.5 -89t-50 -61.5 t-66.5 -23t-64 25t-45 62.5t-32.5 81.5t-27.5 81.5t-30 62.5t-39 25q-2 0 -6 -1t-6 -1q-1 -5 -7 -39t-16 -81.5t-24.5 -102t-32.5 -100t-40 -76t-47 -30.5q-52 0 -95.5 39.5t-77.5 102t-59.5 139.5t-42.5 151t-25.5 137.5t-8.5 99.5z" />
<glyph unicode="X" horiz-adv-x="715" d="M164 117q0 46 8 90.5t17 89t17 88.5t8 91v24q-5 5 -21.5 20t-37.5 36t-44.5 47t-43 53.5t-32.5 54.5t-13 51q0 5 0.5 13.5t2.5 16t7.5 13t14.5 5.5q26 0 45.5 -14.5t35 -36t29 -46.5t28.5 -46.5t33.5 -36t43.5 -14.5q26 0 47 16.5t40.5 41.5t40 54.5t45 54.5t55.5 41.5 t72 16.5q0 -30 -13.5 -54.5t-34 -46t-44 -42.5t-44 -44t-34 -49.5t-13.5 -58.5q0 -16 22 -44t55 -60.5t72 -66.5l73 -63l59 -49l30 -24q0 -2 1 -11.5t1 -13.5q0 -18 -8 -34t-30 -16q-2 0 -5.5 1.5t-5.5 1.5l-24 22l-38 34l-44 39l-45 40l-38 33l-26 22q-10 9 -25 21l-31 24 q-15 12 -26.5 20t-12.5 7l-24 -25q-9 -9 -13 -42.5t-7 -78.5l-7 -95q-3 -50 -10.5 -92.5t-21.5 -70t-38 -27.5q-21 0 -31.5 13.5t-14 32.5t-3 39t0.5 34z" />
<glyph unicode="Y" horiz-adv-x="715" d="M381 620q-43 9 -86.5 40t-83 75.5t-74.5 99t-60.5 110t-40 108t-14.5 93.5q0 5 0.5 13t2.5 15t7.5 12t14.5 5q27 0 47.5 -19.5t37 -51.5t30.5 -73l30 -84q15 -42 31.5 -83t37 -73t47 -51.5t61.5 -19.5q2 0 6 1t6 1q31 28 56 74t46.5 99.5t41.5 110t41.5 105.5t45.5 85.5 t55 50.5l47 -49q9 -8 3 -35.5t-21 -68t-37 -90.5l-47 -102l-48 -106q-25 -53 -44.5 -99.5t-31.5 -83.5t-12 -58q0 -66 19 -128.5t41.5 -124t41.5 -123.5t19 -126v-23q0 -14 -4 -26t-14.5 -18.5t-30.5 -1.5q-41 60 -72.5 136t-53.5 158.5t-32.5 166.5t-8.5 159z" />
<glyph unicode="Z" horiz-adv-x="976" d="M164 57q0 75 28.5 143.5t71.5 132.5t93 125t93 121.5t71.5 121t28.5 123.5q0 1 -0.5 2.5t-0.5 3.5q-1 2 -1 4q-10 10 -30 17t-43.5 12.5t-48 9t-45.5 4.5l-34 3l-13 1q-52 0 -89 -8t-69 -17l-63 -17q-30 -8 -68 -8q-25 0 -35 19.5t-10 42.5t22.5 37t57 20.5t74.5 8t74 1 t57 -2.5t24 -2q11 0 38 -0.5t57.5 -1t57.5 -1t38 -0.5l50 -12q29 -7 55.5 -18t45 -28.5t18.5 -43.5q0 -61 -24.5 -119.5t-62.5 -115.5t-84 -114t-88.5 -115t-76 -118.5t-47.5 -124.5h48q75 0 149 4l149 10l148 9q74 5 149 5v-76q-44 -3 -100.5 -11.5t-119.5 -19.5l-130 -22 q-68 -11 -134 -20.5t-128 -15.5t-114 -6q-14 0 -21.5 5.5t-11.5 14t-5 18.5t-1 19z" />
<glyph unicode="[" horiz-adv-x="620" d="M22 600q0 7 -0.5 17.5t1 20.5t7 18t17.5 11q115 36 238.5 60t244.5 24v-21q0 -12 -2.5 -24.5t-8.5 -23.5t-19 -15l-31 -6l-46 -9l-55 -9l-54 -10l-47 -8q-20 -3 -29 -5q-6 -2 -23 -4.5t-36.5 -7.5t-36.5 -14t-23 -23q13 -55 19 -112t10 -114t7.5 -114t11.5 -112h71 q37 0 73 3.5t72 8t72.5 8.5t72.5 4q11 0 21 -1t19 -6t16 -14.5t11 -26.5q1 -3 -1.5 -10.5t-6 -15t-8 -14t-8.5 -7.5q-15 -2 -46.5 -5.5t-71 -8.5t-83.5 -10l-84 -10q-40 -5 -72 -8.5t-47 -5.5h-27q-29 0 -49 38t-33 97.5t-20.5 131t-11 138t-4 119.5t-0.5 76z" />
<glyph unicode="\" horiz-adv-x="578" d="M47 837q-2 4 -6 13l-9 20l-8 20q-4 9 -6 12q0 4 4.5 11t10 13.5t11 11.5t9.5 6q10 2 34.5 -23.5t57.5 -69t72 -101.5l81 -120l80 -127l73 -120l59 -101q25 -44 36 -68q6 -13 3 -22.5t-10.5 -17t-17 -12.5t-18.5 -9q-26 -12 -56.5 4t-63 52t-66 88t-66.5 111t-63 122 l-58 120l-48 107z" />
<glyph unicode="]" horiz-adv-x="667" d="M257 67q0 2 0.5 7t1.5 10t3 11l238 72q0 7 1 14q1 6 1.5 12.5t0.5 11.5q0 4 -1 13l-1 18q0 9 -0.5 16.5t-0.5 9.5q-2 50 -9 106.5t-10.5 113t-0.5 110t20 98.5q0 3 -0.5 9t-0.5 12.5t-0.5 12.5t-0.5 9q-125 0 -247.5 -10.5t-245.5 -10.5q0 39 28 63.5t71.5 38.5t97 19 t105 5.5t94.5 -1t66 -1.5q11 0 28.5 -0.5t34 -0.5t28.5 -0.5t13 -0.5q7 -63 11.5 -111.5t7 -91.5t3 -83t0.5 -86q0 -40 4.5 -78.5t10 -77t10 -76.5t4.5 -77q0 -27 -19 -49.5t-49 -39.5t-66.5 -29.5t-71.5 -20.5t-64 -12t-43 -4q-34 0 -43 19.5t-9 49.5z" />
<glyph unicode="^" horiz-adv-x="476" d="M212 1091q22 -12 45.5 -35.5t47.5 -53t47 -62.5l44 -62l39 -56q18 -25 31 -39q-1 -2 -7 -9l-14 -14l-15 -15q-8 -7 -12 -10q-3 -1 -5 -1q-3 -1 -6 -1q-5 0 -8 1q-3 0 -5 1q-33 22 -51 52l-33 58q-15 27 -35 46t-57 19q-24 -57 -37 -92.5t-22 -55.5t-16.5 -28t-20.5 -9.5 t-34.5 1t-57.5 2.5q0 21 7.5 53t20 69t30 76t37.5 72t42.5 58t44.5 35z" />
<glyph unicode="_" d="M0 95q15 1 46.5 3.5t71 4.5t83.5 5t84 5l72 3l47 3h29q17 0 31 -8t14 -28q0 -10 -8.5 -20.5t-20.5 -19t-24.5 -14t-20.5 -5.5h-404v71z" />
<glyph unicode="`" d="M115 841q4 22 14 28.5t23 2t28 -18.5t30.5 -32t29.5 -38l26 -37q1 -2 5 -7.5t7 -8.5q12 -14 11.5 -29t-8 -25t-21 -11.5t-26.5 12.5z" />
<glyph unicode="a" horiz-adv-x="690" d="M500 143l-73 -52q-30 -22 -59 -37.5t-62 -23.5t-80 -8q-104 0 -154 55t-50 164q0 42 11.5 88t33 91t51.5 85.5t67.5 71.5t80.5 49.5t91 18.5q80 -8 125.5 -40t69 -81t32 -110t13.5 -125.5t13 -128.5t32 -119q-14 -37 -27 -52t-28.5 -4.5t-36 49t-50.5 109.5zM117 239 q0 -63 24 -92.5t85 -29.5q45 0 86.5 16t73 44.5t50.5 68.5t19 88q0 20 1 56.5t-4.5 72t-21 61.5t-47.5 26q-57 0 -106 -29.5t-84.5 -75t-55.5 -100.5t-20 -106z" />
<glyph unicode="b" horiz-adv-x="690" d="M190 48l-64 187q-31 87 -54 171t-36.5 170.5t-13.5 185.5q0 8 0.5 28.5t0.5 43t0.5 43t0.5 28.5q11 22 35.5 41t50.5 19q0 -83 2 -175.5t14 -185t38 -180.5t74 -162q1 27 2 59t6 64.5t16 62.5t33 53t57 36.5t88 12.5q48 0 86.5 -18t64.5 -48.5t40 -71t14 -85.5 q0 -61 -30.5 -120t-79.5 -105.5t-110.5 -75t-124.5 -28.5q-32 0 -62 11.5t-48 38.5zM453 453q-22 -12 -46.5 -28.5t-45 -51.5t-35 -95t-17.5 -159q2 0 11.5 -1t12.5 -1q30 0 68.5 18.5t74.5 46.5t63 62t32 65q3 19 -8 43.5t-29 47t-40 38t-41 15.5z" />
<glyph unicode="c" horiz-adv-x="524" d="M0 334q0 47 20.5 98t55 93t79.5 69.5t95 27.5q26 0 51.5 -9t46 -25.5t33 -40t12.5 -51.5q-20 0 -36 4.5t-31.5 10.5t-30.5 10.5t-33 4.5q-45 0 -73.5 -23t-45 -57.5t-22.5 -74t-6 -73.5q0 -6 1 -21l1 -33l1 -32q0 -16 1 -22q12 -27 23.5 -41.5t25 -21.5t29 -8.5 t36.5 -1.5q29 0 51 8.5t40.5 21t35.5 27.5t35 27.5t40 21t50 8.5q0 -54 -19.5 -96.5t-54.5 -72.5t-82.5 -46t-102.5 -16q-53 0 -94.5 35.5t-71 87.5t-45 109.5t-15.5 101.5z" />
<glyph unicode="d" horiz-adv-x="620" d="M-2 131q0 65 32 115t80 87t103.5 63t103.5 43.5t80 28t32 17.5q0 38 -4 75.5t-8.5 75t-8.5 75t-4 74.5v72q46 16 65.5 -4t6.5 -68l12 -77l17 -118l20 -138l20 -138l16 -118q7 -52 10 -77q1 -6 2 -22t2 -34t1.5 -34t0.5 -22q-42 0 -57.5 3t-19 13t-3.5 29t-11 52 q-41 -32 -78 -53t-73.5 -33.5t-74 -17.5t-79.5 -5q-35 0 -68 6t-58.5 21.5t-41 42t-15.5 66.5zM95 155q0 -18 7.5 -29.5t19.5 -19t26 -10.5t28 -3q39 0 84 15t83 42.5t63 65t25 82.5q0 34 -12 47.5t-47 13.5t-82.5 -16.5t-91 -44.5t-73.5 -65t-30 -78z" />
<glyph unicode="e" horiz-adv-x="620" d="M22 309q0 60 14.5 120t46.5 108t82.5 78t122.5 30q41 0 72 -15t52 -39.5t32 -57.5t11 -69q0 -56 -26.5 -109.5t-70.5 -94t-100.5 -61t-115.5 -9.5q1 -32 21.5 -51.5t49.5 -29.5t60.5 -13t55.5 -3q25 0 47.5 4.5t44.5 10t45 10t48 4.5q10 0 20.5 -1t19 -5t14 -12t5.5 -21 q0 -21 -15.5 -35t-39 -23.5t-52.5 -15t-56.5 -8t-50 -3t-33.5 -0.5q-72 0 -128.5 22.5t-95.5 63t-59.5 98t-20.5 127.5zM140 381q0 -39 10.5 -56.5t51.5 -17.5q29 0 57 10.5t50.5 29.5t36 44.5t13.5 55.5q0 16 -3 34t-11.5 33t-22.5 24.5t-36 9.5q-34 0 -61 -15t-46 -39 t-29 -53.5t-10 -59.5z" />
<glyph unicode="f" horiz-adv-x="785" d="M474 -103q-23 43 -51 108l-59 135q-30 71 -62.5 139t-65.5 118q-14 10 -37 12t-48.5 1.5t-50.5 1t-43.5 11.5t-27.5 31.5t-3 61.5h186q6 62 19.5 123t36 116.5t55 103.5t78 82.5t104.5 54.5t135 20q27 0 53.5 -13t47.5 -34t34 -47.5t13 -53.5q-21 0 -38 8.5t-32.5 19 t-33 19.5t-39.5 9q-67 0 -124.5 -26.5t-100 -71t-67 -103.5t-24.5 -124q0 -4 0.5 -16t0.5 -25.5t0.5 -25.5t0.5 -16q41 -14 92 -20.5t103 -8t100.5 0.5t85.5 5q4 -3 12.5 -12t10.5 -13q0 -3 1 -5l2 -6q0 -24 -24.5 -37t-62.5 -19.5t-84 -8.5t-88.5 -3.5t-76.5 -4.5t-48 -11 q15 -66 52 -129l76 -124q39 -62 69 -125.5t30 -130.5q-4 0 -20 -0.5t-34 2t-34 9.5t-19 22z" />
<glyph unicode="g" horiz-adv-x="643" d="M309 -591q62 0 111 23t83 62t52 89.5t18 105.5q0 28 -2.5 73.5t-8 98.5t-16 109t-26.5 105.5t-38.5 86.5t-52.5 52q-29 -22 -57 -40t-58 -30.5t-62 -19.5t-69 -7q-47 0 -81 9t-57 30t-34 55.5t-11 86.5q0 37 18 72t47 65.5t66.5 56t77 44t77.5 28.5t69 10q28 0 47 -1.5 t32.5 -8.5t23 -22t18.5 -41q25 -87 58.5 -187t63.5 -205.5t50.5 -212.5t20.5 -207q0 -89 -25 -150.5t-65.5 -101t-92 -60.5t-104 -27.5t-101.5 -3t-84.5 13t-53.5 21.5t-9 20.5t50.5 12t124.5 -4.5zM324 481q-82 -18 -132.5 -49.5t-75.5 -67.5t-27 -72t13.5 -62t45 -38.5 t67 -1t80.5 50.5t86 116q0 19 0.5 41t-4 40.5t-16.5 30.5t-37 12z" />
<glyph unicode="h" horiz-adv-x="542" d="M54 722q0 12 3 30.5t10 35t18.5 28.5t28.5 12q2 0 6 -1t6 -1q19 -69 22 -137t-2.5 -132t-16.5 -123t-18.5 -109t-9 -90.5t11.5 -67.5q-2 17 -2.5 42t4.5 52t16.5 53.5t34 47.5t57.5 33.5t87 12.5q54 0 93.5 -19t65.5 -51.5t38.5 -76.5t12.5 -94q0 -24 -0.5 -53.5 t-8 -54.5t-25.5 -42t-54 -17q0 18 2.5 48.5t3 65t-2.5 70t-15 64t-34 46.5t-59 18q-14 0 -33.5 -1.5t-39.5 -10.5t-38.5 -27t-30 -50t-13 -80.5t11.5 -118.5q-7 -20 -19 -23t-29 -3q-36 0 -58.5 25t-35 67t-16.5 97.5t-3 116.5t6 123.5t11 118.5l10 102q4 46 4 74z" />
<glyph unicode="i" horiz-adv-x="262" d="M69 417q0 6 0.5 21t0.5 32l2 33v21q12 18 31.5 29t39.5 18q4 -60 19.5 -127.5t33 -136t31.5 -135t14 -124.5q0 -50 -51 -50q-31 0 -52 25.5t-34 65t-20.5 88t-10.5 95t-3.5 85.5t-0.5 60zM85 833q21 -9 35.5 -29t12.5 -36t-25 -22t-78 13q0 30 11.5 52t43.5 22z" />
<glyph unicode="j" horiz-adv-x="334" d="M-241 -350q32 0 59 -16l56 -36q29 -20 63.5 -36.5t80.5 -16.5q45 0 88.5 11.5t78 35.5t55.5 62t21 91q0 86 -14 179.5t-35.5 186t-46.5 180.5l-46 162q0 2 -1 6t-1 6q0 22 15.5 30t33.5 8q4 0 13 -1t11 -1q35 -86 65.5 -177t53.5 -184t36.5 -187t13.5 -186 q0 -73 -25 -131.5t-69.5 -100t-106 -63.5t-134.5 -22q-47 0 -94.5 10.5t-85.5 34t-61.5 61.5t-23.5 94zM20 774v14q0 10 2.5 20.5t8 18t16.5 7.5q19 0 29 -4.5t14.5 -12t5.5 -18t1 -23.5q0 -9 -1 -20.5t-4.5 -21t-11.5 -16t-21 -6.5t-21 6t-12 15t-5 20t-1 21z" />
<glyph unicode="k" horiz-adv-x="643" d="M238 22q-18 -15 -37.5 15t-39.5 90.5t-39.5 145t-37 179t-33.5 191.5l-29 183q0 15 -0.5 31t3.5 30t14.5 25t32.5 17q3 1 10 -1.5t14.5 -6.5t14 -8.5t8.5 -7.5q-14 -208 48 -405q3 3 17.5 22.5t36.5 46t50.5 56.5t59.5 55.5t62.5 42.5t59.5 17q17 0 33 -8t16 -30 q0 -2 -1 -6t-1 -6l-54 -48q-36 -32 -76 -72t-76.5 -83.5t-55.5 -82.5q-3 -6 -2 -11t2 -12l38 -13l59 -20l69 -25l69 -25l59 -21l39 -15q16 -6 26 -8.5t15.5 -6.5t7.5 -10.5t2 -19.5q0 -32 -15.5 -42.5t-44.5 -10.5q-85 6 -167.5 36.5t-166.5 74.5q-3 -22 3 -49.5t15 -55.5 l17 -54q8 -27 10 -48t-5 -33.5t-30 -12.5z" />
<glyph unicode="l" horiz-adv-x="260" d="M49 629q0 32 -4.5 62.5t-2 54.5t17.5 38.5t55 14.5q12 -26 23.5 -78t22.5 -120t21 -147t18.5 -159.5t14.5 -157.5t9 -140q-36 -25 -58.5 -3.5t-36.5 72t-22 123t-15.5 151t-17 154.5t-25.5 135z" />
<glyph unicode="m" horiz-adv-x="976" d="M-2 467q0 27 9.5 43t40.5 16q3 0 12.5 -1t11.5 -1q8 -34 16.5 -74.5t19.5 -81.5t25 -81t34 -73q20 22 28.5 50.5t12.5 58.5l9 57q4 27 16.5 46.5t36 28t66.5 0.5q46 0 74 -17.5t48.5 -43.5t40 -55.5t49.5 -52.5q6 14 16.5 35.5t25 45.5t32 48t36.5 43.5t39 32t39 12.5 q45 0 78.5 -28t57.5 -71t39.5 -95.5t24.5 -101.5t12.5 -89.5t3.5 -58.5q0 -14 -6.5 -22t-16.5 -12t-21.5 -5t-21.5 -1q-3 0 -7.5 0.5t-9.5 1.5t-12 3l-72 333q0 3 -9 12.5t-14 11.5q-3 0 -5 1q-2 0 -3.5 0.5t-2.5 0.5q-23 0 -43.5 -18.5t-38.5 -47.5t-33.5 -64.5 t-27.5 -70.5l-22 -64q-9 -30 -15 -46q-4 -2 -17.5 -3.5t-17.5 -1.5q-31 0 -48 21.5t-27.5 54t-17.5 70.5t-18 70.5t-29 54t-51 21.5q-13 0 -24 -24.5t-20 -61.5t-16.5 -80t-12.5 -80t-7.5 -62.5t-2.5 -26.5q-2 -3 -8.5 -7t-14 -8t-14.5 -6.5t-11 -2.5q-31 0 -59.5 28.5 t-52.5 73.5t-43.5 99.5t-33 106.5t-20.5 94.5t-7 64.5z" />
<glyph unicode="n" horiz-adv-x="643" d="M22 374q0 29 14.5 42t46.5 13h12q3 -18 7.5 -41.5t13 -47.5t21 -45t30.5 -33q1 39 19.5 75t45.5 64.5t60 48t65 26.5h24q54 0 91.5 -24t62.5 -62.5t38.5 -87.5t20.5 -99.5t8.5 -97.5t1.5 -81h-81q-6 67 -16 128q-4 25 -9.5 52t-12 51t-14.5 44.5t-18 34.5q-4 5 -12 13 l-15 15q-7 8 -13.5 13.5t-8.5 5.5q-33 9 -57.5 -12.5t-43 -58.5t-30.5 -83.5t-19.5 -89t-11 -74.5t-4.5 -39q-28 -19 -52.5 -11t-46 34.5t-39 66.5t-32 85t-26.5 91z" />
<glyph unicode="o" d="M22 226q0 69 32.5 128t85 102t118.5 67.5t134 24.5q38 0 67.5 -24.5t49.5 -59.5t30.5 -74t10.5 -68q0 -62 -30 -120.5t-78 -103.5t-108 -72.5t-120 -27.5q-53 0 -89.5 18t-59 49t-33 72.5t-10.5 88.5zM117 214q0 -28 5 -50t17.5 -37.5t33.5 -23.5t53 -8q41 0 82 22.5 t73.5 57.5t53 77t20.5 82q0 18 -3.5 39t-11.5 39t-22.5 30.5t-36.5 12.5q-20 0 -47 -13.5t-56.5 -34.5t-58 -48t-51.5 -53.5t-37 -51t-14 -40.5z" />
<glyph unicode="p" horiz-adv-x="524" d="M22 410q0 108 50 160t154 52q42 0 87 -7.5t82.5 -27t61.5 -54t24 -88.5q0 -61 -26 -113.5t-65.5 -98.5t-86.5 -85l-89 -76q-2 -4 -3.5 -18t-1.5 -18q0 -37 21.5 -74t47 -75.5t47 -79.5t21.5 -86q0 -26 -11.5 -31.5t-46.5 -5.5q-22 9 -44 42t-43.5 81t-42 107t-39 121 t-34.5 123l-29 111l-21 89q-9 37 -13 52zM117 400q0 -17 2 -48.5t9.5 -62.5t22 -54t39.5 -23q35 0 69.5 23.5t62 59t44.5 76t17 74.5q0 27 -13 43.5t-33.5 25.5t-44 12t-44.5 3q-63 0 -97 -34t-34 -95z" />
<glyph unicode="q" horiz-adv-x="612" d="M419 145q-23 0 -45.5 -8t-44.5 -18t-45 -18t-48 -8q-49 0 -88 16.5t-66.5 45t-42.5 68t-15 86.5q0 61 23.5 102.5t62 67t87.5 36.5t100 11q56 -3 102 -38t82 -90.5t62.5 -125t43.5 -141.5t25 -140t7 -120.5t-9.5 -83.5t-25.5 -28q-29 4 -44.5 26t-23.5 54t-10 70.5t-3 77 t-3.5 73t-10.5 57.5t-24.5 32t-45.5 -4zM119 298q0 -19 9.5 -38t25 -34.5t34.5 -25.5t38 -10t49 8.5t58.5 24.5t49.5 37.5t21 48.5q0 38 -4 65.5t-15.5 45.5t-32.5 26.5t-55 8.5q-28 0 -59 -13t-57.5 -35t-44 -50.5t-17.5 -58.5z" />
<glyph unicode="r" horiz-adv-x="568" d="M22 467q0 10 1 20.5t4.5 19t11 14t20.5 5.5q11 0 25 -17.5t28.5 -43.5t28.5 -57l24 -57q11 -27 17.5 -45.5t7.5 -19.5l32 84q18 46 44 85.5t62.5 66t88.5 26.5q26 0 50 -8.5t42.5 -24.5t29.5 -38.5t11 -50.5q0 -25 -19.5 -35t-43.5 -10h-11l-48 48q-2 0 -4 1 q-2 0 -3.5 0.5t-3.5 0.5q-39 0 -61 -21.5t-33 -53t-13.5 -67t-2.5 -63.5q0 -23 4.5 -45.5t10 -44.5t10 -44.5t4.5 -46.5q0 -47 -50 -47q-28 0 -58 29.5t-59.5 75t-56 100.5t-46.5 107t-32 94.5t-12 62.5z" />
<glyph unicode="s" horiz-adv-x="548" d="M236 50q17 12 42 31.5t50.5 42t48 47t35.5 47t13 42.5t-21 33q-35 0 -77 -2.5t-84.5 -2t-82 7t-70.5 24.5t-49.5 50.5t-18.5 84.5q0 60 23 108t60.5 85.5t85 65.5t95.5 48q29 -8 53 -28t42 -44q-8 -24 -30.5 -37.5t-51.5 -23.5l-62 -21q-32 -11 -58.5 -29.5t-44 -48 t-17.5 -77.5q0 -35 17.5 -52t46.5 -23t65.5 -4t75 5t75 3.5t65.5 -8.5t46.5 -30.5t17.5 -62.5q0 -18 -12 -45.5t-31.5 -59t-45.5 -63t-54.5 -56.5t-56.5 -41t-53 -16q-23 0 -30 16.5t-7 33.5z" />
<glyph unicode="t" horiz-adv-x="715" d="M-2 560q0 3 1 6q0 2 1 5q4 6 13 15t11 9h224q0 12 -3.5 38.5t-6 59t-1.5 67t9.5 63t26.5 47t51 18.5q0 -112 16 -180t42 -104.5t59.5 -48t68 -9.5t68 11t59.5 12t42 -5t16 -40q0 -23 -11 -33t-41 -15q-9 -2 -29.5 -4.5t-46 -5t-54 -5t-54.5 -4.5t-47 -3t-31 -1 q0 -5 -1 -18.5t-1 -17.5q0 -49 15.5 -95t34 -91.5t34 -91.5t15.5 -94q0 -9 -1.5 -18.5t-6.5 -17t-14.5 -11t-26.5 1.5q-42 11 -62.5 48t-30.5 87.5t-13.5 107t-10.5 106t-23 84.5t-50 43l-215 48q-4 0 -13 9.5t-11 14.5q-1 2 -1 5q-1 3 -1 7z" />
<glyph unicode="u" d="M22 453q0 7 0.5 24t0.5 36t0.5 35.5t0.5 22.5q8 14 18.5 26.5t22.5 17.5t25.5 1.5t28.5 -21.5v-9v-15q-1 -5 -4.5 -26t-8 -45t-8 -45t-3.5 -26q0 -21 4 -52.5t12.5 -66t21.5 -69t30.5 -62t39.5 -45t50 -17.5q36 0 63 18.5t47 48.5t33 68t21 76.5t11 74t3 61.5q0 27 -4 51 t-9.5 47.5t-9.5 46t-4 46.5q0 21 15.5 29.5t33.5 8.5q24 0 38.5 -13.5t22.5 -35t11 -48.5t3 -53.5t-1 -50.5t-1 -39q0 -37 -6 -85t-19.5 -98.5t-34 -99.5t-50 -87t-68 -61.5t-86.5 -23.5q-50 0 -87.5 24t-64 63.5t-44 89t-27 100t-13.5 97.5t-4 81z" />
<glyph unicode="v" horiz-adv-x="595" d="M16 579q7 27 18 24.5t26.5 -25.5t34.5 -62l42 -84q22 -45 48 -92t54.5 -85.5t60 -64.5t65.5 -30l88 460q3 19 18 22t29 3q50 0 50 -47q0 -25 -4.5 -78t-14.5 -117t-24.5 -131.5t-34.5 -123t-46 -91t-57 -35.5q-46 0 -90.5 30.5t-83.5 80t-72 111t-57 123t-37 118 t-13 94.5z" />
<glyph unicode="w" horiz-adv-x="834" d="M-2 476q0 18 8 34t30 16q1 0 3 -0.5t4 -0.5q3 -1 5 -1q3 -2 12.5 -11t11.5 -13q4 -7 15 -29l25 -51l31 -63l31 -63l26 -51q10 -22 14 -29q2 -3 11 -12.5t14 -11.5q9 16 18 47t18 68l20 77q10 39 22.5 71t28 52.5t35.5 20.5q29 0 55 -22.5t50 -58t45 -79.5l41 -86l37 -79 q18 -37 34 -58q14 5 23 22.5t14 37t7 37t3 22.5q1 12 3.5 38.5t4.5 59.5l6 69l4 69q3 33 4.5 59t2.5 38q2 0 10.5 1.5t12.5 1.5q15 0 27.5 -3.5t19.5 -23.5q0 -8 0.5 -28t0.5 -42l2 -43v-29q0 -18 0.5 -55t-1 -82.5t-7 -93t-17.5 -87t-32 -64.5t-50 -25q-34 0 -64 17 t-56.5 44.5t-49.5 61.5t-42.5 69t-35.5 66.5t-29 53.5q-8 -19 -16 -49l-16 -65q-9 -35 -20 -70t-25 -63.5t-32 -46.5t-42 -18q-11 0 -20 -0.5t-16.5 1.5t-14 7.5t-12.5 17.5l-190 405q0 2 -1 10t-1 13z" />
<glyph unicode="x" horiz-adv-x="548" d="M0 524q-1 2 -1 4q-1 2 -1 8q0 21 17.5 29t34.5 8q2 0 5 -0.5t7 -0.5q4 -1 10 -1l156 -131q40 58 65 90t39.5 47t21.5 18t11 3h17q9 0 19 -2t17.5 -7.5t10.5 -17.5q-19 -19 -35.5 -38t-31 -40.5t-27.5 -48t-26 -60.5q21 -15 52.5 -43.5t64.5 -62t64 -69t51.5 -66.5t27 -53 t-8.5 -29q-16 -20 -21.5 -29.5t-11.5 -6t-16 21t-36 50.5t-71.5 83t-121.5 119l-9 -275q0 -1 -4 -4l-9 -7q-5 -4 -11 -7.5t-10 -5.5h-13h-12q-5 4 -14.5 13t-9.5 11v310z" />
<glyph unicode="y" horiz-adv-x="548" d="M3 575q0 10 1 20.5t4.5 19.5t11 14.5t21.5 5.5q1 0 3 -0.5t4 -0.5q3 -1 5 -1q22 -28 37.5 -73t29.5 -96t31 -102.5t43.5 -92.5t65.5 -65.5t97 -21.5q25 0 33 28t8.5 71.5t-2.5 95.5t0 99t17 83t48 48q15 -29 24 -90.5t13.5 -142.5t4.5 -174.5t-4.5 -186.5t-13 -178.5 t-20 -150t-26 -101.5t-31.5 -32q-24 22 -36.5 57.5t-17.5 79t-4 92t4 97.5t6.5 95.5t3.5 85.5q-39 -4 -81 12t-82 48.5t-76 79.5t-63 105.5t-43 127t-16 144.5z" />
<glyph unicode="z" horiz-adv-x="643" d="M404 548q3 2 4.5 6t1.5 6q0 26 -30.5 34t-76 7.5t-98.5 -5t-98.5 -4t-76 11t-30.5 39.5q0 19 3 28.5t8.5 13.5t13.5 4.5t18 0.5h29q14 -1 44 -2l67 -4q38 -2 79.5 -4.5t78.5 -4.5l67 -5l45 -3q20 -12 34 -22t22.5 -20t12.5 -22t4 -30q0 -37 -15.5 -73.5t-39.5 -72.5 t-55 -72l-59 -71q-29 -36 -54.5 -71.5t-40.5 -69.5h286q32 0 41 -12t9 -34q0 -16 -3.5 -29t-23.5 -20q-53 -5 -107 -14l-110 -17q-54 -9 -109 -15.5t-109 -6.5q0 79 25 153t64 143t87 133z" />
<glyph unicode="{" horiz-adv-x="524" d="M162 294q0 21 11 40.5t27 37.5l32 37q17 18 28 37l-61 78q-31 39 -55.5 80.5t-40 86.5t-15.5 96q0 39 17 76.5t45.5 66.5t66.5 46.5t79 17.5q13 0 29 -2.5t31 -8t27.5 -14.5t18.5 -22q-26 -16 -62.5 -28t-71 -28.5t-58.5 -41.5t-24 -67q0 -34 12.5 -63t31.5 -55 t41.5 -50.5t41.5 -50.5t31.5 -55t12.5 -64q0 -22 -8 -40.5t-17 -36t-17 -35t-8 -38.5q0 -4 -2.5 -35t-3 -75.5t2 -95t12.5 -93.5t29.5 -71.5t52.5 -28.5q22 0 39 8.5t32 18.5t30 18.5t35 8.5q21 0 29 -16t8 -36q0 -33 -19.5 -55.5t-48 -37t-61 -20.5t-58.5 -6 q-49 0 -84.5 29t-60 75.5t-40 104.5t-23.5 115t-11 108t-3 84z" />
<glyph unicode="|" horiz-adv-x="309" d="M63 633q0 32 -4.5 62.5t-2 54.5t18 38.5t54.5 14.5q22 -20 41.5 -68.5t36 -116t29.5 -148t21.5 -163.5t12.5 -163.5t3 -146.5q-27 -18 -47.5 -10t-36.5 35.5t-28.5 71t-22.5 97t-18 112.5t-17 118t-18.5 113.5t-21.5 98.5z" />
<glyph unicode="}" horiz-adv-x="381" d="M44 -147q0 29 10.5 42t27 18.5t35 7.5t35 9t27 22.5t10.5 48.5q0 23 -11.5 47t-25 49.5t-25 52.5t-11.5 56v5q0 3 1 7q0 4 1 9q2 4 13 22l24 37l23 38q11 17 11 22q0 23 -15 48t-33.5 52t-33.5 56.5t-15 62.5t12 60.5t26 53.5t26 52t12 55q0 28 -20.5 43t-47.5 22t-54 8 t-40 1q0 25 8 41.5t22.5 26t33 13t39.5 3.5q25 0 56 -9.5t58 -27t45.5 -42.5t18.5 -55q0 -1 -0.5 -2.5t-0.5 -3.5q-1 -3 -1 -5q-2 -6 -9 -23l-18 -38l-21 -47l-21 -47l-18 -39q-7 -16 -9 -21v-12q0 -33 12.5 -55t31.5 -38t40.5 -28t40.5 -24.5t31.5 -27.5t12.5 -37 q0 -23 -9 -39t-23 -28t-30 -23t-30 -23.5t-23 -29t-9 -40.5q0 -26 8.5 -47.5t18 -43t18 -44t8.5 -50.5q0 -33 -7.5 -68t-25 -63.5t-45 -46.5t-67.5 -18q-17 0 -34.5 1t-31.5 6t-23 16t-9 32z" />
<glyph unicode="~" horiz-adv-x="690" d="M38 571q0 37 6.5 77.5t24.5 74.5t49.5 56t81.5 22q36 0 62 -16t46.5 -40t38.5 -52.5t37.5 -52.5t43.5 -40t57 -16q37 0 54.5 11.5t23 29.5t4 40.5t-2 44t4.5 39t24 27.5h12h11q3 -1 10 -4l15 -7l14 -7q7 -3 10 -5q0 -4 0.5 -12.5t0.5 -18t0.5 -18t0.5 -11.5 q0 -97 -51.5 -152t-146.5 -55q-37 0 -63.5 14.5t-47 36.5t-37.5 48t-34.5 48t-38 36.5t-48.5 14.5q-35 0 -50.5 -13.5t-21 -34.5t-5.5 -47t-3 -50t-13.5 -43.5t-36.5 -28.5l-25 23q-1 3 -2 13.5t-2 22.5l-2 26q-1 12 -1 19z" />
<glyph unicode="&#xa1;" horiz-adv-x="209" d="M130 722q14 0 28 8t18 20t-7 26.5t-48 26.5q-30 -4 -43 -13.5t-14.5 -20.5t5.5 -21.5t18 -18.5t23 -10.5t20 3.5zM46 45q30 -25 47 -11t25 53.5t9.5 95.5t2 114t2 110t9.5 83q0 15 -2 26t-8 18.5t-18 10.5t-32 3q-3 0 -6.5 -2.5t-7 -17.5t-6.5 -46t-6 -87t-5.5 -141 t-3.5 -209z" />
<glyph unicode="&#xa2;" horiz-adv-x="524" d="M0 334q0 47 20.5 98t55 93t79.5 69.5t95 27.5q26 0 51.5 -9t46 -25.5t33 -40t12.5 -51.5q-20 0 -36 4.5t-31.5 10.5t-30.5 10.5t-33 4.5q-45 0 -73.5 -23t-45 -57.5t-22.5 -74t-6 -73.5q0 -6 1 -21l1 -33l1 -32q0 -16 1 -22q12 -27 23.5 -41.5t25 -21.5t29 -8.5 t36.5 -1.5q29 0 51 8.5t40.5 21t35.5 27.5t35 27.5t40 21t50 8.5q0 -54 -19.5 -96.5t-54.5 -72.5t-82.5 -46t-102.5 -16q-53 0 -94.5 35.5t-71 87.5t-45 109.5t-15.5 101.5zM131 716q19 42 36 35.5t32.5 -47.5t30.5 -109t29 -147t27 -162t26.5 -155t26.5 -125.5t27 -73.5 q-2 0 -17.5 -2t-32.5 -5t-31.5 -5t-15.5 -2q-24 79 -48.5 182t-44.5 212t-32.5 214.5t-12.5 189.5z" />
<glyph unicode="&#xa3;" horiz-adv-x="690" d="M-90 370q0 3 1 12t1 11q17 0 43.5 2t58.5 4q-4 45 -6.5 97.5t-4 100t-2.5 83.5t-1 49q0 52 31 74.5t79.5 24.5t107.5 -13t115 -38.5t102.5 -51t69.5 -51.5t16 -40t-58 -16q1 0 -27 9l-72 22l-93 29l-94 28l-71 22q-29 9 -28 9q2 -24 4 -63t4 -84t5 -93t8 -90 q30 2 58.5 3.5t54 2t46 0t33.5 -2.5q20 0 28 -4.5t8 -30.5q-19 -13 -44 -21.5t-53.5 -14.5t-58.5 -9.5t-59 -4.5q6 -37 9.5 -63t8.5 -47.5t13.5 -41t24.5 -42.5q21 -13 25.5 -19t8 -5t13.5 8.5t40.5 21.5t89 34t159.5 46q70 -9 106.5 -35t50 -57.5t10 -61.5t-13 -47.5 t-20 -16t-10.5 33.5q0 42 -27.5 60t-70 18.5t-93 -12t-96.5 -30t-81 -37t-45 -32.5q-19 -23 -38.5 -22t-39 21t-37.5 55t-33.5 78.5t-26.5 92.5t-17 97h-62q-31 -2 -40.5 12t-9.5 36z" />
<glyph unicode="&#xa4;" horiz-adv-x="762" d="M128 347q0 39 11 76t31 69l-126 137q-1 2 -1 4q-1 2 -1 7q0 22 17.5 30t34.5 8q2 0 5 -0.5t7 -0.5q4 -1 10 -1l114 -113q54 50 124.5 78t144.5 28q20 0 37.5 -8t32.5 -20q23 9 45.5 20l41.5 21l30 18q12 7 14 7q14 0 26.5 -18.5t17.5 -41.5q-14 -14 -47 -33l-75 -42 q17 -33 25.5 -68t8.5 -62q0 -51 -21 -100.5t-57 -91.5q25 -28 45.5 -54.5t32.5 -48.5t14 -37.5t-10 -20.5q-13 -16 -19 -25.5t-10.5 -10.5t-9.5 6l-16 24l-32.5 44t-55.5 66q-44 -35 -94.5 -54.5t-101.5 -19.5q-23 0 -42 3.5t-36 9.5l-78 -109q0 -1 -4 -4.5t-9 -7.5l-12 -7 l-10 -5h-25q-5 4 -14 13t-9 11l95 154q-26 32 -37.5 75.5t-11.5 94.5zM215 335q0 -28 5 -50t17.5 -37.5t34 -23.5t53.5 -8q41 0 81.5 22.5t73 57.5t53 77t20.5 82q0 18 -3 39t-11.5 39t-23 30t-36.5 12q-37 0 -83 -14t-86 -43.5t-67.5 -75t-27.5 -107.5z" />
<glyph unicode="&#xa5;" horiz-adv-x="715" d="M381 620q-43 9 -86.5 40t-83 75.5t-74.5 99t-60.5 110t-40 108t-14.5 93.5q0 5 0.5 13t2.5 15t7.5 12t14.5 5q27 0 47.5 -19.5t37 -51.5t31.5 -73l29 -84q15 -42 31.5 -83t37 -73t47 -51.5t61.5 -19.5q2 0 6 1t6 1q31 28 56 74t46.5 99.5t41.5 110t41.5 105.5t45.5 85.5 t55 50.5l47 -49q9 -8 3 -35.5t-21 -68t-37 -89.5l-46 -103l-49 -106q-25 -53 -44.5 -99.5t-31.5 -83.5t-12 -58q0 -132 5.5 -255t5.5 -253v-22q0 -14 -4 -26t-14 -18.5t-31 -1.5q-40 60 -54.5 137t-16 160t5 168t8.5 160zM621 390q32 2 41 -12t9 -34q0 -27 -15 -41.5 t-37.5 -21t-48 -8.5t-45.5 -3q-13 -1 -41.5 -1.5t-64.5 -1.5l-75 -2l-76 -2q-36 -1 -64.5 -1.5t-41.5 -0.5q0 46 31 73t78.5 41t104 17.5t107.5 2.5t89 -3.5t49 -1.5zM173 589q91 5 175 9l75 4q38 2 74.5 3.5t69.5 3t59 3.5h14q22 0 29 -15t7 -32q0 -27 -9.5 -42t-40.5 -29 q-9 0 -31 -0.5t-46.5 -0.5t-46.5 -0.5t-31 -0.5q-19 0 -47 -1.5t-60.5 -2t-65.5 2.5t-62.5 11t-52 23t-33.5 40z" />
<glyph unicode="&#xa6;" horiz-adv-x="262" d="M168 419q12 -46 15.5 -99.5t5 -103t2.5 -89.5t7 -58q0 -2 1 -6.5t1 -6.5q0 -12 -8 -19.5t-19.5 -11.5t-24 -5.5t-22.5 -1.5q-4 0 -13 1t-11 1q-14 46 -15 94.5t0.5 99t1.5 101.5t-11 104h90zM74 483l-14 66q-7 29 -12 56t-7.5 55t-2.5 63v43q0 28 5.5 56t18 49t37.5 21 q19 0 29.5 -25.5t15.5 -65.5t6 -88v-92q1 -44 2.5 -79.5t7.5 -49.5z" />
<glyph unicode="&#xa7;" horiz-adv-x="541" d="M117 54q23 -5 61 -9.5t79 -5.5t79 3.5t61 17t25.5 35t-28.5 57.5q-32 0 -68.5 -1t-72.5 0.5t-69.5 8.5t-59 23.5t-41 43.5t-15.5 70q0 55 24 96t62 73q-27 4 -51 12.5t-41 24t-27 38.5t-10 56q0 54 19 90.5t50.5 58.5t72.5 31.5t84.5 9t86.5 -10t79 -24.5 q25 -11 30.5 -27t-1 -30.5t-21.5 -24t-31 -5.5l-51 13q-29 7 -60.5 12.5t-62 6t-55 -8.5t-39.5 -31t-15 -61q0 -31 21.5 -46t54.5 -20t72 -2t75 9q29 1 58 -3t52.5 -15.5t38 -31t14.5 -48.5q0 -16 -1 -36.5t-5.5 -43t-14.5 -44.5t-29 -40t-48 -31t-71 -16q40 2 75 -3.5 t61 -21t41 -42.5t15 -67q0 -36 -25.5 -59.5t-66 -37t-89.5 -19t-95.5 -6.5t-86 0t-59.5 1q-19 0 -22.5 15t2 32t17 29t22.5 5zM234 250q26 1 56.5 12t58.5 28.5t48.5 39.5t27.5 45.5t-4.5 46.5t-48.5 42q-13 4 -34.5 4.5t-46 -5t-49 -17.5t-44 -32t-32 -49t-12.5 -69 q0 -17 6 -26t17 -12.5t25.5 -4.5t31.5 -3z" />
<glyph unicode="&#xa8;" horiz-adv-x="853" d="M297 872q50 0 50 -52q-13 -32 -31 -43t-35 -8t-29.5 16.5t-13.5 30t12 32.5t47 24zM549 872q50 0 50 -52q-13 -32 -31 -43t-35 -8t-29.5 16.5t-13.5 30t12 32.5t47 24z" />
<glyph unicode="&#xa9;" horiz-adv-x="918" d="M229 419q0 37 17 77.5t46 74.5t67 55.5t80 21.5q22 0 43.5 -7t38.5 -20.5t27.5 -32t10.5 -40.5q-16 0 -29.5 3.5t-26.5 8.5l-25 8q-13 4 -28 4q-38 0 -62 -18.5t-37.5 -45.5t-19 -59t-5.5 -59q0 -5 0.5 -17t1 -25.5t1 -25.5t0.5 -17q10 -21 19.5 -33t21 -17.5t25 -6.5 t30.5 -1q36 0 60.5 14t46 31.5t45.5 31.5t60 14q0 -43 -16.5 -77t-46 -58t-69 -36.5t-85.5 -12.5q-44 0 -79.5 28.5t-60.5 69.5t-38 86.5t-13 80.5zM38 395q0 47 8 98t24.5 100t42 93t60 77.5t78.5 53.5t98 20q91 17 183 -6.5t165.5 -79.5t118.5 -140.5t44 -188.5 q1 -64 -22.5 -126t-65 -116t-98 -97.5t-121.5 -71.5t-135 -38t-139 3q-56 0 -95.5 20t-66 54t-42.5 77t-24 90t-10.5 93t-2.5 85zM111 340q0 -45 9.5 -96t32.5 -94.5t61.5 -72t96.5 -28.5q58 -12 116.5 -0.5t112.5 39t100 68t79 86t49 92.5t10 88q12 43 -0.5 87.5t-42 85.5 t-72 75.5t-91 58.5t-100.5 34t-99 3q-49 0 -87.5 -21t-67.5 -55.5t-49.5 -79t-33 -92t-18.5 -94t-6 -84.5z" />
<glyph unicode="&#xaa;" horiz-adv-x="410" d="M302 375l-43 -28q-17 -12 -34 -20.5t-36.5 -12.5t-47.5 -4q-61 0 -90 29.5t-29 88.5q0 22 6.5 47t19.5 49t30.5 46t39.5 38.5t47 26.5t53 10q47 -4 73.5 -21t40.5 -43.5t19 -59.5t8 -67.5t7.5 -69t18.5 -64.5q-8 -20 -15.5 -28t-16.5 -2.5t-21 26.5t-30 59zM78 427 q0 -34 14 -50t49 -16q27 0 51 8.5t42.5 24t30 37t11.5 47.5q0 11 0.5 30.5t-3 38.5t-12.5 33t-28 14q-33 0 -61.5 -16t-49.5 -40.5t-32.5 -54t-11.5 -56.5z" />
<glyph unicode="&#xab;" horiz-adv-x="918" d="M22 286q0 36 22.5 73t59 72t83 65.5t95 53.5t94.5 36.5t81 13.5q0 -32 -16.5 -58.5t-43 -50t-59.5 -45.5l-64 -43q-32 -21 -60.5 -44t-46.5 -50q-1 -3 -2 -5q-1 -3 -1 -6q0 -4 1 -7t2 -5q2 -2 10.5 -11.5t12.5 -12.5l26 -17l48 -30l57 -36l58 -37l47 -30q20 -13 27 -17 q3 -2 12 -11t11 -12q0 -3 1 -6q0 -2 0.5 -4t0.5 -3t-0.5 -2.5t-0.5 -3.5q-1 -3 -1 -5q-3 -5 -10.5 -13.5t-15 -16t-14 -13t-8.5 -5.5q-18 0 -55 14t-82 37.5t-92.5 53.5t-87 62t-64.5 63t-25 56zM367 288q0 36 22.5 73t59 72t83.5 65.5t95 53.5t94 36.5t81 13.5 q0 -32 -16.5 -58.5t-43 -50t-59.5 -45.5l-64 -43q-32 -21 -60.5 -44t-46.5 -50q-1 -3 -2 -5q-1 -3 -1 -6q0 -4 1 -7t2 -5q2 -2 10.5 -11.5t13.5 -12.5l26 -17l47 -30l57 -36l58 -37l47 -30q20 -13 27 -17q3 -2 12 -11t11 -12q0 -3 1 -6q0 -2 0.5 -4t0.5 -3t-0.5 -2.5 t-0.5 -3.5q-1 -3 -1 -5q-3 -5 -10.5 -13.5t-15 -16t-14 -13t-8.5 -5.5q-18 0 -55 14t-82 37.5t-92.5 53.5t-87 62t-64.5 63t-25 56z" />
<glyph unicode="&#xac;" horiz-adv-x="696" d="M561 221q-2 35 -4.5 56t-4.5 35t-4 23t-3.5 20t-2.5 26t-1 41q-125 0 -247.5 -11t-245.5 -11q0 39 28 64t71.5 38.5t97 18.5t105 6t94.5 -1t66 -2q11 0 28.5 -0.5t34 -0.5t28.5 -0.5t13 -0.5q6 -48 10.5 -78l7.5 -50l6 -36q3 -15 5 -32.5t3 -41.5t3 -63h-88z" />
<glyph unicode="&#xad;" d="M85 361q0 4 1 13t1 11q18 0 49 2l67 6l76 6q39 3 74.5 4.5t65.5 1t47 -3.5q20 0 28 -4.5t8 -29.5q-33 -23 -83 -33.5t-102.5 -15t-101.5 -4.5t-80 -1q-31 -2 -40.5 12.5t-9.5 35.5z" />
<glyph unicode="&#xae;" horiz-adv-x="836" d="M45 380q0 46 11 97t31.5 100t51 93t69 77.5t85.5 53t101 19.5q51 0 101 -17t96 -46t85.5 -68.5t68.5 -85.5t45.5 -95t16.5 -98q0 -58 -14.5 -116t-43 -110.5t-70 -96t-95.5 -74t-119 -45.5t-141 -8q-56 0 -98 20t-73 54t-52 77.5t-33.5 90t-17.5 93t-5 85.5zM123 344 q0 -45 13.5 -95.5t41 -93.5t69.5 -71.5t100 -28.5q52 -11 98 -6.5t85 21t71 42.5t56 58q-31 6 -62.5 17.5t-65 25t-71.5 27t-83 23.5q13 -23 22.5 -42t16 -36.5t9.5 -35.5t3 -39q0 -4 -5.5 -10.5t-14 -13t-18 -12t-17.5 -6.5q-24 19 -41 54t-29.5 78t-20.5 90.5t-14 92.5 l-11 83q-6 38 -13 62q-4 37 8.5 61t34 37t48 16.5t50.5 -0.5q27 0 63 -3t68.5 -13.5t55 -29.5t22.5 -50q4 -47 -6.5 -80.5t-28.5 -56t-41.5 -36.5t-45 -21t-39.5 -9.5t-25 -2.5q0 -2 1 -3t2 -3q74 -20 145 -45.5t140 -54.5q18 43 23 87.5t-5 86.5q0 51 -23 106.5t-62 102.5 t-91 77.5t-110 30.5q-74 0 -130.5 -38t-94.5 -95t-58 -124t-20 -124zM324 502q0 -9 -1.5 -22.5t-0.5 -27.5t5 -27t15 -22q1 -1 2 -1q1 -1 5 -1q62 5 96.5 20.5t48.5 35.5t10.5 41.5t-18 39.5t-37 29t-46 9.5t-45 -19t-34.5 -55.5z" />
<glyph unicode="&#xaf;" horiz-adv-x="467" d="M56 648q0 3 1 12.5t1 11.5q28 0 71.5 3.5t90 6t89 3t68.5 -4.5q20 0 28 -4.5t8 -30.5q-33 -22 -73.5 -31.5t-82 -12.5t-81 -1.5t-70.5 0.5q-30 -2 -40 12.5t-10 35.5z" />
<glyph unicode="&#xb0;" horiz-adv-x="356" d="M17 551q0 38 17 71.5t44 58t61.5 38t69.5 13.5q20 0 35 -13.5t25.5 -33.5t16 -42t5.5 -38q0 -35 -15.5 -68t-40.5 -58.5t-56 -41t-62 -15.5q-28 0 -46.5 10t-30.5 27.5t-17.5 41t-5.5 50.5zM67 544q0 -16 2.5 -28.5t9 -21t17 -13t27.5 -4.5q21 0 42.5 12.5t38 32t27 43.5 t10.5 46q0 11 -1.5 22.5t-5.5 22t-11.5 17.5t-19.5 7q-10 0 -24 -7.5t-29.5 -19.5t-30 -27.5t-26.5 -30.5t-19 -28.5t-7 -22.5z" />
<glyph unicode="&#xb1;" horiz-adv-x="737" d="M94 89q0 29 19.5 36.5t55.5 5.5t87 -8t114 -4q-15 23 -26 51t-18.5 56.5t-12.5 55t-6 45.5l-238 47q-3 0 -12.5 9.5t-11.5 14.5q-1 2 -1 5q-1 3 -1 7t1 7q0 3 1 5q4 5 13 14t11 9h238q7 58 18.5 119.5t28.5 119.5h25q5 -2 13 -5.5t15.5 -7.5t13 -7.5t5.5 -4.5v-223 q19 0 48 6.5t56 7t46 -10t19 -44.5q0 -20 -12.5 -29.5t-31.5 -14t-40.5 -6.5t-40.5 -5.5t-31.5 -11.5t-12.5 -25q0 -26 9.5 -46.5t21.5 -40t22.5 -40t12.5 -45.5q30 0 59 2.5t53.5 5t43.5 3.5t28 0q10 0 15 -7.5t7.5 -18.5t3 -25t0.5 -26q-22 -15 -66.5 -24t-100 -13.5 t-116.5 -6t-116.5 -1t-99 1t-64.5 0.5q-15 -1 -24 5t-13.5 16.5t-6 22.5t-1.5 23z" />
<glyph unicode="&#xb2;" horiz-adv-x="479" d="M144 408q0 37 6.5 72.5t15 71.5t15.5 73t7 75q0 5 -0.5 17.5t-0.5 26t-0.5 25.5t-0.5 17q-1 3 -6 8.5t-7 6.5h-8q-21 0 -35 -9.5t-24.5 -24t-19 -31t-18 -31t-22.5 -24t-32 -9.5q0 36 12 69.5t33.5 60t51.5 42.5t67 16q15 0 25 -1.5t17 -6t12 -13.5t10 -24v-19.5t1 -29.5 v-31q1 -14 1 -20q0 -35 -4.5 -69t-9.5 -67.5t-9 -67t-4 -68.5h11l153 72h3.5h5.5t6 0.5t5 0.5q6 0 12 -0.5t12 -2.5t9.5 -7t3.5 -13q0 -14 -8.5 -22t-20 -12.5t-23.5 -8t-19 -7.5l-19 -10l-29 -15l-35 -18l-35 -18l-29 -15l-20 -10h-4h-6.5t-6 -0.5t-4.5 -0.5q-13 0 -20.5 3 t-10.5 9.5t-3.5 16t-0.5 23.5z" />
<glyph unicode="&#xb3;" horiz-adv-x="369" d="M192 341q0 1 1 7t1 7q16 12 35.5 31t36 41.5t28 47t11.5 49.5q0 1 -0.5 2.5t-0.5 2.5v2l-8 9l-12 14l-13 13l-8 9h-3q-1 0 -2.5 0.5t-2.5 0.5q-12 0 -28 -10.5t-31.5 -24t-27.5 -25.5t-16 -15q-1 -1 -3 -1q-2 -1 -4 -1t-4 1q-1 0 -2 1q-3 1 -8.5 7t-6.5 8v7v7 q5 18 14.5 43.5t18.5 54t15.5 57t6.5 51.5q0 17 -1.5 33t-6.5 29t-14.5 20.5t-26.5 7.5q-22 0 -39 -13.5t-29 -33.5t-17.5 -43.5t-2.5 -42.5h-28q-1 0 -2 6l-4 16q-3 10 -5 19.5t-3 16.5v14q0 25 13 46.5t32 37.5t41.5 26t41.5 10q30 0 49.5 -11t32 -29.5t18.5 -42.5 t8 -50.5t1 -53t-3 -50.5q27 -5 50 -14t40 -23.5t27 -36t10 -52.5q0 -17 -6 -39t-16.5 -45.5t-24.5 -46.5t-30 -41t-34 -29t-36 -11q-12 0 -17 9.5t-5 20.5z" />
<glyph unicode="&#xb4;" d="M355 822l-121 -178q-13 -15 -26 -13t-20.5 12.5t-8 27t11.5 31.5q3 4 7 10t5 8l26 40q14 22 29.5 41.5t31 34.5t28.5 20t22.5 -2t14.5 -32z" />
<glyph unicode="&#xb5;" d="M22 453q0 7 0.5 24t0.5 36t0.5 35.5t0.5 22.5q8 14 18.5 26.5t22.5 17.5t25.5 1.5t28.5 -21.5v-9v-15q-1 -5 -4.5 -26t-8 -45t-8 -45t-3.5 -26q0 -21 4 -52.5t12.5 -66t21.5 -69t30.5 -62t39.5 -45t50 -17.5q36 0 63 18.5t47 48.5t33 68t21 76.5t11 74t3 61.5q0 27 -4 51 t-9.5 47.5t-9.5 46t-4 46.5q0 21 15.5 29.5t33.5 8.5q24 0 38.5 -13.5t22.5 -35t11 -48.5t3 -53.5t-1 -50.5t-1 -39v-53q0 -32 0.5 -70.5t0.5 -80.5v-84q0 -41 -0.5 -78.5t-0.5 -66.5q-1 -39 -19 -43.5t-52 11.5q-6 3 -9.5 16.5t-6 28.5t-5.5 25.5t-8 7.5q-10 -7 -32 -18.5 t-47 -22.5t-48.5 -19t-36.5 -8q-38 0 -68.5 14t-54.5 38q-6 6 -8 11l-3 8q-2 3 -3.5 8t-5.5 13q-2 4 -3 -13l-2 -43q-2 -25 -4.5 -50t-7.5 -37q-5 -14 -14 -18.5t-18 -3t-16.5 7.5t-9.5 12q-8 23 -12.5 65.5t-7 93.5t-3 105.5t-0.5 103.5t0.5 86.5t0.5 53.5z" />
<glyph unicode="&#xb6;" horiz-adv-x="795" d="M603 744q0 8 -10 8t-27 -2t-38.5 -2t-44.5 9q22 -40 35.5 -87.5t20.5 -96t9 -96t2 -87.5v-21q-2 -14 -7 -41l-9 -60l-11 -69l-10 -68l-9 -60q-4 -26 -7 -40q-8 -16 -21 -20.5t-28 -4t-32 4t-34 3.5q0 61 8 107t17.5 89t17.5 88.5t8 105.5q0 4 -0.5 16t-1 25.5t-1 25.5 t-0.5 16q-30 -33 -52.5 -52.5t-43.5 -29t-45 -12.5t-57 -3q-42 -4 -80 10.5t-65 42.5t-39 67t-1 85q0 56 14 106t44 88t76 60t109 22q52 0 87.5 -2t72.5 -4.5t84.5 -4.5t125.5 -2q15 0 25 -24.5t16 -62t9 -82.5t4.5 -84.5t2.5 -69t3 -36.5q4 -18 3 -52.5t-3 -77t-5.5 -90 t-5 -90t-1 -76.5t6.5 -51q0 -2 1 -6t1 -6q0 -12 -8 -19.5t-19.5 -11.5t-24 -5.5t-22.5 -1.5q-4 0 -12.5 1t-10.5 1q-1 91 -4 188l-6 192q-3 95 -5 184.5t-2 165.5z" />
<glyph unicode="&#xb7;" horiz-adv-x="344" d="M95 300q0 18 13.5 33.5t32.5 27t40 18.5t35 7q32 0 41 -19t9 -48q0 -21 -9 -36.5t-24 -25t-35 -14t-41 -4.5q-4 0 -7 1q-3 0 -5 1q-4 1 -11 7l-15 14l-13.5 15.5t-8.5 10.5q-1 2 -1 5q-1 3 -1 7z" />
<glyph unicode="&#xb8;" horiz-adv-x="548" d="M184 -404q17 12 43 28l52 33q26 17 50 35.5t37.5 35.5t14 33.5t-20.5 29.5q-53 0 -100.5 -2.5t-83.5 10t-57.5 49.5t-21.5 115q-3 44 6 64.5t23 24t29.5 -6.5t27 -25t15.5 -31.5t-5 -27.5q0 -35 12.5 -52.5t32.5 -24t46 -5.5t53.5 3t53.5 1.5t46 -10t32.5 -31.5t12.5 -63 q0 -27 -26.5 -66.5t-66 -77t-85 -64t-82.5 -26.5q-23 0 -30.5 16.5t-7.5 34.5z" />
<glyph unicode="&#xb9;" horiz-adv-x="205" d="M28 729v21q0 14 3.5 27.5t12 24t25.5 10.5q10 0 16.5 -12t10.5 -30.5t6 -40.5t3.5 -41.5t2 -34t1.5 -18.5l9 -25l14 -40l17 -46l16 -45l15 -40q7 -17 11 -25q0 -1 0.5 -3t0.5 -3q0 -6 -5.5 -9.5t-13.5 -5.5t-16 -2.5t-15 -0.5q-3 0 -8.5 0.5t-7.5 0.5l-34 80 q-17 43 -31.5 86t-23.5 87t-9 85z" />
<glyph unicode="&#xba;" horiz-adv-x="426" d="M18 507q0 48 22 89t57 71t79.5 47.5t90.5 17.5q25 0 45 -17.5t33.5 -41.5t20.5 -51.5t7 -47.5q0 -43 -20 -84t-52.5 -72.5t-73 -50.5t-80.5 -19q-36 0 -60.5 12.5t-39.5 34t-22 50.5t-7 62zM82 498q0 -19 3 -34.5t11.5 -26t22.5 -16.5t36 -6q28 0 55.5 16t49 40.5 t35.5 53.5t14 57q0 13 -2.5 27.5t-7.5 27t-15 21.5t-25 9q-13 0 -31.5 -9.5t-38 -24t-39 -33.5t-34.5 -37.5t-24.5 -35.5t-9.5 -29z" />
<glyph unicode="&#xbb;" horiz-adv-x="848" d="M95 48q0 18 15.5 46.5t39.5 61.5t53 68l55 66l47 56q20 24 28 35q0 2 1.5 6t1.5 6l-2 6q-1 2 -1 5q-2 5 -11 14t-13 11q-7 4 -27 17l-46 30l-57 36l-58 36l-47 30q-20 13 -27 17q-17 11 -23 23t-6 32q30 0 78 -9.5t101.5 -25.5t108 -38.5t98 -48.5t71 -54.5t27.5 -56.5 q0 -2 -1 -6t-1 -7l-30 -36l-45 -55l-54 -65l-55 -64l-47 -54l-31 -35q-17 -19 -27 -32.5t-18.5 -22.5t-19 -13.5t-28.5 -4.5q-5 0 -13.5 0.5t-16.5 3t-14 7.5t-6 15zM382 93q0 18 15.5 46.5t39.5 61.5t53 68l55 67l47 55q20 24 28 35q0 2 1.5 6t1.5 6q0 1 -2 7q-1 3 -1 5 q-2 4 -11 13t-13 11l-27 16l-47 30l-57 37l-57 37l-47 30q-21 12 -27 16q-18 11 -23.5 23t-5.5 32q31 0 78.5 -9.5t101 -25.5t107.5 -38.5t97.5 -48t71 -54t27.5 -57.5q0 -2 -1 -6t-1 -6q-9 -12 -29 -36l-46 -56l-54 -64l-55 -64l-47 -55l-31 -35q-17 -19 -27 -32.5 t-18.5 -22.5t-18.5 -13.5t-28 -4.5q-5 0 -13.5 0.5t-16.5 3t-14 7.5t-6 15z" />
<glyph unicode="&#xbc;" horiz-adv-x="930" d="M21 779v26q0 18 3.5 35.5t12.5 30.5t27 13q11 0 17.5 -15t11 -38.5t6.5 -52t3 -53.5t2 -43.5t2 -22.5l9 -33l15 -50l17 -59l18 -59l16 -50l10 -32q0 -1 1 -4t1 -4q0 -8 -6 -12.5t-14 -6.5t-17 -3t-16 -1q-3 0 -9 0.5t-7 0.5l-36 103q-18 54 -33 109.5t-24.5 111.5 t-9.5 109zM218 81l6 34q4 24 9 51l8 51q4 24 5 33q7 38 20.5 104.5t33 142.5t45 152.5t57 135t68 89.5t79.5 15q-14 -75 -35 -142t-44 -130l-48 -126q-25 -62 -48 -126.5t-41.5 -134.5t-29.5 -149q-5 -38 -18 -44t-31 0q-13 4 -23.5 12t-12.5 32zM418 214q0 28 11.5 67 t32 81.5t48 84t60 75t68 54t70.5 20.5q8 0 21.5 -0.5t26.5 -2t22.5 -7t9.5 -15.5l-1 -4q-1 -2 -1 -4q-2 -2 -6 -6.5t-9.5 -10t-11 -9.5t-7.5 -6q0 -5 -0.5 -18t-0.5 -27.5t-0.5 -28t-0.5 -18.5v-44.5t1 -42.5t5 -42t12 -42q3 0 7.5 -0.5t10.5 -0.5t10.5 -0.5t6.5 -0.5 q11 0 21.5 0.5t19.5 3.5t16.5 9.5t12.5 19.5q25 -9 30.5 -22t5.5 -31q0 -22 -11 -33t-28 -16t-39 -6l-45 -1q3 -7 8 -25l10 -37l11 -38q4 -17 6 -24q0 -1 0.5 -7.5t0.5 -10.5q0 -19 -12 -24.5t-33 -5.5q-3 0 -12.5 0.5t-12.5 0.5q-2 8 -6 28l-11 43q-5 22 -10.5 41.5 t-8.5 27.5q-2 6 -6.5 15.5t-11.5 18t-15.5 15t-17.5 6.5h-247zM665 501q-25 -17 -53 -42t-51.5 -54.5t-39 -61.5t-15.5 -60h178q0 23 -3 56t-5.5 65t-6 59t-4.5 38z" />
<glyph unicode="&#xbd;" horiz-adv-x="881" d="M94 744v27q0 18 4 36t12.5 31.5t26.5 13.5q10 0 16.5 -15.5t11 -39.5t6.5 -52.5t3 -54t1.5 -44.5t2.5 -23q2 -11 9 -33l14 -52l17 -59l17 -60l15 -51q7 -22 11 -32q0 -2 0.5 -4.5t0.5 -4.5q0 -7 -5.5 -12t-13.5 -7t-16.5 -3t-15.5 -1q-3 0 -9 0.5t-7 0.5l-35 105 q-18 55 -32.5 111t-24 113t-9.5 110zM237 18l4 34q3 25 6 53l6 51q2 24 4 34q4 38 13.5 105.5t22.5 145t30.5 155.5t38.5 137.5t46.5 90.5t53.5 16q-9 -77 -23 -145t-30 -132l-33 -128q-17 -63 -32.5 -129t-28 -137t-20.5 -151q-3 -39 -12 -45.5t-21 0.5q-9 5 -16 12.5 t-9 32.5zM532 113q0 40 7 78t16 77t16 78.5t7 80.5q0 5 -0.5 18t-0.5 27.5v28v18.5q-2 2 -7.5 8t-6.5 7h-8q-22 0 -37 -10t-26 -25t-19.5 -33.5t-19 -33.5t-23.5 -25t-33 -10q0 38 12.5 74t35 64t54 45t69.5 17q16 0 26.5 -1t17.5 -6t12 -15t11 -26v-20q0 -15 1 -32 q0 -17 0.5 -32.5t0.5 -21.5q0 -38 -4.5 -74.5t-10 -72t-10 -71.5t-4.5 -74h13l160 77l2.5 0.5t6 0.5h6.5h5q6 0 12.5 -0.5t12.5 -2.5t10 -7.5t4 -13.5q0 -15 -9 -23.5t-21 -14t-24.5 -9t-20.5 -7.5l-19 -10l-31 -17l-36 -19l-36 -19l-31 -16l-21 -11h-4h-6.5t-6.5 -0.5 t-5 -0.5q-14 0 -21.5 3.5t-11 10t-4 17t-0.5 24.5z" />
<glyph unicode="&#xbe;" horiz-adv-x="1053" d="M198 421q0 1 1 6.5t1 7.5q17 11 37 28.5t37.5 38.5t29 44t11.5 46v2.5v2.5q-1 1 -1 2l-8 9l-13 12l-13 13l-8 8h-3q-2 0 -3 0.5t-2 0.5q-13 0 -29.5 -10t-32.5 -22.5t-28.5 -24t-16.5 -14.5h-3q-2 -1 -4 -1t-4 1h-3q-3 2 -8 7.5t-7 7.5v6v7l15.5 40.5l19 51t16 53 t6.5 48.5q0 15 -1.5 30t-6.5 27t-15 19.5t-28 7.5q-22 0 -40 -13t-30 -31.5t-17.5 -40t-3.5 -40.5h-29l-2 6l-4 15q-3 9 -5 18.5t-3 15.5v13q0 23 13 43t33.5 35.5t43.5 24.5t43 9q30 0 50.5 -10t33.5 -27.5t19 -40t8 -47t1 -50t-3 -46.5q28 -5 51.5 -13.5t41.5 -22.5 t28 -34t10 -49q0 -15 -6 -35.5t-17 -43t-25 -44t-31 -38t-35.5 -27t-37.5 -10.5q-12 0 -17.5 8.5t-5.5 19.5zM357 65l4 36q4 26 7 55l7 54q3 25 4 36l16.5 110.5t26 152t35.5 163t45 144t54 95.5t63 16q-11 -80 -27.5 -151.5t-35.5 -138.5l-38 -134l-37.5 -135.5t-33 -143.5 t-23.5 -159q-4 -41 -14.5 -47.5t-24.5 0.5q-10 5 -18 13.5t-10 33.5zM512 202q0 28 11.5 67t31 81.5t46.5 84t58.5 75t66 54t69.5 20.5q8 0 21 -0.5t26 -2t22 -7t9 -15.5l-2 -4v-4q-2 -2 -6 -7l-9 -10l-11 -9t-7 -6q0 -5 -0.5 -18t-0.5 -27.5t-0.5 -28t-0.5 -18.5 q0 -23 -0.5 -44.5t1 -42.5t5 -42t12.5 -42q2 0 6.5 -0.5t10 -0.5t10.5 -0.5t7 -0.5q10 0 20.5 0.5t19.5 3.5t16 9.5t12 19.5q24 -9 29 -22t5 -31q0 -22 -10 -33t-27 -16t-39 -6l-43 -1q3 -7 8 -25l10 -37l10 -38q4 -17 6 -24q0 -1 0.5 -7.5t0.5 -10.5q0 -19 -11.5 -24.5 t-32.5 -5.5q-3 0 -12.5 0.5t-11.5 0.5q-2 8 -6 28l-10 43l-11 41.5t-8 27.5q-2 6 -6.5 15.5t-11.5 18t-15 15t-17 6.5h-241zM753 489q-24 -17 -51.5 -42t-50.5 -54.5t-38 -61.5t-15 -60h173q0 23 -2.5 56t-5.5 65t-6 59t-4 38z" />
<glyph unicode="&#xbf;" horiz-adv-x="497" d="M218 849.5q0 -12.5 -12.5 -28.5t-29.5 -30t-37.5 -24t-37.5 -10q-3 0 -14.5 9.5l-16.5 13.5q-4 3 -8.5 10.5t-9.5 15t-8 13.5t-3 7q0 20 7 30.5t18 14.5t26 4h31q5 0 20.5 0.5t32 -1t29.5 -7t13 -18zM309 432q0 -39 -19.5 -73t-42.5 -66.5t-43 -66t-20 -73.5 q0 -13 10 -25.5t25.5 -21.5t34.5 -14.5t37 -5.5q27 0 49 11t41.5 25.5t36.5 30.5t34 26q3 2 18.5 4.5t20.5 2.5q0 -42 -15 -77.5t-43.5 -61.5t-71.5 -40.5t-99 -14.5q-38 0 -78 14t-72 37t-52.5 52.5t-20.5 60.5q0 39 13 70.5t31 59t37 53.5t32.5 54t16.5 60t-10 73 q2 3 10 7t17 7l18 6q9 3 14 3q29 0 47 -12t28 -30t13 -38.5t3 -36.5z" />
<glyph unicode="&#xc0;" horiz-adv-x="762" d="M262 976q7 20 20 23t29 3q26 0 57.5 -34t65 -90.5t67.5 -130t65.5 -151.5t59 -156t48 -143t32 -112.5t11.5 -65.5t-8.5 -34t-29.5 -16q-13 0 -22.5 8.5t-16.5 20.5t-12.5 24.5t-9.5 20.5l-18 47l-29 72l-29 72l-19 47q-77 13 -155.5 25t-165.5 23h-12 q-40 -172 -70.5 -272t-51 -142.5t-32.5 -35t-15.5 51.5t1.5 117t18.5 161.5t34 185t48.5 186.5t63 167.5t76 127.5zM236 584q0 -41 26.5 -60t64.5 -25t79.5 -4.5t71.5 1.5q0 44 -14.5 95.5t-36.5 103t-47 99.5l-47 87q-12 -12 -26 -45t-27.5 -73.5t-25 -79.5t-16.5 -63 q0 -3 -1 -17t-1 -19zM246 1202q4 22 14 28.5t23 2t28 -18.5t30.5 -32t29.5 -38l26 -37q1 -2 5 -7.5t7 -8.5q12 -14 11.5 -29t-8 -25t-21 -11.5t-26.5 12.5z" />
<glyph unicode="&#xc1;" horiz-adv-x="762" d="M262 976q7 20 20 23t29 3q26 0 57.5 -34t65 -90.5t67.5 -130t65.5 -151.5t59 -156t48 -143t32 -112.5t11.5 -65.5t-8.5 -34t-29.5 -16q-13 0 -22.5 8.5t-16.5 20.5t-12.5 24.5t-9.5 20.5l-18 47l-29 72l-29 72l-19 47q-77 13 -155.5 25t-165.5 23h-12 q-40 -172 -70.5 -272t-51 -142.5t-32.5 -35t-15.5 51.5t1.5 117t18.5 161.5t34 185t48.5 186.5t63 167.5t76 127.5zM236 584q0 -41 26.5 -60t64.5 -25t79.5 -4.5t71.5 1.5q0 44 -14.5 95.5t-36.5 103t-47 99.5l-47 87q-12 -12 -26 -45t-27.5 -73.5t-25 -79.5t-16.5 -63 q0 -3 -1 -17t-1 -19zM380 1241l-121 -178q-13 -15 -26 -13t-20.5 12.5t-8 27t11.5 31.5q3 4 7 10t5 8l26 40q14 22 29.5 41.5t31 34.5t28.5 20t22.5 -2t14.5 -32z" />
<glyph unicode="&#xc2;" horiz-adv-x="762" d="M262 976q7 20 20 23t29 3q26 0 57.5 -34t65 -90.5t67.5 -130t65.5 -151.5t59 -156t48 -143t32 -112.5t11.5 -65.5t-8.5 -34t-29.5 -16q-13 0 -22.5 8.5t-16.5 20.5t-12.5 24.5t-9.5 20.5l-18 47l-29 72l-29 72l-19 47q-77 13 -155.5 25t-165.5 23h-12 q-40 -172 -70.5 -272t-51 -142.5t-32.5 -35t-15.5 51.5t1.5 117t18.5 161.5t34 185t48.5 186.5t63 167.5t76 127.5zM236 584q0 -41 26.5 -60t64.5 -25t79.5 -4.5t71.5 1.5q0 44 -14.5 95.5t-36.5 103t-47 99.5l-47 87q-12 -12 -26 -45t-27.5 -73.5t-25 -79.5t-16.5 -63 q0 -3 -1 -17t-1 -19zM287 1416q22 -12 45.5 -35.5t47.5 -53t47 -61.5l44 -63l39 -55q18 -26 31 -40q-1 -2 -7 -8l-14 -14l-15 -16q-8 -7 -12 -10q-3 -1 -5 -1q-3 -1 -6 -1q-5 0 -8 1q-3 0 -5 1q-33 22 -51 52l-32 58q-16 27 -36 46t-57 19q-24 -57 -37 -92.5t-22 -55.5 t-16.5 -28t-20.5 -9.5t-34.5 1t-57.5 2.5q0 21 7.5 53t20 69t30 76t37.5 72t42.5 58t44.5 35z" />
<glyph unicode="&#xc3;" horiz-adv-x="762" d="M262 976q7 20 20 23t29 3q26 0 57.5 -34t65 -90.5t67.5 -130t65.5 -151.5t59 -156t48 -143t32 -112.5t11.5 -65.5t-8.5 -34t-29.5 -16q-13 0 -22.5 8.5t-16.5 20.5t-12.5 24.5t-9.5 20.5l-18 47l-29 72l-29 72l-19 47q-77 13 -155.5 25t-165.5 23h-12 q-40 -172 -70.5 -272t-51 -142.5t-32.5 -35t-15.5 51.5t1.5 117t18.5 161.5t34 185t48.5 186.5t63 167.5t76 127.5zM236 584q0 -41 26.5 -60t64.5 -25t79.5 -4.5t71.5 1.5q0 44 -14.5 95.5t-36.5 103t-47 99.5l-47 87q-12 -12 -26 -45t-27.5 -73.5t-25 -79.5t-16.5 -63 q0 -3 -1 -17t-1 -19zM67 1094q0 37 6.5 77.5t24.5 74.5t49.5 56t81.5 22q36 0 62 -16t46.5 -40t38.5 -52.5t37.5 -52.5t43.5 -40t57 -16q37 0 54.5 11.5t23 29.5t4 40.5t-2 44t4.5 39t24 27.5h12h11q3 -1 10 -4l15 -7l14 -6q7 -4 10 -6q0 -4 0.5 -12.5t0.5 -18t0.5 -18 t0.5 -11.5q0 -97 -51.5 -152t-146.5 -55q-37 0 -63.5 14.5t-47 36.5t-37.5 48t-34.5 48t-38 36.5t-48.5 14.5q-35 0 -50.5 -13.5t-21 -34.5t-5.5 -47t-3 -50t-13.5 -43.5t-36.5 -28.5l-25 23q-1 3 -2 13.5t-2 23.5l-2 24q-1 13 -1 20z" />
<glyph unicode="&#xc4;" horiz-adv-x="762" d="M262 976q7 20 20 23t29 3q26 0 57.5 -34t65 -90.5t67.5 -130t65.5 -151.5t59 -156t48 -143t32 -112.5t11.5 -65.5t-8.5 -34t-29.5 -16q-13 0 -22.5 8.5t-16.5 20.5t-12.5 24.5t-9.5 20.5l-18 47l-29 72l-29 72l-19 47q-77 13 -155.5 25t-165.5 23h-12 q-40 -172 -70.5 -272t-51 -142.5t-32.5 -35t-15.5 51.5t1.5 117t18.5 161.5t34 185t48.5 186.5t63 167.5t76 127.5zM236 584q0 -41 26.5 -60t64.5 -25t79.5 -4.5t71.5 1.5q0 44 -14.5 95.5t-36.5 103t-47 99.5l-47 87q-12 -12 -26 -45t-27.5 -73.5t-25 -79.5t-16.5 -63 q0 -3 -1 -17t-1 -19zM189 1197q50 0 50 -52q-13 -32 -31 -43t-35 -8t-29.5 16.5t-13.5 30t12 32.5t47 24zM441 1197q50 0 50 -52q-13 -32 -31 -43t-35 -8t-29.5 16.5t-13.5 30t12 32.5t47 24z" />
<glyph unicode="&#xc5;" horiz-adv-x="762" d="M262 976q7 20 20 23t29 3q26 0 57.5 -34t65 -90.5t67.5 -130t65.5 -151.5t59 -156t48 -143t32 -112.5t11.5 -65.5t-8.5 -34t-29.5 -16q-13 0 -22.5 8.5t-16.5 20.5t-12.5 24.5t-9.5 20.5l-18 47l-29 72l-29 72l-19 47q-77 13 -155.5 25t-165.5 23h-12 q-40 -172 -70.5 -272t-51 -142.5t-32.5 -35t-15.5 51.5t1.5 117t18.5 161.5t34 185t48.5 186.5t63 167.5t76 127.5zM236 584q0 -41 26.5 -60t64.5 -25t79.5 -4.5t71.5 1.5q0 44 -14.5 95.5t-36.5 103t-47 99.5l-47 87q-12 -12 -26 -45t-27.5 -73.5t-25 -79.5t-16.5 -63 q0 -3 -1 -17t-1 -19zM164 1094q0 39 19.5 72t51 57t72 37.5t81.5 13.5q22 0 40 -13.5t30 -33t18.5 -41.5t6.5 -39q0 -35 -18 -67.5t-47 -58t-65.5 -41t-72.5 -15.5q-32 0 -54 10t-36 27.5t-20 41t-6 50.5zM247 1092q0 -16 1 -27.5t5.5 -19t15 -11.5t30.5 -4q49 0 79 27 t30 72q0 10 -2.5 23.5t-7.5 26t-14.5 21t-22.5 8.5q-18 0 -38 -13t-37 -31.5t-28 -38.5t-11 -33z" />
<glyph unicode="&#xc6;" horiz-adv-x="1039" d="M278 981q34 25 63 11.5t55 -55.5q17 8 35 12t29 6h23q27 -3 64 -7.5t77 -10.5l79 -11l72 -11l54 -8q21 -4 26 -4q9 -1 23 -4t28 -9t26.5 -14.5t17.5 -20.5q-9 -18 -15.5 -27.5t-14 -14t-16 -5t-20.5 -0.5q-47 0 -94 4l-94 7l-94 7q-47 3 -95 3q0 -21 -5 -60.5t-7.5 -84 t2 -88.5t24.5 -74q39 23 81.5 24.5t85.5 1.5h48q29 0 56 -6.5t46 -22.5t19 -47q0 -22 -9 -33.5t-41 -11.5q-3 0 -13.5 3.5t-22.5 8.5l-22 8q-10 4 -13 4q-1 0 -8.5 0.5t-17.5 0.5t-19.5 0.5t-14.5 0.5q-26 0 -49.5 -3.5t-41.5 -14t-28.5 -29.5t-10.5 -49q0 -11 2 -34.5 t6 -53t11 -61t18 -57.5t25 -43t33 -17q3 0 12.5 1t11.5 1q36 25 74.5 55.5t80 56.5t85.5 44t92 18v-54q0 -5 -21.5 -24.5t-56 -46.5t-78 -57t-87 -55t-83 -41.5t-66.5 -16.5q-41 0 -72 38.5t-54 101.5q0 -28 -1 -52.5t-3 -44.5q-26 0 -42.5 5t-24.5 22q-4 9 -3.5 35t3 60.5 t6 73.5t6 74t2.5 61t-3 35q-39 6 -59 13t-37 14t-40 13.5t-66 12.5h-11q-40 -172 -70.5 -272t-51.5 -142.5t-32.5 -35t-15 51.5t1.5 117t18 161.5t34 185t48.5 186.5t62.5 167.5t77 127.5zM253 625q-24 -33 -23 -57.5t20 -40t51.5 -23.5t72.5 -8q0 44 2.5 96.5t1.5 105 t-9.5 102t-29.5 88.5q-12 -12 -24.5 -45.5t-24.5 -74t-22 -80t-15 -63.5z" />
<glyph unicode="&#xc7;" horiz-adv-x="715" d="M22 381q0 38 10.5 82.5t29.5 89.5t45.5 87.5t60 75.5t72.5 52.5t82 19.5q36 0 67 -9.5t53.5 -28.5t35 -47.5t12.5 -66.5q-24 0 -39 12.5t-28 28t-28 28t-38 12.5q-35 0 -66.5 -18t-58.5 -48t-48 -67.5t-36 -76t-23 -75t-8 -63.5q0 -58 17 -108.5t49.5 -87.5t80 -58.5 t108.5 -21.5q39 0 74 12t68 26t65 26t64 12q5 0 13 -0.5t15.5 -3t13 -7.5t5.5 -15q0 -40 -30.5 -67.5t-73 -45t-88 -25t-74.5 -7.5q-84 0 -157.5 27t-127.5 77t-85.5 120.5t-31.5 158.5zM319 -382q17 12 43 28l52 33q26 17 50 35.5t37.5 35.5t14 33.5t-20.5 29.5 q-53 0 -100.5 -2.5t-83.5 10t-57.5 49.5t-21.5 115q-3 44 6 64.5t23 24t29.5 -6.5t27 -25t15.5 -31.5t-5 -27.5q0 -35 12.5 -52.5t32.5 -24t46 -5.5t53.5 3t53.5 1.5t46 -10t32.5 -31.5t12.5 -63q0 -27 -26.5 -66.5t-66 -77t-85 -64t-82.5 -26.5q-23 0 -30.5 16.5t-7.5 34.5 z" />
<glyph unicode="&#xc8;" horiz-adv-x="738" d="M72 881q-5 0 -16 3l-22 6q-11 4 -21 8t-13 7q-1 2 -1 4q-1 2 -1 5q0 16 12 27t28 18.5t32 10.5l25 6h13h11l68 -8l87 -9l93 -10l85 -9l65 -8q26 -3 31 -3q9 -1 23 -4t28 -9t26.5 -14.5t17.5 -20.5q-9 -18 -15.5 -27.5t-14 -14t-16 -5t-20.5 -0.5q-47 0 -94 4l-94 6l-94 8 q-47 3 -95 3q0 -21 -5 -60.5t-7.5 -84t2 -88.5t24.5 -74q39 23 81.5 24t85.5 1h48q29 0 56 -6.5t46 -22t19 -46.5q0 -22 -9 -33.5t-41 -11.5q-3 0 -13.5 3.5l-22.5 7.5l-22 8q-10 4 -13 4q-1 0 -8.5 0.5t-17.5 0.5t-19.5 0.5t-14.5 0.5q-26 0 -49.5 -3.5t-41.5 -13.5 t-28.5 -29t-10.5 -49q0 -10 2 -34t6 -53.5t11 -61t18 -57.5t25 -43t33 -17q3 0 12 1t11 1q37 25 75.5 55t79.5 56.5t85.5 44.5t92.5 18v-54q0 -5 -21.5 -25t-56.5 -46.5t-78.5 -56.5t-87 -55t-83 -41.5t-65.5 -16.5q-38 0 -67.5 34t-52.5 90t-39 129t-27.5 151t-18.5 155.5 t-11.5 143t-6.5 113.5t-3 67zM225 1191q4 22 14 28.5t23 2t28 -18.5t30.5 -32t29.5 -38l26 -37q1 -2 5 -7.5t7 -8.5q12 -14 11.5 -29t-8 -25t-21 -11.5t-26.5 12.5z" />
<glyph unicode="&#xc9;" horiz-adv-x="738" d="M72 881q-5 0 -16 3l-22 6q-11 4 -21 8t-13 7q-1 2 -1 4q-1 2 -1 5q0 16 12 27t28 18.5t32 10.5l25 6h13h11l68 -8l87 -9l93 -10l85 -9l65 -8q26 -3 31 -3q9 -1 23 -4t28 -9t26.5 -14.5t17.5 -20.5q-9 -18 -15.5 -27.5t-14 -14t-16 -5t-20.5 -0.5q-47 0 -94 4l-94 6l-94 8 q-47 3 -95 3q0 -21 -5 -60.5t-7.5 -84t2 -88.5t24.5 -74q39 23 81.5 24t85.5 1h48q29 0 56 -6.5t46 -22t19 -46.5q0 -22 -9 -33.5t-41 -11.5q-3 0 -13.5 3.5l-22.5 7.5l-22 8q-10 4 -13 4q-1 0 -8.5 0.5t-17.5 0.5t-19.5 0.5t-14.5 0.5q-26 0 -49.5 -3.5t-41.5 -13.5 t-28.5 -29t-10.5 -49q0 -10 2 -34t6 -53.5t11 -61t18 -57.5t25 -43t33 -17q3 0 12 1t11 1q37 25 75.5 55t79.5 56.5t85.5 44.5t92.5 18v-54q0 -5 -21.5 -25t-56.5 -46.5t-78.5 -56.5t-87 -55t-83 -41.5t-65.5 -16.5q-38 0 -67.5 34t-52.5 90t-39 129t-27.5 151t-18.5 155.5 t-11.5 143t-6.5 113.5t-3 67zM420 1194l-121 -178q-13 -15 -26 -13t-20.5 12.5t-8 27t11.5 31.5q3 4 7 10t5 8l26 40q14 22 29.5 41.5t31 34.5t28.5 20t22.5 -2t14.5 -32z" />
<glyph unicode="&#xca;" horiz-adv-x="738" d="M72 881q-5 0 -16 3l-22 6q-11 4 -21 8t-13 7q-1 2 -1 4q-1 2 -1 5q0 16 12 27t28 18.5t32 10.5l25 6h13h11l68 -8l87 -9l93 -10l85 -9l65 -8q26 -3 31 -3q9 -1 23 -4t28 -9t26.5 -14.5t17.5 -20.5q-9 -18 -15.5 -27.5t-14 -14t-16 -5t-20.5 -0.5q-47 0 -94 4l-94 6l-94 8 q-47 3 -95 3q0 -21 -5 -60.5t-7.5 -84t2 -88.5t24.5 -74q39 23 81.5 24t85.5 1h48q29 0 56 -6.5t46 -22t19 -46.5q0 -22 -9 -33.5t-41 -11.5q-3 0 -13.5 3.5l-22.5 7.5l-22 8q-10 4 -13 4q-1 0 -8.5 0.5t-17.5 0.5t-19.5 0.5t-14.5 0.5q-26 0 -49.5 -3.5t-41.5 -13.5 t-28.5 -29t-10.5 -49q0 -10 2 -34t6 -53.5t11 -61t18 -57.5t25 -43t33 -17q3 0 12 1t11 1q37 25 75.5 55t79.5 56.5t85.5 44.5t92.5 18v-54q0 -5 -21.5 -25t-56.5 -46.5t-78.5 -56.5t-87 -55t-83 -41.5t-65.5 -16.5q-38 0 -67.5 34t-52.5 90t-39 129t-27.5 151t-18.5 155.5 t-11.5 143t-6.5 113.5t-3 67zM338 1400q22 -12 45.5 -35.5t47.5 -53t47 -61.5l44 -63l39 -55q18 -26 31 -40q-1 -2 -7 -8l-13 -14l-16 -16q-8 -7 -12 -10q-3 -1 -5 -1q-3 -1 -6 -1q-5 0 -8 1q-3 0 -5 1q-33 22 -50 52l-34 58q-15 27 -35 46t-57 19q-24 -57 -37 -92.5 t-22 -55.5t-16.5 -28t-20.5 -9.5t-34.5 1t-57.5 2.5q0 21 7.5 53t20 69t30 76t37.5 72t42.5 58t44.5 35z" />
<glyph unicode="&#xcb;" horiz-adv-x="738" d="M72 881q-5 0 -16 3l-22 6q-11 4 -21 8t-13 7q-1 2 -1 4q-1 2 -1 5q0 16 12 27t28 18.5t32 10.5l25 6h13h11l68 -8l87 -9l93 -10l85 -9l65 -8q26 -3 31 -3q9 -1 23 -4t28 -9t26.5 -14.5t17.5 -20.5q-9 -18 -15.5 -27.5t-14 -14t-16 -5t-20.5 -0.5q-47 0 -94 4l-94 6l-94 8 q-47 3 -95 3q0 -21 -5 -60.5t-7.5 -84t2 -88.5t24.5 -74q39 23 81.5 24t85.5 1h48q29 0 56 -6.5t46 -22t19 -46.5q0 -22 -9 -33.5t-41 -11.5q-3 0 -13.5 3.5l-22.5 7.5l-22 8q-10 4 -13 4q-1 0 -8.5 0.5t-17.5 0.5t-19.5 0.5t-14.5 0.5q-26 0 -49.5 -3.5t-41.5 -13.5 t-28.5 -29t-10.5 -49q0 -10 2 -34t6 -53.5t11 -61t18 -57.5t25 -43t33 -17q3 0 12 1t11 1q37 25 75.5 55t79.5 56.5t85.5 44.5t92.5 18v-54q0 -5 -21.5 -25t-56.5 -46.5t-78.5 -56.5t-87 -55t-83 -41.5t-65.5 -16.5q-38 0 -67.5 34t-52.5 90t-39 129t-27.5 151t-18.5 155.5 t-11.5 143t-6.5 113.5t-3 67zM229 1134q50 0 50 -52q-13 -32 -31 -43t-35 -8t-29.5 16.5t-13.5 30t12 32.5t47 24zM481 1134q50 0 50 -52q-13 -32 -31 -43t-35 -8t-29.5 16.5t-13.5 30t12 32.5t47 24z" />
<glyph unicode="&#xcc;" horiz-adv-x="857" d="M357 155q0 58 -14.5 127t-31.5 142l-33 144q-15 71 -16 134h-248q0 9 0.5 25.5t3.5 34t10 31.5t20 17h611q-1 -35 -14.5 -54t-35 -29t-47.5 -13l-54 -6q-27 -3 -52.5 -8.5t-44 -19.5t-28 -39t-4.5 -68q0 -23 3.5 -61.5t11 -83t20 -89.5t30.5 -82t42 -60t56 -23 q22 -2 57.5 0t71 3t67 -1.5t46 -13.5t6.5 -32.5t-49 -58.5q-71 -26 -143.5 -35.5t-146 -10.5t-147 2t-145.5 3q-41 50 -49 76.5t6 37.5t44.5 11.5t66 -2.5t71 -4.5t59.5 6.5zM331 1056q4 22 14 28.5t23 2t28 -18.5t30.5 -32t29.5 -38l26 -37q1 -2 5 -7.5t7 -8.5 q12 -14 11.5 -29t-8 -25t-21 -11.5t-26.5 12.5z" />
<glyph unicode="&#xcd;" horiz-adv-x="857" d="M357 155q0 58 -14.5 127t-31.5 142l-33 144q-15 71 -16 134h-248q0 9 0.5 25.5t3.5 34t10 31.5t20 17h611q-1 -35 -14.5 -54t-35 -29t-47.5 -13l-54 -6q-27 -3 -52.5 -8.5t-44 -19.5t-28 -39t-4.5 -68q0 -23 3.5 -61.5t11 -83t20 -89.5t30.5 -82t42 -60t56 -23 q22 -2 57.5 0t71 3t67 -1.5t46 -13.5t6.5 -32.5t-49 -58.5q-71 -26 -143.5 -35.5t-146 -10.5t-147 2t-145.5 3q-41 50 -49 76.5t6 37.5t44.5 11.5t66 -2.5t71 -4.5t59.5 6.5zM526 1037l-121 -178q-13 -15 -26 -13t-20.5 12.5t-8 27t11.5 31.5q3 4 7 10t5 8l26 40 q14 22 29.5 41.5t31 34.5t28.5 20t22.5 -2t14.5 -32z" />
<glyph unicode="&#xce;" horiz-adv-x="857" d="M357 155q0 58 -14.5 127t-31.5 142l-33 144q-15 71 -16 134h-248q0 9 0.5 25.5t3.5 34t10 31.5t20 17h611q-1 -35 -14.5 -54t-35 -29t-47.5 -13l-54 -6q-27 -3 -52.5 -8.5t-44 -19.5t-28 -39t-4.5 -68q0 -23 3.5 -61.5t11 -83t20 -89.5t30.5 -82t42 -60t56 -23 q22 -2 57.5 0t71 3t67 -1.5t46 -13.5t6.5 -32.5t-49 -58.5q-71 -26 -143.5 -35.5t-146 -10.5t-147 2t-145.5 3q-41 50 -49 76.5t6 37.5t44.5 11.5t66 -2.5t71 -4.5t59.5 6.5zM392 1306q22 -12 45.5 -35.5t47.5 -53t47 -61.5l44 -63l39 -55q18 -26 31 -40q-1 -2 -7 -8 l-13 -14l-16 -16q-8 -7 -12 -10q-3 -1 -5 -1q-3 -1 -6 -1q-5 0 -8 1q-3 0 -5 1q-33 22 -50 52l-34 58q-15 27 -35 46t-57 19q-24 -57 -37 -92.5t-22 -55.5t-16.5 -28t-20.5 -9.5t-34.5 1t-57.5 2.5q0 21 7.5 53t20 69t30 76t37.5 72t42.5 58t44.5 35z" />
<glyph unicode="&#xcf;" horiz-adv-x="857" d="M357 155q0 58 -14.5 127t-31.5 142l-33 144q-15 71 -16 134h-248q0 9 0.5 25.5t3.5 34t10 31.5t20 17h611q-1 -35 -14.5 -54t-35 -29t-47.5 -13l-54 -6q-27 -3 -52.5 -8.5t-44 -19.5t-28 -39t-4.5 -68q0 -23 3.5 -61.5t11 -83t20 -89.5t30.5 -82t42 -60t56 -23 q22 -2 57.5 0t71 3t67 -1.5t46 -13.5t6.5 -32.5t-49 -58.5q-71 -26 -143.5 -35.5t-146 -10.5t-147 2t-145.5 3q-41 50 -49 76.5t6 37.5t44.5 11.5t66 -2.5t71 -4.5t59.5 6.5zM252 1018q50 0 50 -52q-13 -32 -31 -43t-35 -8t-29.5 16.5t-13.5 30t12 32.5t47 24zM504 1018 q50 0 50 -52q-13 -32 -31 -43t-35 -8t-29.5 16.5t-13.5 30t12 32.5t47 24z" />
<glyph unicode="&#xd0;" horiz-adv-x="566" d="M18 753q0 47 27.5 77t68.5 47t87.5 23.5t84.5 6.5q72 0 121.5 -28.5t80 -75t44 -107.5t13.5 -125q0 -42 -9 -99t-26.5 -118t-43.5 -120.5t-61 -106.5t-78 -76t-94 -29q-9 0 -23.5 27.5t-31.5 73t-35 104.5l-36 124q-18 64 -34 128l-29 119q-12 54 -19 95.5t-7 59.5z M112 690q0 -36 5 -81.5t15.5 -94t26.5 -98t37 -93t48 -78.5t60 -55l64 96q28 42 46 84t27 90t9 111q0 46 -6 89t-24 77t-51.5 54.5t-87.5 20.5q-45 0 -86.5 -13.5t-80.5 -36.5q0 -3 -0.5 -13t-0.5 -21.5t-0.5 -22.5t-0.5 -15zM10 366q0 1 -1.5 11t-3.5 21.5t-3.5 21 t-1.5 10.5q27 -8 62 -2.5t71.5 12.5t70 10t56.5 -10q23 -12 13.5 -23t-37.5 -20.5t-67 -16.5t-75 -11t-60.5 -5t-23.5 2z" />
<glyph unicode="&#xd1;" horiz-adv-x="762" d="M68 -8l-12 51l-15 73l-16 84q-8 44 -14.5 85.5t-10.5 76.5t-4 58q0 10 2.5 34t6.5 51t8 50t7 32q4 1 12.5 1.5t17.5 1.5t17.5 1.5t11.5 0.5q54 0 101.5 -21t91 -53.5t84.5 -72.5l82 -77q42 -38 85.5 -69t92.5 -46q0 5 0.5 17t0.5 25.5t0.5 25t0.5 16.5q0 70 -9 137 t-20 133.5t-20 134t-9 138.5q8 0 20 -0.5t24 -3.5t22 -9t13 -18q5 -81 21 -161l32 -162q16 -80 29 -160.5t13 -159.5q0 -14 -0.5 -31t-4.5 -32t-13 -25t-27 -10q-57 0 -106 26.5t-95 65.5t-90 85.5t-90 85.5t-95.5 65.5t-106.5 26.5q0 -62 9 -119.5t19.5 -114t19.5 -112.5 t9 -114q0 -21 -15 -29t-33 -8q-14 0 -27 3t-20 23zM-5 1005q0 37 6.5 77.5t24.5 74.5t49.5 56t81.5 22q36 0 62 -16t46.5 -40t38.5 -52.5t37.5 -52.5t43.5 -40t57 -16q37 0 54.5 11.5t23 29.5t4 40.5t-2 44t4.5 39t24 27.5h12h11q3 -1 10 -4l15 -6l14 -8q7 -3 10 -5 q0 -4 0.5 -12.5t0.5 -18t0.5 -18t0.5 -11.5q0 -97 -51.5 -152t-146.5 -55q-37 0 -63.5 14.5t-47 36.5t-37.5 48t-34.5 48t-38 36.5t-48.5 14.5q-35 0 -50.5 -13.5t-21 -34.5t-5.5 -47t-3 -50t-13.5 -43.5t-36.5 -28.5l-25 23q-1 3 -2 13.5t-2 22.5l-2 26q-1 12 -1 19z" />
<glyph unicode="&#xd2;" horiz-adv-x="715" d="M0 309q0 57 15 115t42 111.5t66 99.5t86.5 80t103 53.5t116.5 19.5t106 -24t75 -64t44.5 -91.5t14.5 -105.5q0 -93 -28 -183.5t-82.5 -162t-135 -115.5t-184.5 -44q-62 0 -107 28t-74.5 73t-43.5 100.5t-14 109.5zM95 284q0 -30 9.5 -63t27.5 -61t45 -46.5t62 -18.5 q74 0 135.5 33.5t105.5 87.5t68.5 120.5t24.5 132.5q0 38 -2 78t-14 72.5t-38.5 53t-75.5 20.5q-15 0 -41 -1t-52 -6t-45 -15t-19 -28q0 -2 3.5 -9t8 -15t8 -15t3.5 -9q0 -3 -9 -12.5t-14 -11.5q-56 -14 -93 -36t-59 -56t-30.5 -82t-8.5 -113zM259 1056q4 22 14 28.5t23 2 t28 -18.5t30.5 -32t29.5 -38l26 -37q1 -2 5 -7.5t7 -8.5q12 -14 11.5 -29t-8 -25t-21 -11.5t-26.5 12.5z" />
<glyph unicode="&#xd3;" horiz-adv-x="715" d="M0 309q0 57 15 115t42 111.5t66 99.5t86.5 80t103 53.5t116.5 19.5t106 -24t75 -64t44.5 -91.5t14.5 -105.5q0 -93 -28 -183.5t-82.5 -162t-135 -115.5t-184.5 -44q-62 0 -107 28t-74.5 73t-43.5 100.5t-14 109.5zM95 284q0 -30 9.5 -63t27.5 -61t45 -46.5t62 -18.5 q74 0 135.5 33.5t105.5 87.5t68.5 120.5t24.5 132.5q0 38 -2 78t-14 72.5t-38.5 53t-75.5 20.5q-15 0 -41 -1t-52 -6t-45 -15t-19 -28q0 -2 3.5 -9t8 -15t8 -15t3.5 -9q0 -3 -9 -12.5t-14 -11.5q-56 -14 -93 -36t-59 -56t-30.5 -82t-8.5 -113zM455 1037l-121 -178 q-13 -15 -26 -13t-20.5 12.5t-8 27t11.5 31.5q3 4 7 10t5 8l25 40q15 22 30.5 41.5t31 34.5t28.5 20t22.5 -2t14.5 -32z" />
<glyph unicode="&#xd4;" horiz-adv-x="715" d="M0 309q0 57 15 115t42 111.5t66 99.5t86.5 80t103 53.5t116.5 19.5t106 -24t75 -64t44.5 -91.5t14.5 -105.5q0 -93 -28 -183.5t-82.5 -162t-135 -115.5t-184.5 -44q-62 0 -107 28t-74.5 73t-43.5 100.5t-14 109.5zM95 284q0 -30 9.5 -63t27.5 -61t45 -46.5t62 -18.5 q74 0 135.5 33.5t105.5 87.5t68.5 120.5t24.5 132.5q0 38 -2 78t-14 72.5t-38.5 53t-75.5 20.5q-15 0 -41 -1t-52 -6t-45 -15t-19 -28q0 -2 3.5 -9t8 -15t8 -15t3.5 -9q0 -3 -9 -12.5t-14 -11.5q-56 -14 -93 -36t-59 -56t-30.5 -82t-8.5 -113zM322 1306q22 -12 45.5 -35.5 t47.5 -53t47 -61.5l44 -63l39 -55q18 -26 31 -40q-1 -2 -7 -8l-13 -14l-16 -16q-8 -7 -12 -10q-3 -1 -5 -1q-3 -1 -6 -1q-5 0 -8 1q-3 0 -5 1q-33 22 -50 52l-34 58q-15 27 -35 46t-57 19q-24 -57 -37 -92.5t-22 -55.5t-16.5 -28t-20.5 -9.5t-34.5 1t-57.5 2.5q0 21 7.5 53 t20 69t30 76t37.5 72t42.5 58t44.5 35z" />
<glyph unicode="&#xd5;" horiz-adv-x="715" d="M0 309q0 57 15 115t42 111.5t66 99.5t86.5 80t103 53.5t116.5 19.5t106 -24t75 -64t44.5 -91.5t14.5 -105.5q0 -93 -28 -183.5t-82.5 -162t-135 -115.5t-184.5 -44q-62 0 -107 28t-74.5 73t-43.5 100.5t-14 109.5zM95 284q0 -30 9.5 -63t27.5 -61t45 -46.5t62 -18.5 q74 0 135.5 33.5t105.5 87.5t68.5 120.5t24.5 132.5q0 38 -2 78t-14 72.5t-38.5 53t-75.5 20.5q-15 0 -41 -1t-52 -6t-45 -15t-19 -28q0 -2 3.5 -9t8 -15t8 -15t3.5 -9q0 -3 -9 -12.5t-14 -11.5q-56 -14 -93 -36t-59 -56t-30.5 -82t-8.5 -113zM54 948q0 37 6.5 77.5 t24.5 74.5t49.5 56t81.5 22q36 0 62 -16t46.5 -40t38.5 -52.5t37.5 -52.5t43.5 -40t57 -16q37 0 54.5 11.5t23 29.5t4 40.5t-2 44t4.5 39t24 27.5h12h11q3 -1 10 -4l14 -7l15 -6q7 -4 10 -6q0 -4 0.5 -12.5t0.5 -18t0.5 -18t0.5 -11.5q0 -97 -51.5 -152t-146.5 -55 q-37 0 -63.5 14.5t-47 36.5t-37.5 48t-34.5 48t-38 36.5t-48.5 14.5q-35 0 -50.5 -13.5t-21 -34.5t-5.5 -47t-3 -50t-13.5 -43.5t-36.5 -28.5l-25 23q-1 3 -2 13.5t-2 23.5l-2 24q-1 13 -1 20z" />
<glyph unicode="&#xd6;" horiz-adv-x="715" d="M0 309q0 57 15 115t42 111.5t66 99.5t86.5 80t103 53.5t116.5 19.5t106 -24t75 -64t44.5 -91.5t14.5 -105.5q0 -93 -28 -183.5t-82.5 -162t-135 -115.5t-184.5 -44q-62 0 -107 28t-74.5 73t-43.5 100.5t-14 109.5zM95 284q0 -30 9.5 -63t27.5 -61t45 -46.5t62 -18.5 q74 0 135.5 33.5t105.5 87.5t68.5 120.5t24.5 132.5q0 38 -2 78t-14 72.5t-38.5 53t-75.5 20.5q-15 0 -41 -1t-52 -6t-45 -15t-19 -28q0 -2 3.5 -9t8 -15t8 -15t3.5 -9q0 -3 -9 -12.5t-14 -11.5q-56 -14 -93 -36t-59 -56t-30.5 -82t-8.5 -113zM275 1087q50 0 50 -52 q-13 -32 -31 -43t-35 -8t-29.5 16.5t-13.5 30t12 32.5t47 24zM527 1087q50 0 50 -52q-13 -32 -31 -43t-35 -8t-29.5 16.5t-13.5 30t12 32.5t47 24z" />
<glyph unicode="&#xd7;" horiz-adv-x="540" d="M117 515v2q0 3 1 4q3 11 14.5 12t24.5 -4q1 0 7 -2q3 -1 5 -2l81 -94q34 21 54.5 32.5t31.5 16t16 4.5t7 -1q10 -2 24 -7t14 -17q-30 -13 -54 -28t-50 -44q12 -12 27.5 -31.5t32 -42.5t31 -46.5t23.5 -42.5t10 -31.5t-10 -12.5q-14 -7 -19 -10.5t-8 -1t-7 13t-15.5 32 t-33.5 54.5t-60 82l-46 -136q-1 -1 -10 -3l-15 -2q-2 0 -4 1h-3q-1 0 -1 1q-1 0 -2 0.5t-3 0.5t-3 1q-3 4 -7.5 9.5t-4.5 6.5l45 156z" />
<glyph unicode="&#xd8;" horiz-adv-x="715" d="M0 309q0 57 15 115t42 111.5t66 99.5t86.5 80t103 53.5t116.5 19.5t106 -24t75 -64t44.5 -91.5t14.5 -105.5q0 -93 -28 -183.5t-82.5 -162t-135 -115.5t-184.5 -44q-62 0 -107 28t-74.5 73t-43.5 100.5t-14 109.5zM95 284q0 -30 9.5 -63t27.5 -61t45 -46.5t62 -18.5 q74 0 135.5 33.5t105.5 87.5t68.5 120.5t24.5 132.5q0 38 -2 78t-14 72.5t-38.5 53t-75.5 20.5q-15 0 -41 -1t-52 -6t-45 -15t-19 -28q0 -2 3.5 -9t8 -15t8 -15t3.5 -9q0 -3 -9 -12.5t-14 -11.5q-56 -14 -93 -36t-59 -56t-30.5 -82t-8.5 -113zM218 6l6 35q4 25 9 53l8 52 q3 24 5 34l20 106.5t32.5 146.5t44.5 157t55.5 139t66.5 92t78 16q-14 -77 -34.5 -146t-43.5 -134l-47 -129q-24 -64 -46.5 -130.5t-41 -138.5t-29.5 -153q-4 -39 -17 -45.5t-30 -0.5q-13 5 -23 13t-13 33z" />
<glyph unicode="&#xd9;" horiz-adv-x="690" d="M48 762q18 -13 29 -32.5t18 -39.5q1 -42 1 -101t4 -122.5t16.5 -126t38.5 -112.5t70 -80.5t111 -30.5q61 0 105 28.5t73 73t43 99.5t14 108q0 101 -10 206t-37 202q8 20 20.5 23t26.5 3q29 0 45.5 -23.5t25 -59.5t10 -78.5t0 -81t-4 -68t-2.5 -37.5q0 -58 -3 -117 t-13.5 -113.5t-31 -102t-55 -82.5t-85.5 -55t-123 -20q-89 0 -147 34.5t-93 92t-52 130.5t-24.5 150t-10 151.5t-7.5 134.5zM247 1056q4 22 14 28.5t23 2t28 -18.5t30.5 -32t29.5 -38l26 -37q1 -2 5 -7.5t7 -8.5q12 -14 11.5 -29t-8 -25t-21 -11.5t-26.5 12.5z" />
<glyph unicode="&#xda;" horiz-adv-x="690" d="M48 762q18 -13 29 -32.5t18 -39.5q1 -42 1 -101t4 -122.5t16.5 -126t38.5 -112.5t70 -80.5t111 -30.5q61 0 105 28.5t73 73t43 99.5t14 108q0 101 -10 206t-37 202q8 20 20.5 23t26.5 3q29 0 45.5 -23.5t25 -59.5t10 -78.5t0 -81t-4 -68t-2.5 -37.5q0 -58 -3 -117 t-13.5 -113.5t-31 -102t-55 -82.5t-85.5 -55t-123 -20q-89 0 -147 34.5t-93 92t-52 130.5t-24.5 150t-10 151.5t-7.5 134.5zM443 1037l-121 -178q-13 -15 -26 -13t-20.5 12.5t-8 27t11.5 31.5q3 4 7 10t5 8l25 40q15 22 30.5 41.5t31 34.5t28.5 20t22.5 -2t14.5 -32z" />
<glyph unicode="&#xdb;" horiz-adv-x="690" d="M48 762q18 -13 29 -32.5t18 -39.5q1 -42 1 -101t4 -122.5t16.5 -126t38.5 -112.5t70 -80.5t111 -30.5q61 0 105 28.5t73 73t43 99.5t14 108q0 101 -10 206t-37 202q8 20 20.5 23t26.5 3q29 0 45.5 -23.5t25 -59.5t10 -78.5t0 -81t-4 -68t-2.5 -37.5q0 -58 -3 -117 t-13.5 -113.5t-31 -102t-55 -82.5t-85.5 -55t-123 -20q-89 0 -147 34.5t-93 92t-52 130.5t-24.5 150t-10 151.5t-7.5 134.5zM309 1306q22 -12 45.5 -35.5t47.5 -53t47 -61.5l44 -63l39 -55q18 -26 31 -40q-1 -2 -7 -8l-14 -14l-15 -16q-8 -7 -12 -10q-3 -1 -5 -1 q-3 -1 -6 -1q-5 0 -8 1q-3 0 -5 1q-33 22 -51 52l-32 58q-16 27 -36 46t-57 19q-24 -57 -37 -92.5t-22 -55.5t-16.5 -28t-20.5 -9.5t-34.5 1t-57.5 2.5q0 21 7.5 53t20 69t30 76t37.5 72t42.5 58t44.5 35z" />
<glyph unicode="&#xdc;" horiz-adv-x="690" d="M48 762q18 -13 29 -32.5t18 -39.5q1 -42 1 -101t4 -122.5t16.5 -126t38.5 -112.5t70 -80.5t111 -30.5q61 0 105 28.5t73 73t43 99.5t14 108q0 101 -10 206t-37 202q8 20 20.5 23t26.5 3q29 0 45.5 -23.5t25 -59.5t10 -78.5t0 -81t-4 -68t-2.5 -37.5q0 -58 -3 -117 t-13.5 -113.5t-31 -102t-55 -82.5t-85.5 -55t-123 -20q-89 0 -147 34.5t-93 92t-52 130.5t-24.5 150t-10 151.5t-7.5 134.5zM263 1087q50 0 50 -52q-13 -32 -31 -43t-35 -8t-29.5 16.5t-13.5 30t12 32.5t47 24zM515 1087q50 0 50 -52q-13 -32 -31 -43t-35 -8t-29.5 16.5 t-13.5 30t12 32.5t47 24z" />
<glyph unicode="&#xdd;" horiz-adv-x="715" d="M372 542q-43 9 -86.5 40t-83 75.5t-74.5 99t-60.5 110t-40 108t-14.5 93.5q0 5 0.5 13t2.5 15t7.5 12t14.5 5q27 0 47.5 -19.5t37 -51.5t31.5 -73l29 -83q15 -43 31.5 -84t37 -73t47 -51.5t61.5 -19.5q2 0 6 1t6 1q31 28 56 74t46.5 99.5t41.5 110t41.5 105.5t45.5 85.5 t55 50.5l47 -49q9 -8 3 -35.5t-21 -68t-37 -90.5l-46 -102l-50 -106l-43.5 -99.5t-31.5 -83.5t-12 -58q0 -66 19 -128.5t41.5 -124t41.5 -123.5t19 -126v-23q0 -14 -4 -26t-14.5 -18.5t-30.5 -1.5q-41 60 -72.5 136t-53.5 158.5t-32.5 166.5t-8.5 159zM477 1361l-121 -178 q-13 -15 -26 -13t-20.5 12.5t-8 27t11.5 31.5q3 4 7 10t5 8l25 40q15 22 30.5 41.5t31 34.5t28.5 20t22.5 -2t14.5 -32z" />
<glyph unicode="&#xde;" horiz-adv-x="641" d="M98 311q0 4 -2 30l-7 65l-9 89l-11 101l-11 100q-6 50 -10 89l-6 66q-3 26 -3 30q11 21 35.5 40t50.5 19q11 -59 15 -103.5t5 -80.5t0.5 -67.5t1.5 -64.5t9 -71t22 -88q2 27 2.5 58.5t5.5 64t16.5 63t33.5 53.5t57 36.5t88 12.5q48 0 86.5 -18t64.5 -48.5t40 -71.5 t14 -86q0 -61 -30.5 -119.5t-79.5 -105t-110.5 -75t-124.5 -28.5q-4 0 -4.5 -14t0 -34.5t2 -45t2.5 -45t0.5 -34t-3.5 -12.5q-5 1 -21.5 0t-35 -1.5t-34.5 -1t-20 2.5zM393 655q-22 -11 -46 -27.5t-44.5 -51.5t-35 -95t-17.5 -159q2 0 11 -1.5t12 -1.5q30 0 69 18.5t75 47 t63 62.5t32 65q3 19 -8 43.5t-29 46.5t-40.5 37.5t-41.5 15.5z" />
<glyph unicode="&#xdf;" horiz-adv-x="671" d="M121 -176q-13 2 -24 40t-20 101t-16 144t-12 168.5t-8 175t-4 162.5t0.5 131.5t4.5 82.5q16 65 52.5 100.5t81.5 47t94 1.5t91 -36.5t72 -66.5t36.5 -88.5t-15 -103.5t-81.5 -110l85 -29q44 -15 81 -36.5t60.5 -51.5t23.5 -75q0 -30 -14.5 -63t-39.5 -67t-57 -67.5 t-66.5 -62.5t-69.5 -52.5t-65 -38.5l-20 143l40 27l50 37l53 41q27 21 48.5 40.5t34.5 36t13 26.5q0 48 -27.5 78.5t-69.5 39.5t-92 -5t-95 -53l-4 116q52 40 81.5 89t37.5 95.5t-4 84.5t-42.5 55.5t-78 9t-109.5 -54.5q7 -49 5 -107.5t-5 -128t-3.5 -151t7.5 -175t29 -200 t62 -226.5z" />
<glyph unicode="&#xe0;" horiz-adv-x="690" d="M500 143l-72 -51q-31 -23 -60 -38.5t-62 -23.5t-80 -8q-104 0 -154 55t-50 164q0 42 11.5 88t33 91t51.5 85.5t67.5 71.5t80.5 49.5t91 18.5q80 -8 125.5 -40t69 -81t32 -110t13.5 -125.5t13 -128.5t32 -119q-14 -37 -27 -52t-28.5 -4.5t-36 49t-50.5 109.5zM117 239 q0 -63 24 -92.5t85 -29.5q45 0 86.5 16t73 44.5t50.5 68.5t19 88q0 20 1 56.5t-4.5 72t-21 61.5t-47.5 26q-57 0 -106 -29.5t-84.5 -75t-55.5 -100.5t-20 -106zM242 888q4 22 14 28.5t23 2t28 -18.5t30.5 -32t29.5 -38l26 -37q1 -2 5 -7.5t7 -8.5q12 -14 11.5 -29t-8 -25 t-21 -11.5t-26.5 12.5z" />
<glyph unicode="&#xe1;" horiz-adv-x="690" d="M500 143l-72 -51q-31 -23 -60 -38.5t-62 -23.5t-80 -8q-104 0 -154 55t-50 164q0 42 11.5 88t33 91t51.5 85.5t67.5 71.5t80.5 49.5t91 18.5q80 -8 125.5 -40t69 -81t32 -110t13.5 -125.5t13 -128.5t32 -119q-14 -37 -27 -52t-28.5 -4.5t-36 49t-50.5 109.5zM117 239 q0 -63 24 -92.5t85 -29.5q45 0 86.5 16t73 44.5t50.5 68.5t19 88q0 20 1 56.5t-4.5 72t-21 61.5t-47.5 26q-57 0 -106 -29.5t-84.5 -75t-55.5 -100.5t-20 -106zM438 921l-121 -178q-13 -15 -26 -13t-20.5 12.5t-8 27t11.5 31.5q3 4 7 10t5 8l26 40q14 22 29.5 41.5t31 34.5 t28.5 20t22.5 -2t14.5 -32z" />
<glyph unicode="&#xe2;" horiz-adv-x="690" d="M500 143l-72 -51q-31 -23 -60 -38.5t-62 -23.5t-80 -8q-104 0 -154 55t-50 164q0 42 11.5 88t33 91t51.5 85.5t67.5 71.5t80.5 49.5t91 18.5q80 -8 125.5 -40t69 -81t32 -110t13.5 -125.5t13 -128.5t32 -119q-14 -37 -27 -52t-28.5 -4.5t-36 49t-50.5 109.5zM117 239 q0 -63 24 -92.5t85 -29.5q45 0 86.5 16t73 44.5t50.5 68.5t19 88q0 20 1 56.5t-4.5 72t-21 61.5t-47.5 26q-57 0 -106 -29.5t-84.5 -75t-55.5 -100.5t-20 -106zM309 1091q22 -12 45.5 -35.5t47.5 -53t47 -62.5l44 -62l39 -56q18 -25 31 -39q-1 -2 -7 -9l-14 -14l-15 -14 q-8 -8 -12 -11q-3 -1 -5 -1q-3 -1 -6 -1q-5 0 -8 1q-3 0 -5 1q-33 22 -51 53l-32 57q-16 27 -36 46t-57 19q-24 -57 -37 -92.5t-22 -55.5t-16.5 -28t-20.5 -9.5t-34.5 1t-57.5 2.5q0 21 7.5 53t20 69t30 76t37.5 72t42.5 58t44.5 35z" />
<glyph unicode="&#xe3;" horiz-adv-x="690" d="M500 143l-72 -51q-31 -23 -60 -38.5t-62 -23.5t-80 -8q-104 0 -154 55t-50 164q0 42 11.5 88t33 91t51.5 85.5t67.5 71.5t80.5 49.5t91 18.5q80 -8 125.5 -40t69 -81t32 -110t13.5 -125.5t13 -128.5t32 -119q-14 -37 -27 -52t-28.5 -4.5t-36 49t-50.5 109.5zM117 239 q0 -63 24 -92.5t85 -29.5q45 0 86.5 16t73 44.5t50.5 68.5t19 88q0 20 1 56.5t-4.5 72t-21 61.5t-47.5 26q-57 0 -106 -29.5t-84.5 -75t-55.5 -100.5t-20 -106zM41 758q0 37 6.5 77.5t24.5 74.5t49.5 56t81.5 22q36 0 62 -16t46.5 -40t38.5 -52.5t37.5 -52.5t43.5 -40 t57 -16q37 0 54.5 11.5t23 29.5t4 40.5t-2 44t4.5 39t24 27.5h12h11q3 -1 10 -4l15 -7l14 -6q7 -4 10 -6q0 -4 0.5 -12.5t0.5 -18t0.5 -18t0.5 -11.5q0 -97 -51.5 -152t-146.5 -55q-37 0 -63.5 14.5t-47 36.5t-37.5 48t-34.5 48t-38 36.5t-48.5 14.5q-35 0 -50.5 -13.5 t-21 -34.5t-5.5 -47t-3 -50t-13.5 -43.5t-36.5 -28.5l-25 23q-1 3 -2 13.5t-2 23.5l-2 24q-1 13 -1 20z" />
<glyph unicode="&#xe4;" horiz-adv-x="690" d="M500 143l-72 -51q-31 -23 -60 -38.5t-62 -23.5t-80 -8q-104 0 -154 55t-50 164q0 42 11.5 88t33 91t51.5 85.5t67.5 71.5t80.5 49.5t91 18.5q80 -8 125.5 -40t69 -81t32 -110t13.5 -125.5t13 -128.5t32 -119q-14 -37 -27 -52t-28.5 -4.5t-36 49t-50.5 109.5zM117 239 q0 -63 24 -92.5t85 -29.5q45 0 86.5 16t73 44.5t50.5 68.5t19 88q0 20 1 56.5t-4.5 72t-21 61.5t-47.5 26q-57 0 -106 -29.5t-84.5 -75t-55.5 -100.5t-20 -106zM263 872q50 0 50 -52q-13 -32 -31 -43t-35 -8t-29.5 16.5t-13.5 30t12 32.5t47 24zM515 872q50 0 50 -52 q-13 -32 -31 -43t-35 -8t-29.5 16.5t-13.5 30t12 32.5t47 24z" />
<glyph unicode="&#xe5;" horiz-adv-x="690" d="M500 143l-72 -51q-31 -23 -60 -38.5t-62 -23.5t-80 -8q-104 0 -154 55t-50 164q0 42 11.5 88t33 91t51.5 85.5t67.5 71.5t80.5 49.5t91 18.5q80 -8 125.5 -40t69 -81t32 -110t13.5 -125.5t13 -128.5t32 -119q-14 -37 -27 -52t-28.5 -4.5t-36 49t-50.5 109.5zM117 239 q0 -63 24 -92.5t85 -29.5q45 0 86.5 16t73 44.5t50.5 68.5t19 88q0 20 1 56.5t-4.5 72t-21 61.5t-47.5 26q-57 0 -106 -29.5t-84.5 -75t-55.5 -100.5t-20 -106zM180 754q0 39 19.5 72t51 57t72 37.5t81.5 13.5q22 0 40 -13.5t30 -33t18.5 -41.5t6.5 -39q0 -35 -18 -67.5 t-47 -58t-65.5 -41t-72.5 -15.5q-32 0 -54 10t-36 27.5t-20 41t-6 50.5zM263 752q0 -16 1 -27.5t5.5 -19t15 -11.5t30.5 -4q49 0 79 27t30 72q0 10 -2.5 23.5t-7.5 26t-14.5 21t-22.5 8.5q-18 0 -38 -13t-37 -31.5t-28 -38.5t-11 -33z" />
<glyph unicode="&#xe6;" horiz-adv-x="1117" d="M500 143l-73 -51q-30 -23 -59 -38.5t-62 -23.5t-80 -8q-104 0 -154 55t-50 164q0 42 11.5 88t33 91t51.5 85.5t67.5 71.5t80.5 49.5t91 18.5q53 -5 90.5 -21.5t63 -41.5t40.5 -58t24 -71q13 38 34.5 71t51 58t68.5 39t87 14q41 0 72.5 -15t52.5 -39.5t31.5 -57.5 t10.5 -69q0 -56 -26.5 -109.5t-70.5 -94t-100 -61t-115 -9.5q1 -32 21.5 -51.5t49.5 -29.5t60.5 -13t54.5 -3q25 0 48 4.5t45 10t44.5 10t47.5 4.5q10 0 20.5 -1t19.5 -5t14.5 -12t5.5 -21q0 -21 -15.5 -35t-39.5 -23.5t-53 -15t-56.5 -8t-50 -3t-33.5 -0.5q-72 0 -129 21.5 t-95 63.5q4 -16 12 -32q-14 -37 -27 -52t-28.5 -4.5t-36 49t-50.5 109.5zM117 239q0 -63 24 -92.5t85 -29.5q45 0 86.5 16t73 44.5t50.5 68.5t19 88q0 20 1 56.5t-4.5 72t-21 61.5t-47.5 26q-57 0 -106 -29.5t-84.5 -75t-55.5 -100.5t-20 -106zM669 371q0 -20 2 -34t8.5 -23 t18.5 -13t32 -4q29 0 57 10.5t50.5 29t36.5 44.5t14 56q0 16 -3.5 34t-11.5 33t-22.5 24.5t-36.5 9.5q-34 0 -61 -15t-45.5 -39t-28.5 -53.5t-10 -59.5z" />
<glyph unicode="&#xe7;" horiz-adv-x="524" d="M256 -393q17 12 42 28l52 33q27 17 51 35t37.5 35.5t14 34t-20.5 29.5q-35 0 -68 -1.5t-62.5 0t-53.5 9.5t-41.5 27t-27.5 52t-10 85q-1 23 0 38q-40 18 -71.5 56.5t-53 85t-33 94.5t-11.5 86q0 47 20.5 98t55 93t79.5 69.5t95 27.5q26 0 51.5 -9t46 -25.5t33 -40 t12.5 -51.5q-20 0 -36 4.5t-31.5 10.5t-30.5 10.5t-33 4.5q-45 0 -73.5 -23t-45 -57.5t-22.5 -74t-6 -73.5v-22l1 -32l1 -33q1 -15 2 -21q12 -27 23.5 -41.5t25 -21.5t29 -8.5t36.5 -1.5q29 0 51 8.5t40.5 21t35.5 27.5t35 27.5t40 21t50 8.5q0 -48 -16 -88t-45 -69.5 t-68.5 -47.5t-86.5 -24q5 -17 -5 -30q0 -35 12.5 -52.5t33 -24t46.5 -5.5t53 3t53 1.5t46.5 -10t33 -31.5t12.5 -63q0 -18 -12.5 -42t-33 -50t-47.5 -51t-56 -45t-58 -32.5t-53 -12.5q-23 0 -30.5 16t-7.5 34z" />
<glyph unicode="&#xe8;" horiz-adv-x="620" d="M22 309q0 60 14.5 120t46.5 108t82.5 78t122.5 30q41 0 72 -15t52 -39.5t32 -57.5t11 -69q0 -56 -26.5 -109.5t-70.5 -94t-100.5 -61t-115.5 -9.5q1 -32 21.5 -51.5t49.5 -29.5t60.5 -13t55.5 -3q25 0 47.5 4.5t44.5 10t45 10t48 4.5q10 0 20.5 -1t19 -5t14 -12t5.5 -21 q0 -21 -15.5 -35t-39 -23.5t-52.5 -15t-56.5 -8t-50 -3t-33.5 -0.5q-72 0 -128.5 22.5t-95.5 63t-59.5 98t-20.5 127.5zM140 381q0 -39 10.5 -56.5t51.5 -17.5q29 0 57 10.5t50.5 29.5t36 44.5t13.5 55.5q0 16 -3 34t-11.5 33t-22.5 24.5t-36 9.5q-34 0 -61 -15t-46 -39 t-29 -53.5t-10 -59.5zM212 841q4 22 14 28.5t23 2t28 -18.5t30.5 -32t29.5 -38l26 -37q1 -2 5 -7.5t7 -8.5q12 -14 11.5 -29t-8 -25t-21 -11.5t-26.5 12.5z" />
<glyph unicode="&#xe9;" horiz-adv-x="620" d="M22 309q0 60 14.5 120t46.5 108t82.5 78t122.5 30q41 0 72 -15t52 -39.5t32 -57.5t11 -69q0 -56 -26.5 -109.5t-70.5 -94t-100.5 -61t-115.5 -9.5q1 -32 21.5 -51.5t49.5 -29.5t60.5 -13t55.5 -3q25 0 47.5 4.5t44.5 10t45 10t48 4.5q10 0 20.5 -1t19 -5t14 -12t5.5 -21 q0 -21 -15.5 -35t-39 -23.5t-52.5 -15t-56.5 -8t-50 -3t-33.5 -0.5q-72 0 -128.5 22.5t-95.5 63t-59.5 98t-20.5 127.5zM140 381q0 -39 10.5 -56.5t51.5 -17.5q29 0 57 10.5t50.5 29.5t36 44.5t13.5 55.5q0 16 -3 34t-11.5 33t-22.5 24.5t-36 9.5q-34 0 -61 -15t-46 -39 t-29 -53.5t-10 -59.5zM319 848l-121 -178q-13 -15 -26 -13t-20.5 12.5t-8 27t11.5 31.5q3 4 7 10t5 8l25 40q15 22 30.5 41.5t31 34.5t28.5 20t22.5 -2t14.5 -32z" />
<glyph unicode="&#xea;" horiz-adv-x="620" d="M22 309q0 60 14.5 120t46.5 108t82.5 78t122.5 30q41 0 72 -15t52 -39.5t32 -57.5t11 -69q0 -56 -26.5 -109.5t-70.5 -94t-100.5 -61t-115.5 -9.5q1 -32 21.5 -51.5t49.5 -29.5t60.5 -13t55.5 -3q25 0 47.5 4.5t44.5 10t45 10t48 4.5q10 0 20.5 -1t19 -5t14 -12t5.5 -21 q0 -21 -15.5 -35t-39 -23.5t-52.5 -15t-56.5 -8t-50 -3t-33.5 -0.5q-72 0 -128.5 22.5t-95.5 63t-59.5 98t-20.5 127.5zM140 381q0 -39 10.5 -56.5t51.5 -17.5q29 0 57 10.5t50.5 29.5t36 44.5t13.5 55.5q0 16 -3 34t-11.5 33t-22.5 24.5t-36 9.5q-34 0 -61 -15t-46 -39 t-29 -53.5t-10 -59.5zM273 1091q22 -12 45.5 -35.5t47.5 -53t47 -62.5l44 -62l39 -56q18 -25 31 -39q-1 -2 -7 -9l-14 -14l-15 -14q-8 -8 -12 -11q-3 -1 -5 -1q-3 -1 -6 -1q-5 0 -8 1q-3 0 -5 1q-33 22 -51 53l-32 57q-16 27 -36 46t-57 19q-24 -57 -37 -92.5t-22 -55.5 t-16.5 -28t-20.5 -9.5t-34.5 1t-57.5 2.5q0 21 7.5 53t20 69t30 76t37.5 72t42.5 58t44.5 35z" />
<glyph unicode="&#xeb;" horiz-adv-x="620" d="M22 309q0 60 14.5 120t46.5 108t82.5 78t122.5 30q41 0 72 -15t52 -39.5t32 -57.5t11 -69q0 -56 -26.5 -109.5t-70.5 -94t-100.5 -61t-115.5 -9.5q1 -32 21.5 -51.5t49.5 -29.5t60.5 -13t55.5 -3q25 0 47.5 4.5t44.5 10t45 10t48 4.5q10 0 20.5 -1t19 -5t14 -12t5.5 -21 q0 -21 -15.5 -35t-39 -23.5t-52.5 -15t-56.5 -8t-50 -3t-33.5 -0.5q-72 0 -128.5 22.5t-95.5 63t-59.5 98t-20.5 127.5zM140 381q0 -39 10.5 -56.5t51.5 -17.5q29 0 57 10.5t50.5 29.5t36 44.5t13.5 55.5q0 16 -3 34t-11.5 33t-22.5 24.5t-36 9.5q-34 0 -61 -15t-46 -39 t-29 -53.5t-10 -59.5zM160 831q50 0 50 -52q-13 -32 -31 -43t-35 -8t-29.5 16.5t-13.5 30t12 32.5t47 24zM412 831q50 0 50 -52q-13 -32 -31 -43t-35 -8t-29.5 16.5t-13.5 30t12 32.5t47 24z" />
<glyph unicode="&#xec;" horiz-adv-x="262" d="M69 417q0 6 0.5 21t0.5 32l2 33v21q12 18 31.5 29t39.5 18q4 -60 19.5 -127.5t33 -136t31.5 -135t14 -124.5q0 -50 -51 -50q-31 0 -52 25.5t-34 65t-20.5 88t-10.5 95t-3.5 85.5t-0.5 60zM34 841q4 22 14 28.5t23 2t28 -18.5t30.5 -32t29.5 -38l26 -37q1 -2 5 -7.5 t7 -8.5q12 -14 11.5 -29t-8 -25t-21 -11.5t-26.5 12.5z" />
<glyph unicode="&#xed;" horiz-adv-x="262" d="M69 417q0 -21 0.5 -60t3.5 -85.5t10.5 -95t20.5 -88t34 -65t52 -25.5q51 0 51 50q0 58 -14 124.5t-31.5 135t-33 136t-19.5 127.5q-20 -7 -39.5 -18t-31.5 -29q0 -6 -1 -22l-1 -32q0 -17 -0.5 -32t-0.5 -21zM229 822l-121 -178q-13 -15 -26 -13t-20.5 12.5t-8 27 t11.5 31.5q3 4 7 10t5 8l25 40q15 22 30.5 41.5t31 34.5t28.5 20t23 -2t14 -32z" />
<glyph unicode="&#xee;" horiz-adv-x="262" d="M69 417q0 6 0.5 21t0.5 32l2 33v21q12 18 31.5 29t39.5 18q4 -60 19.5 -127.5t33 -136t31.5 -135t14 -124.5q0 -50 -51 -50q-31 0 -52 25.5t-34 65t-20.5 88t-10.5 95t-3.5 85.5t-0.5 60zM95 1091q22 -12 45.5 -35.5t47.5 -53t47 -62.5l44 -62l39 -56q18 -25 31 -39 q-1 -2 -7 -9l-14 -14l-15 -15q-8 -7 -12 -10q-3 -1 -5 -1q-3 -1 -6 -1q-4 0 -7 1q-3 0 -5 1q-33 22 -51 52l-33 58q-15 27 -35 46t-58 19q-24 -57 -37 -92.5t-22 -55.5t-16.5 -28t-20.5 -9.5t-34.5 1t-57.5 2.5q0 21 7.5 53t20 69t30 76t37.5 72t42.5 58t44.5 35z" />
<glyph unicode="&#xef;" horiz-adv-x="262" d="M69 417q0 6 0.5 21t0.5 32l2 33v21q12 18 31.5 29t39.5 18q4 -60 19.5 -127.5t33 -136t31.5 -135t14 -124.5q0 -50 -51 -50q-31 0 -52 25.5t-34 65t-20.5 88t-10.5 95t-3.5 85.5t-0.5 60zM-4 836q50 0 50 -52q-13 -32 -31 -43t-35 -8t-29.5 16.5t-13.5 30t12 32.5t47 24z M248 836q50 0 50 -52q-13 -32 -31 -43t-35 -8t-29.5 16.5t-13.5 30t12 32.5t47 24z" />
<glyph unicode="&#xf0;" horiz-adv-x="524" d="M547 609q0 -23 -9.5 -39t-40.5 -14h-37q8 -53 13 -108t8 -102.5t4 -84t1 -52.5q0 -7 -0.5 -21.5t-0.5 -31t-0.5 -31.5t-0.5 -21q-15 -33 -29.5 -52t-31 -29t-36.5 -13t-46 -3q-54 0 -105.5 25.5t-92.5 66.5t-66 94t-25 108q0 69 33 111t105 42q24 0 46.5 -7t44 -15 t43 -15t43.5 -7q0 3 1 8.5t2 12.5l2 12q1 6 0 9l-9 39l-17 68q-60 3 -118 15.5t-96 40.5q0 28 8 33.5t28 5.5q23 5 65 4t93 -5q-9 35 -15 62l-8 36v23q2 4 11 13t12 11q2 0 5 1q2 0 4 0.5t3 0.5q18 0 33.5 -12t28.5 -33t23.5 -50t18.5 -62q32 -3 59 -5t44 -2q0 -3 1 -13 t1 -14zM374 220q0 30 -12.5 52.5t-33.5 37t-47.5 21.5t-54.5 7h-31q-15 0 -27 -4t-19 -14.5t-7 -30.5q0 -26 17.5 -58.5t43.5 -61t56 -48t56 -19.5q19 0 30.5 14t18 33t8.5 39t2 32z" />
<glyph unicode="&#xf1;" horiz-adv-x="643" d="M22 374q0 29 14.5 42t46.5 13h12q3 -18 7.5 -41.5t13 -47.5t21 -45t30.5 -33q1 39 19.5 75t45.5 64.5t60 48t65 26.5h24q54 0 91.5 -24t62.5 -62.5t38.5 -87.5t20.5 -99.5t8.5 -97.5t1.5 -81h-81q-6 67 -16 128q-4 25 -9.5 52t-12 51t-14.5 44.5t-18 34.5q-4 5 -11 13 l-16 15q-7 8 -13.5 13.5t-8.5 5.5q-33 9 -57.5 -12.5t-43 -58.5t-30.5 -83.5t-19.5 -89t-11 -74.5t-4.5 -39q-28 -19 -52.5 -11t-46 34.5t-39 66.5t-32 85t-26.5 91zM8 664q0 37 6.5 77.5t24.5 74.5t49.5 56t81.5 22q36 0 62 -16t46.5 -40t38.5 -52.5t37.5 -52.5t43.5 -40 t57 -16q37 0 54.5 11.5t23 29.5t4 40.5t-2 44t4.5 39t24 27.5h12h11q3 -1 10 -4l14 -7l15 -6q7 -4 10 -6q0 -4 0.5 -12.5t0.5 -18t0.5 -18t0.5 -11.5q0 -97 -51.5 -152t-146.5 -55q-37 0 -63.5 14.5t-47 36.5t-37.5 48t-34.5 48t-38 36.5t-48.5 14.5q-35 0 -50.5 -13.5 t-21 -34.5t-5.5 -47t-3 -50t-13.5 -43.5t-36.5 -28.5l-25 23q-1 3 -2 13.5t-2 23.5l-2 24q-1 13 -1 20z" />
<glyph unicode="&#xf2;" d="M22 226q0 69 32.5 128t85 102t118.5 67.5t134 24.5q38 0 67.5 -24.5t49.5 -59.5t30.5 -74t10.5 -68q0 -62 -30 -120.5t-78 -103.5t-108 -72.5t-120 -27.5q-53 0 -89.5 18t-59 49t-33 72.5t-10.5 88.5zM117 214q0 -28 5 -50t17.5 -37.5t33.5 -23.5t53 -8q41 0 82 22.5 t73.5 57.5t53 77t20.5 82q0 18 -3.5 39t-11.5 39t-22.5 30.5t-36.5 12.5q-20 0 -47 -13.5t-56.5 -34.5t-58 -48t-51.5 -53.5t-37 -51t-14 -40.5zM188 841q4 22 14 28.5t23 2t28 -18.5t30.5 -32t29.5 -38l26 -37q1 -2 5 -7.5t7 -8.5q12 -14 11.5 -29t-8 -25t-21 -11.5 t-26.5 12.5z" />
<glyph unicode="&#xf3;" d="M22 226q0 69 32.5 128t85 102t118.5 67.5t134 24.5q38 0 67.5 -24.5t49.5 -59.5t30.5 -74t10.5 -68q0 -62 -30 -120.5t-78 -103.5t-108 -72.5t-120 -27.5q-53 0 -89.5 18t-59 49t-33 72.5t-10.5 88.5zM117 214q0 -28 5 -50t17.5 -37.5t33.5 -23.5t53 -8q41 0 82 22.5 t73.5 57.5t53 77t20.5 82q0 18 -3.5 39t-11.5 39t-22.5 30.5t-36.5 12.5q-20 0 -47 -13.5t-56.5 -34.5t-58 -48t-51.5 -53.5t-37 -51t-14 -40.5zM384 822l-121 -178q-13 -15 -26 -13t-20.5 12.5t-8 27t11.5 31.5q3 4 7 10t5 8l26 40q14 22 29.5 41.5t31 34.5t28.5 20 t22.5 -2t14.5 -32z" />
<glyph unicode="&#xf4;" d="M22 226q0 69 32.5 128t85 102t118.5 67.5t134 24.5q38 0 67.5 -24.5t49.5 -59.5t30.5 -74t10.5 -68q0 -62 -30 -120.5t-78 -103.5t-108 -72.5t-120 -27.5q-53 0 -89.5 18t-59 49t-33 72.5t-10.5 88.5zM117 214q0 -28 5 -50t17.5 -37.5t33.5 -23.5t53 -8q41 0 82 22.5 t73.5 57.5t53 77t20.5 82q0 18 -3.5 39t-11.5 39t-22.5 30.5t-36.5 12.5q-20 0 -47 -13.5t-56.5 -34.5t-58 -48t-51.5 -53.5t-37 -51t-14 -40.5zM250 977q22 -12 45.5 -35.5t47.5 -53t47 -62.5l44 -62l39 -56q18 -25 31 -39q-1 -2 -7 -9l-13 -14l-16 -14q-8 -8 -12 -11 q-3 -1 -5 -1q-3 -1 -6 -1q-5 0 -8 1q-3 0 -5 1q-33 22 -50 53l-34 57q-15 27 -35 46t-57 19q-24 -57 -37 -92.5t-22 -55.5t-16.5 -28t-20.5 -9.5t-34.5 1t-57.5 2.5q0 21 7.5 53t20 69t30 76t37.5 72t42.5 58t44.5 35z" />
<glyph unicode="&#xf5;" d="M22 226q0 69 32.5 128t85 102t118.5 67.5t134 24.5q38 0 67.5 -24.5t49.5 -59.5t30.5 -74t10.5 -68q0 -62 -30 -120.5t-78 -103.5t-108 -72.5t-120 -27.5q-53 0 -89.5 18t-59 49t-33 72.5t-10.5 88.5zM117 214q0 -28 5 -50t17.5 -37.5t33.5 -23.5t53 -8q41 0 82 22.5 t73.5 57.5t53 77t20.5 82q0 18 -3.5 39t-11.5 39t-22.5 30.5t-36.5 12.5q-20 0 -47 -13.5t-56.5 -34.5t-58 -48t-51.5 -53.5t-37 -51t-14 -40.5zM-38 691q0 37 6.5 77.5t24.5 74.5t49.5 56t81.5 22q36 0 62 -16t46.5 -40t38.5 -52.5t37.5 -52.5t43.5 -40t57 -16 q37 0 54.5 11.5t23 29.5t4 40.5t-2 44t4.5 39t24 27.5h12h11q3 -1 10 -4l14 -6l15 -8q7 -3 10 -5q0 -4 0.5 -12.5t0.5 -18t0.5 -18t0.5 -11.5q0 -97 -51.5 -152t-146.5 -55q-37 0 -63.5 14.5t-47 36.5t-37.5 48t-34.5 48t-38 36.5t-48.5 14.5q-35 0 -50.5 -13.5t-21 -34.5 t-5.5 -47t-3 -50t-13.5 -43.5t-36.5 -28.5l-25 23q-1 3 -2 13.5t-2 22.5l-2 26q-1 12 -1 19z" />
<glyph unicode="&#xf6;" d="M22 226q0 69 32.5 128t85 102t118.5 67.5t134 24.5q38 0 67.5 -24.5t49.5 -59.5t30.5 -74t10.5 -68q0 -62 -30 -120.5t-78 -103.5t-108 -72.5t-120 -27.5q-53 0 -89.5 18t-59 49t-33 72.5t-10.5 88.5zM117 214q0 -28 5 -50t17.5 -37.5t33.5 -23.5t53 -8q41 0 82 22.5 t73.5 57.5t53 77t20.5 82q0 18 -3.5 39t-11.5 39t-22.5 30.5t-36.5 12.5q-20 0 -47 -13.5t-56.5 -34.5t-58 -48t-51.5 -53.5t-37 -51t-14 -40.5zM204 738q50 0 50 -52q-13 -32 -31 -43t-35 -8t-29.5 16.5t-13.5 30t12 32.5t47 24zM456 738q50 0 50 -52q-13 -32 -31 -43 t-35 -8t-29.5 16.5t-13.5 30t12 32.5t47 24z" />
<glyph unicode="&#xf7;" horiz-adv-x="446" d="M159 129q0 36 21.5 55t52.5 27t65 9t59 1q0 -31 -9 -58.5t-26 -48.5t-42.5 -33.5t-58.5 -12.5q-35 0 -48.5 13t-13.5 48zM64 487q0 18 13.5 33.5t32.5 27t40 18.5t35 7q32 0 41 -19t9 -48q0 -21 -9 -36.5t-24 -25.5t-35 -14.5t-42 -4.5q-4 0 -6 1q-3 0 -5 1q-4 1 -11 7 l-15 14l-13.5 15.5t-8.5 10.5q-1 3 -1 6q-1 3 -1 7zM27 333q0 4 1 13t1 11q28 0 71.5 3.5t90 6t89 3t68.5 -4.5q20 0 27.5 -4.5t7.5 -30.5q-33 -22 -73.5 -31.5t-81.5 -12.5t-80.5 -1.5t-70.5 0.5q-31 -2 -40.5 12.5t-9.5 35.5z" />
<glyph unicode="&#xf8;" d="M22 226q0 69 32.5 128t85 102t118.5 67.5t134 24.5q38 0 67.5 -24.5t49.5 -59.5t30.5 -74t10.5 -68q0 -62 -30 -120.5t-78 -103.5t-108 -72.5t-120 -27.5q-53 0 -89.5 18t-59 49t-33 72.5t-10.5 88.5zM117 214q0 -28 5 -50t17.5 -37.5t33.5 -23.5t53 -8q41 0 82 22.5 t73.5 57.5t53 77t20.5 82q0 18 -3.5 39t-11.5 39t-22.5 30.5t-36.5 12.5q-20 0 -47 -13.5t-56.5 -34.5t-58 -48t-51.5 -53.5t-37 -51t-14 -40.5zM131 -47l7 28q5 20 10 43l10 42q4 19 6 27q8 31 23.5 86t38 118t52 126.5t65.5 112t78.5 74t91.5 12.5q-16 -62 -40 -117.5 t-51 -108.5l-56 -104q-28 -51 -54.5 -104.5t-48 -111.5t-34.5 -123q-5 -32 -20.5 -37t-35.5 0q-15 4 -27 10.5t-15 26.5z" />
<glyph unicode="&#xf9;" d="M22 453q0 7 0.5 24t0.5 36t0.5 35.5t0.5 22.5q8 14 18.5 26.5t22.5 17.5t25.5 1.5t28.5 -21.5v-9v-15q-1 -5 -4.5 -26t-8 -45t-8 -45t-3.5 -26q0 -21 4 -52.5t12.5 -66t21.5 -69t30.5 -62t39.5 -45t50 -17.5q36 0 63 18.5t47 48.5t33 68t21 76.5t11 74t3 61.5q0 27 -4 51 t-9.5 47.5t-9.5 46t-4 46.5q0 21 15.5 29.5t33.5 8.5q24 0 38.5 -13.5t22.5 -35t11 -48.5t3 -53.5t-1 -50.5t-1 -39q0 -37 -6 -85t-19.5 -98.5t-34 -99.5t-50 -87t-68 -61.5t-86.5 -23.5q-50 0 -87.5 24t-64 63.5t-44 89t-27 100t-13.5 97.5t-4 81zM182 888q4 22 14 28.5 t23 2t28 -18.5t30.5 -32t29.5 -38l26 -37q1 -2 5 -7.5t7 -8.5q12 -14 11.5 -29t-8 -25t-21 -11.5t-26.5 12.5z" />
<glyph unicode="&#xfa;" d="M22 453q0 7 0.5 24t0.5 36t0.5 35.5t0.5 22.5q8 14 18.5 26.5t22.5 17.5t25.5 1.5t28.5 -21.5v-9v-15q-1 -5 -4.5 -26t-8 -45t-8 -45t-3.5 -26q0 -21 4 -52.5t12.5 -66t21.5 -69t30.5 -62t39.5 -45t50 -17.5q36 0 63 18.5t47 48.5t33 68t21 76.5t11 74t3 61.5q0 27 -4 51 t-9.5 47.5t-9.5 46t-4 46.5q0 21 15.5 29.5t33.5 8.5q24 0 38.5 -13.5t22.5 -35t11 -48.5t3 -53.5t-1 -50.5t-1 -39q0 -37 -6 -85t-19.5 -98.5t-34 -99.5t-50 -87t-68 -61.5t-86.5 -23.5q-50 0 -87.5 24t-64 63.5t-44 89t-27 100t-13.5 97.5t-4 81zM394 910l-121 -178 q-13 -15 -26 -13t-20.5 12.5t-8 27t11.5 31.5q3 4 7 10t5 8l26 40q14 22 29.5 41.5t31 34.5t28.5 20t22.5 -2t14.5 -32z" />
<glyph unicode="&#xfb;" d="M22 453q0 7 0.5 24t0.5 36t0.5 35.5t0.5 22.5q8 14 18.5 26.5t22.5 17.5t25.5 1.5t28.5 -21.5v-9v-15q-1 -5 -4.5 -26t-8 -45t-8 -45t-3.5 -26q0 -21 4 -52.5t12.5 -66t21.5 -69t30.5 -62t39.5 -45t50 -17.5q36 0 63 18.5t47 48.5t33 68t21 76.5t11 74t3 61.5q0 27 -4 51 t-9.5 47.5t-9.5 46t-4 46.5q0 21 15.5 29.5t33.5 8.5q24 0 38.5 -13.5t22.5 -35t11 -48.5t3 -53.5t-1 -50.5t-1 -39q0 -37 -6 -85t-19.5 -98.5t-34 -99.5t-50 -87t-68 -61.5t-86.5 -23.5q-50 0 -87.5 24t-64 63.5t-44 89t-27 100t-13.5 97.5t-4 81zM250 1091 q22 -12 45.5 -35.5t47.5 -53t47 -62.5l44 -62l39 -56q18 -25 31 -39q-1 -2 -7 -9l-13 -14l-16 -14q-8 -8 -12 -11q-3 -1 -5 -1q-3 -1 -6 -1q-5 0 -8 1q-3 0 -5 1q-33 22 -50 53l-34 57q-15 27 -35 46t-57 19q-24 -57 -37 -92.5t-22 -55.5t-16.5 -28t-20.5 -9.5t-34.5 1 t-57.5 2.5q0 21 7.5 53t20 69t30 76t37.5 72t42.5 58t44.5 35z" />
<glyph unicode="&#xfc;" d="M22 453q0 7 0.5 24t0.5 36t0.5 35.5t0.5 22.5q8 14 18.5 26.5t22.5 17.5t25.5 1.5t28.5 -21.5v-9v-15q-1 -5 -4.5 -26t-8 -45t-8 -45t-3.5 -26q0 -21 4 -52.5t12.5 -66t21.5 -69t30.5 -62t39.5 -45t50 -17.5q36 0 63 18.5t47 48.5t33 68t21 76.5t11 74t3 61.5q0 27 -4 51 t-9.5 47.5t-9.5 46t-4 46.5q0 21 15.5 29.5t33.5 8.5q24 0 38.5 -13.5t22.5 -35t11 -48.5t3 -53.5t-1 -50.5t-1 -39q0 -37 -6 -85t-19.5 -98.5t-34 -99.5t-50 -87t-68 -61.5t-86.5 -23.5q-50 0 -87.5 24t-64 63.5t-44 89t-27 100t-13.5 97.5t-4 81zM204 872q50 0 50 -52 q-13 -32 -31 -43t-35 -8t-29.5 16.5t-13.5 30t12 32.5t47 24zM456 872q50 0 50 -52q-13 -32 -31 -43t-35 -8t-29.5 16.5t-13.5 30t12 32.5t47 24z" />
<glyph unicode="&#xfd;" horiz-adv-x="548" d="M3 575q0 10 1 20.5t4.5 19.5t11 14.5t21.5 5.5q1 0 3 -0.5t4 -0.5q3 -1 5 -1q22 -28 37.5 -73t29.5 -96t31 -102.5t43.5 -92.5t65.5 -65.5t97 -21.5q25 0 33 28t8.5 71.5t-2.5 95.5t0 99t17 83t48 48q15 -29 24 -90.5t13.5 -142.5t4.5 -174.5t-4.5 -186.5t-13 -178.5 t-20 -150t-26 -101.5t-31.5 -32q-24 22 -36.5 57.5t-17.5 79t-4 92t4 97.5t6.5 95.5t3.5 85.5q-39 -4 -81 12t-82 48.5t-76 79.5t-63 105.5t-43 127t-16 144.5zM413 884l-121 -178q-13 -15 -26 -13t-20.5 12.5t-8 27t11.5 31.5q3 4 7 10t5 8l25 40q15 22 30.5 41.5t31 34.5 t28.5 20t22.5 -2t14.5 -32z" />
<glyph unicode="&#xfe;" horiz-adv-x="524" d="M22 410q0 14 -1 44q0 30 -1 68l-1 78v77.5t0.5 63.5t2.5 37q3 27 12.5 43.5t22 19t27 -11t27.5 -47.5q3 -7 2 -25t-3.5 -40.5t-4.5 -47t-1.5 -45t4.5 -33.5t15 -13q24 12 59 20t74 9.5t77.5 -6t70.5 -26.5t53 -51t24 -79q0 -61 -26 -113.5t-65.5 -98.5t-86.5 -85l-89 -76 q-2 -4 -3.5 -18t-1.5 -18q0 -37 7 -51t15.5 -24.5t15.5 -28.5t7 -63q0 -26 -12 -32t-46 -6q-29 12 -52 54t-40.5 99.5t-30.5 123.5t-23 126l-16 108q-7 47 -12 68zM117 400q0 -17 2 -48.5t9.5 -62.5t22 -54t39.5 -23q35 0 69.5 23.5t62 59t44.5 76t17 74.5q0 27 -13 43.5 t-33.5 25.5t-44 12t-44.5 3q-63 0 -97 -34t-34 -95z" />
<glyph unicode="&#xff;" horiz-adv-x="548" d="M3 575q0 10 1 20.5t4.5 19.5t11 14.5t21.5 5.5q1 0 3 -0.5t4 -0.5q3 -1 5 -1q22 -28 37.5 -73t29.5 -96t31 -102.5t43.5 -92.5t65.5 -65.5t97 -21.5q25 0 33 28t8.5 71.5t-2.5 95.5t0 99t17 83t48 48q15 -29 24 -90.5t13.5 -142.5t4.5 -174.5t-4.5 -186.5t-13 -178.5 t-20 -150t-26 -101.5t-31.5 -32q-24 22 -36.5 57.5t-17.5 79t-4 92t4 97.5t6.5 95.5t3.5 85.5q-39 -4 -81 12t-82 48.5t-76 79.5t-63 105.5t-43 127t-16 144.5zM193 872q50 0 50 -52q-13 -32 -31 -43t-35 -8t-29.5 16.5t-13.5 30t12 32.5t47 24zM445 872q50 0 50 -52 q-13 -32 -31 -43t-35 -8t-29.5 16.5t-13.5 30t12 32.5t47 24z" />
<glyph unicode="&#x152;" horiz-adv-x="1211" d="M34 290q0 113 18 197.5t48.5 145t70 100.5t83 64.5t87.5 35.5t82.5 15t69 2.5t47.5 -2.5q-2 2 -4 3.5t-4 3.5v4v5q3 16 17 24.5t31 12.5t33.5 4.5t25.5 0.5q2 0 4 -1q4 -2 8 -2q1 0 3 -0.5t4 -0.5q3 -1 5 -1l66 -21l83 -26l89 -28l82 -26l62 -20q24 -8 29 -9q9 -2 22 -8 t25.5 -14.5t23 -19.5t13.5 -23q-12 -16 -21 -24t-16.5 -11t-16.5 -2t-21 3q-46 9 -91 21l-90 26l-92 26q-45 13 -92 22q-4 -21 -16.5 -58.5t-23.5 -81t-15 -87.5t10 -77q21 7 42 8.5t42 -0.5t42 -6.5t42 -8.5l48 -10q28 -6 53 -17.5t40.5 -31t9.5 -49.5q-5 -22 -15.5 -31.5 t-42.5 -3.5q-3 1 -12 7l-20 12q-11 7 -20.5 12.5t-12.5 5.5l-59 15q-25 5 -49 6t-43.5 -5.5t-33 -23t-19.5 -46.5l-6 -30q-4 -20 -7.5 -44t-4.5 -49.5t3 -47t13.5 -37t28.5 -18.5q3 -1 12.5 -1.5t11.5 -0.5q40 17 86 31t94 21.5t97.5 8t96.5 -8.5l-25 -63q-1 -5 -26 -15.5 t-64.5 -22.5t-87.5 -25t-95.5 -22t-89.5 -13t-68 1q-24 5 -41 22.5t-30 43.5q-29 -14 -66 -23t-76.5 -14.5t-78 -8t-70.5 -2.5q-62 0 -106.5 28t-74 73t-43.5 100.5t-14 110.5zM272 76q28 0 63 3.5t70.5 11t69.5 18.5t62 27q-6 56 -5 123t7 135.5t15 135t17.5 123t15.5 98.5 t10 62l-30 -60q-47 0 -97.5 -15.5t-99 -45.5t-92.5 -72.5t-77 -97t-52.5 -119.5t-19.5 -139q0 -30 9.5 -63t27.5 -60.5t44.5 -46t61.5 -18.5z" />
<glyph unicode="&#x153;" horiz-adv-x="1055" d="M22 226q0 69 32.5 128t85 102t118.5 67.5t134 24.5q35 0 62.5 -21t47.5 -52q15 34 36 63.5t49.5 51t65 33.5t81.5 12q41 0 72.5 -15t52.5 -39.5t31.5 -57.5t10.5 -69q0 -56 -26.5 -109.5t-70.5 -94t-100 -61t-115 -9.5q1 -32 21.5 -51.5t49.5 -29.5t60.5 -13t54.5 -3 q25 0 48 4.5t45 10t45 10t48 4.5q10 0 20.5 -1t19 -5t14 -12t5.5 -21q0 -21 -15.5 -35t-39.5 -23.5t-53 -15t-56.5 -8t-50 -3t-33.5 -0.5q-104 0 -175 44.5t-103 124.5q-25 -35 -57 -64t-69 -50t-76 -33t-78 -12q-53 0 -89.5 18t-59 49t-33 72.5t-10.5 88.5zM117 214 q0 -28 5 -50t17.5 -37.5t33.5 -23.5t53 -8q41 0 82 22.5t73.5 57.5t53 77t20.5 82q0 18 -3.5 39t-11.5 39t-22.5 30.5t-36.5 12.5q-20 0 -47 -13.5t-56.5 -34.5t-58 -48t-51.5 -53.5t-37 -51t-14 -40.5zM587 371q0 -20 2 -34t8.5 -23t18.5 -13t32 -4q29 0 57 10.5t50.5 29 t36.5 44.5t14 56q0 16 -3 34t-11.5 33t-23 24.5t-36.5 9.5q-34 0 -61 -15t-45.5 -39t-28.5 -53.5t-10 -59.5z" />
<glyph unicode="&#x178;" horiz-adv-x="715" d="M381 620q-43 9 -86.5 40t-83 75.5t-74.5 99t-60.5 110t-40 108t-14.5 93.5q0 5 0.5 13t2.5 15t7.5 12t14.5 5q27 0 47.5 -19.5t37 -51.5t30.5 -73l30 -83q15 -43 31.5 -84t37 -73t47 -51.5t61.5 -19.5q2 0 6 1t6 1q31 28 56 74t46.5 99.5t41.5 110t41.5 105.5t45.5 85.5 t55 50.5l47 -49q9 -8 3 -35.5t-21 -68t-37 -90.5l-47 -102l-48 -106q-25 -53 -44.5 -99.5t-31.5 -83.5t-12 -58q0 -66 19 -128.5t41.5 -124t41.5 -123.5t19 -126v-23q0 -14 -4 -26t-14.5 -18.5t-30.5 -1.5q-41 60 -72.5 136t-53.5 158.5t-32.5 166.5t-8.5 159zM228 1365 q50 0 50 -52q-13 -32 -31 -43t-35 -8t-29.5 16.5t-13.5 30t12 32.5t47 24zM480 1365q50 0 50 -52q-13 -32 -31 -43t-35 -8t-29.5 16.5t-13.5 30t12 32.5t47 24z" />
<glyph unicode="&#x2c6;" horiz-adv-x="476" d="M212 1091q22 -12 45.5 -35.5t47.5 -53t47 -62.5l44 -62l39 -56q18 -25 31 -39q-1 -2 -7 -9l-14 -14l-15 -15q-8 -7 -12 -10q-3 -1 -5 -1q-3 -1 -6 -1q-5 0 -8 1q-3 0 -5 1q-33 22 -51 52l-33 58q-15 27 -35 46t-57 19q-24 -57 -37 -92.5t-22 -55.5t-16.5 -28t-20.5 -9.5 t-34.5 1t-57.5 2.5q0 21 7.5 53t20 69t30 76t37.5 72t42.5 58t44.5 35z" />
<glyph unicode="&#x2dc;" horiz-adv-x="690" d="M38 571q0 37 6.5 77.5t24.5 74.5t49.5 56t81.5 22q36 0 62 -16t46.5 -40t38.5 -52.5t37.5 -52.5t43.5 -40t57 -16q37 0 54.5 11.5t23 29.5t4 40.5t-2 44t4.5 39t24 27.5h12h11q3 -1 10 -4l15 -7l14 -7q7 -3 10 -5q0 -4 0.5 -12.5t0.5 -18t0.5 -18t0.5 -11.5 q0 -97 -51.5 -152t-146.5 -55q-37 0 -63.5 14.5t-47 36.5t-37.5 48t-34.5 48t-38 36.5t-48.5 14.5q-35 0 -50.5 -13.5t-21 -34.5t-5.5 -47t-3 -50t-13.5 -43.5t-36.5 -28.5l-25 23q-1 3 -2 13.5t-2 22.5l-2 26q-1 12 -1 19z" />
<glyph unicode="&#x2013;" horiz-adv-x="467" d="M85 361q0 4 1 13t1 11q28 0 71.5 3.5t90 6t89 3t68.5 -4.5q20 0 27.5 -4.5t7.5 -30.5q-33 -22 -73.5 -31.5t-81.5 -12.5t-80.5 -1.5t-70.5 0.5q-31 -2 -40.5 12.5t-9.5 35.5z" />
<glyph unicode="&#x2014;" horiz-adv-x="688" d="M85 361q0 4 1 13t1 11q18 0 60 1t94.5 2t111 2t111 1t93 -1.5t57.5 -4.5q20 0 28 -5t8 -30q-22 -15 -63 -23t-91 -12t-105 -4.5t-105 0t-90 1.5t-61 1q-31 -2 -40.5 12.5t-9.5 35.5z" />
<glyph unicode="&#x2018;" horiz-adv-x="167" d="M24 738q0 3 2.5 9.5t6.5 14.5l8 14q3 7 6 10q2 0 5 1q2 0 4 0.5t3 0.5q21 0 37 -14.5t27 -35.5t16.5 -44t5.5 -39q0 -12 -3.5 -31t-11 -36t-19 -29.5t-28.5 -12.5q-18 0 -29 25t-18 57.5t-9.5 64t-2.5 45.5z" />
<glyph unicode="&#x2019;" horiz-adv-x="167" d="M24 738q0 3 2.5 9.5t6.5 14.5l8 14q3 7 6 10q2 0 5 1q2 0 4 0.5t3 0.5q21 0 37 -14.5t27 -35.5t16.5 -44t5.5 -39q0 -12 -3.5 -31t-11 -36t-19 -29.5t-28.5 -12.5q-18 0 -29 25t-18 57.5t-9.5 64t-2.5 45.5z" />
<glyph unicode="&#x201a;" horiz-adv-x="167" d="M26 173q0 3 2.5 9.5t6.5 14.5l8 14q3 7 6 10q2 0 5 1q2 0 4 0.5t3 0.5q21 0 37 -14.5t27 -35.5t16.5 -44t5.5 -39q0 -13 -3.5 -31.5t-11 -36t-19 -29.5t-28.5 -12q-18 0 -29 25t-18 57.5t-9.5 64t-2.5 45.5z" />
<glyph unicode="&#x201c;" horiz-adv-x="404" d="M22 810q0 8 0.5 28.5t0.5 43t0.5 43t0.5 28.5q2 3 11 12.5t12 11.5q2 0 5 1q2 0 4 0.5t3 0.5t3 -0.5t4 -0.5q3 -1 6 -1q1 -1 4.5 -4t7.5 -7t7 -8t4 -5q-5 -54 6.5 -102t26.5 -90l29 -81q14 -38 14 -73q0 -13 -3.5 -28t-11.5 -27.5t-20 -21t-30 -8.5q-26 0 -43 18 t-26 46.5t-12.5 62.5t-4 66t0.5 58t1 37zM214 884q0 13 4.5 25.5t12 22.5t18.5 16.5t24 6.5q15 0 27 -24.5t22 -62t16.5 -81t11.5 -81t7 -63t2 -26.5q0 -48 -52 -48q-19 0 -33.5 20.5t-25 52t-17 70t-10.5 73.5t-5.5 62t-1.5 37z" />
<glyph unicode="&#x201d;" horiz-adv-x="429" d="M-2 596q0 27 12 49t26 44.5t26 47t12 54.5q0 26 -2.5 45t-10 36.5t-22.5 36t-39 43.5q7 20 20.5 23.5t27.5 3.5q25 0 47 -20t38.5 -48.5t26 -59.5t9.5 -53q0 -26 -9.5 -68t-27.5 -82.5t-45 -70t-63 -29.5q-10 0 -15 5.5t-7.5 13t-3 16t-0.5 13.5zM236 616q0 26 8 50 t17 47t17 47t8 50q0 30 -12.5 54t-28 47t-28 47.5t-12.5 56.5q44 0 77 -18t55.5 -47.5t34 -68t11.5 -80.5q0 -26 -4 -65t-16 -75.5t-33.5 -63t-56.5 -26.5q-20 0 -28.5 15t-8.5 30z" />
<glyph unicode="&#x201e;" horiz-adv-x="404" d="M57 233v29q1 20 1 43t0.5 43.5t0.5 28.5q2 3 11.5 12t12.5 11q2 0 5 1q2 0 4 0.5t3 0.5t3 -0.5t4 -0.5q3 -1 6 -1q3 -2 12 -11t11 -12q-5 -55 6.5 -102.5t26.5 -90.5l29 -80q14 -38 14 -73q0 -13 -3.5 -28t-11.5 -27.5t-20.5 -21t-29.5 -8.5q-26 0 -43 18t-26.5 46.5 t-13 62.5t-4 65.5t0.5 57.5t1 37zM250 307q0 13 4 25.5t12 23t18.5 17t24.5 6.5q15 0 27 -25t22 -62t16.5 -80.5t11.5 -81t7 -63t2 -26.5q0 -26 -13.5 -37t-38.5 -11q-19 0 -33.5 20.5t-25 52t-17 69.5t-10.5 73t-5.5 62t-1.5 37z" />
<glyph unicode="&#x2022;" horiz-adv-x="356" d="M79 302q0 24 16.5 45.5t39.5 37.5t48 25t42 9q20 0 32 -7t19 -19t9 -28.5t2 -35.5q0 -30 -11 -51t-29.5 -34.5t-42.5 -19.5t-50 -6h-4q-2 0 -4 1l-6 2q-5 2 -14 10.5t-18 18.5t-16.5 20t-10.5 15q-1 3 -1 7q-1 3 -1 6v4z" />
<glyph unicode="&#x2026;" horiz-adv-x="756" d="M155 90q50 0 50 -52q-13 -32 -31.5 -43t-35 -8t-29 16.5t-14 30t12 32.5t47.5 24zM407 90q50 0 50 -52q-13 -32 -31.5 -43t-35.5 -8t-29.5 16.5t-13.5 30t12.5 32.5t47.5 24zM658 90q51 0 51 -52q-13 -32 -31.5 -43t-35.5 -8t-29.5 16.5t-13.5 30t12 32.5t47 24z" />
<glyph unicode="&#x2039;" horiz-adv-x="476" d="M22 286q0 36 22.5 73t59 72t83 65.5t95 53.5t94.5 36.5t81 13.5q0 -32 -16.5 -58.5t-43 -50t-59.5 -45.5l-64 -43q-32 -21 -60.5 -44t-46.5 -50q-1 -3 -2 -5q-1 -3 -1 -6q0 -4 1 -7t2 -5q2 -2 10.5 -11.5t12.5 -12.5l26 -17l48 -30l57 -36l58 -37l47 -30q20 -13 27 -17 q3 -2 12 -11t11 -12q0 -3 1 -6q0 -2 0.5 -4t0.5 -3t-0.5 -2.5t-0.5 -3.5q-1 -3 -1 -5q-3 -5 -10.5 -13.5t-15 -16t-14 -13t-8.5 -5.5q-18 0 -55 14t-82 37.5t-92.5 53.5t-87 62t-64.5 63t-25 56z" />
<glyph unicode="&#x203a;" horiz-adv-x="500" d="M95 48q0 18 15.5 46.5t39.5 61.5t53 68l55 66l47 56q20 24 28 35q0 2 1.5 6t1.5 6l-2 6q-1 2 -1 5q-2 5 -11 14t-13 11q-7 4 -27 17l-46 30l-57 36l-58 36l-47 30q-20 13 -27 17q-17 11 -23 23t-6 32q30 0 78 -9.5t101.5 -25.5t108 -38.5t98 -48.5t71 -54.5t27.5 -56.5 q0 -2 -1 -6t-1 -7l-30 -36l-45 -55l-54 -65l-55 -64l-47 -54l-31 -35q-17 -19 -27 -32.5t-18.5 -22.5t-19 -13.5t-28.5 -4.5q-5 0 -13.5 0.5t-16.5 3t-14 7.5t-6 15z" />
<glyph unicode="&#x20ac;" horiz-adv-x="788" d="M425 307q28 1 35.5 -8t7.5 -23q0 -17 -13 -26.5t-32.5 -14t-41 -5.5t-38.5 -2q-10 -1 -29 -1h-43q30 -61 87 -97.5t139 -36.5q39 0 66.5 6t51.5 13.5t48.5 13.5t56.5 6q5 0 13 -0.5t15.5 -3t13 -7.5t5.5 -15q0 -27 -14.5 -45t-38 -30t-53.5 -18t-60 -9t-57.5 -3.5 t-46.5 -0.5q-129 0 -212.5 60t-116.5 168q-35 1 -63 1h-43q0 31 25.5 48.5t64.5 25.5q-6 36 -6 76q-32 5 -56.5 16.5t-37.5 34.5l21 15h17h20q12 0 27 1q-1 64 23.5 126.5t72.5 110.5t117 76.5t157 24.5q64 3 104.5 -9.5t60.5 -30.5t19 -37t-20 -28.5t-55.5 -4.5t-88.5 34 q-63 8 -115 -14t-90.5 -60.5t-61.5 -88t-28 -96.5l105 2q53 1 92 3h12q19 0 25 -10t6 -21q0 -18 -8.5 -28t-34.5 -19q-8 0 -26.5 -0.5t-40 -0.5t-40.5 -0.5t-26 -0.5q-11 0 -25.5 -0.5t-30.5 -0.5l2 -4q0 -15 1 -29t3 -28q30 1 59.5 0t54.5 -2l42 -3q17 -1 23 0z" />
<glyph unicode="&#x2122;" horiz-adv-x="1734" d="M781 469q0 13 1 43v65t0.5 64t0.5 42q2 6 4.5 17.5t7.5 23.5q-30 -6 -65.5 -5t-68 -1.5t-57.5 -12.5t-33 -38q-1 -7 -2 -26t-1.5 -40t-1 -39.5t-0.5 -25.5q0 -64 16 -125.5t35.5 -122t35.5 -121t16 -122.5q0 -47 -53 -47q-33 0 -58 44.5t-43 113t-30 150t-19 156t-10 131 t-3 74.5q-4 15 -17 20.5t-28 6t-29.5 -1.5t-21.5 -2q-19 1 -66 4l-100 8l-101 7q-47 4 -66 6q0 2 -1 10.5t-1 12.5q0 15 3 27.5t22 19.5q104 -3 206 0.5t204 9.5l203 11q101 6 204 6q0 -19 -5 -36q35 -5 65.5 -27.5t59 -55t54.5 -71.5l51 -76q25 -38 49.5 -71t50.5 -53 q28 12 43.5 45t25.5 75.5t18 89t22.5 85t38.5 63.5t66 25q50 0 91 -39t73 -99t55 -133t38.5 -141t23 -122.5t7.5 -77.5q0 -10 -1 -21.5t-5.5 -21t-15 -14.5t-29.5 0q-4 1 -11.5 6.5t-15 13t-13.5 15t-7 12.5l-22 121q-11 67 -30 135.5t-46.5 132.5t-68.5 111 q-32 -19 -50.5 -54.5t-30.5 -78t-22.5 -87t-26.5 -81t-41.5 -59.5t-68.5 -23q-30 0 -58.5 19.5t-55 51t-51.5 69.5l-49 76q-24 37 -47 69t-46 51q-9 -34 -14 -60t-8 -50.5t-3.5 -50t-0.5 -56.5q0 -47 8 -93t17 -91.5t17 -92t8 -92.5v-9q-2 -4 -9 -11l-14 -15 q-7 -7 -14.5 -13.5t-10.5 -8.5q-2 -1 -5 -1q-3 -1 -7 -1q-2 0 -6 1t-6 1q-7 65 -16 122.5t-16.5 114t-12.5 114.5t-5 125z" />
<glyph unicode="&#xe000;" horiz-adv-x="600" d="M0 600h600v-600h-600v600z" />
<glyph unicode="&#xfb01;" horiz-adv-x="898" d="M474 -103q-23 43 -51 108l-59 135q-30 71 -62.5 139t-65.5 118q-14 10 -37 12t-48.5 1.5t-50.5 1t-43.5 11.5t-27.5 31.5t-3 61.5h186q6 62 19.5 123t36 116.5t55 103.5t78 82.5t104.5 54.5t135 20q27 0 53.5 -13t47.5 -34t34 -47.5t13 -53.5q-21 0 -38 8.5t-32.5 19 t-33 19.5t-39.5 9q-67 0 -124.5 -26.5t-100 -71t-67 -103.5t-24.5 -124q0 -4 0.5 -16t0.5 -25.5t0.5 -25.5t0.5 -16q41 -14 92 -20.5t103 -8t100.5 0.5t85.5 5q4 -3 12.5 -12t10.5 -13q0 -3 1 -5l2 -6q0 -24 -24.5 -37t-62.5 -19.5t-84 -8.5t-88.5 -3.5t-76.5 -4.5t-48 -11 q15 -66 52 -129l76 -124q39 -62 69 -125.5t30 -130.5q-4 0 -20 -0.5t-34 2t-34 9.5t-19 22zM672 361v21q1 15 2 32v32q1 16 1 22q12 18 31.5 29t39.5 18q4 -60 19.5 -127.5t33 -136t31.5 -135t14 -124.5q0 -50 -51 -50q-31 0 -52 25.5t-34 65t-20.5 88t-10.5 95t-3.5 85.5 t-0.5 60zM688 777q21 -9 35.5 -29t12.5 -36t-25 -22t-78 13q0 30 11.5 52t43.5 22z" />
<glyph unicode="&#xfb02;" horiz-adv-x="961" d="M474 -103q-23 43 -51 108l-59 135q-30 71 -62.5 139t-65.5 118q-14 10 -37 12t-48.5 1.5t-50.5 1t-43.5 11.5t-27.5 31.5t-3 61.5h186q6 62 19.5 123t36 116.5t55 103.5t78 82.5t104.5 54.5t135 20q27 0 53.5 -13t47.5 -34t34 -47.5t13 -53.5q-21 0 -38 8.5t-32.5 19 t-33 19.5t-39.5 9q-67 0 -124.5 -26.5t-100 -71t-67 -103.5t-24.5 -124q0 -4 0.5 -16t0.5 -25.5t0.5 -25.5t0.5 -16q41 -14 92 -20.5t103 -8t100.5 0.5t85.5 5q4 -3 12.5 -12t10.5 -13q0 -3 1 -5l2 -6q0 -24 -24.5 -37t-62.5 -19.5t-84 -8.5t-88.5 -3.5t-76.5 -4.5t-48 -11 q15 -66 52 -129l76 -124q39 -62 69 -125.5t30 -130.5q-4 0 -20 -0.5t-34 2t-34 9.5t-19 22zM732 610q0 32 -4.5 62.5t-2 54.5t17.5 38.5t55 14.5q12 -26 23.5 -78t22.5 -120t21 -147t18.5 -159.5t14.5 -157.5t9 -140q-36 -25 -58.5 -3.5t-36.5 72t-22 123t-15.5 151 t-17 154.5t-25.5 135z" />
<glyph unicode="&#xfb03;" horiz-adv-x="1832" d="M1639 417q0 6 1 21v32l2 32v22q12 18 31.5 29t39.5 18q4 -60 19.5 -127.5t33 -136t31.5 -135t14 -124.5q0 -50 -51 -50q-31 0 -52 25.5t-34 65t-20.5 88t-10.5 95t-3.5 85.5t-0.5 60zM1655 833q21 -9 35.5 -29t12.5 -36t-25 -22t-78 13q0 30 11.5 52t43.5 22zM1259 -103 q-23 43 -51 108l-58 135l-63.5 139t-65.5 118q-14 10 -37 12t-48.5 1.5t-50.5 1t-43.5 11.5t-27.5 31.5t-3 61.5h186q6 62 19.5 123t36 116.5t55 103.5t78 82.5t104.5 54.5t135 20q27 0 53.5 -13t47.5 -34t34 -47.5t13 -53.5q-21 0 -38 8.5t-32.5 19t-33 19.5t-39.5 9 q-67 0 -124.5 -26.5t-100 -71t-67 -103.5t-24.5 -124q0 -4 0.5 -16t0.5 -25.5t0.5 -25.5t0.5 -16q41 -14 92 -20.5t103 -8t100.5 0.5t85.5 5q4 -3 12.5 -12t10.5 -13q0 -3 1 -5l2 -6q0 -24 -24.5 -37t-62.5 -19.5t-84 -8.5t-88.5 -3.5t-76.5 -4.5t-48 -11q15 -66 52 -129 l76 -124q39 -62 69 -125.5t30 -130.5q-4 0 -20 -0.5t-34 2t-34 9.5t-19 22zM474 -103q-23 43 -51 108l-59 135q-30 71 -62.5 139t-65.5 118q-14 10 -37 12t-48.5 1.5t-50.5 1t-43.5 11.5t-27.5 31.5t-3 61.5h186q6 62 19.5 123t36 116.5t55 103.5t78 82.5t104.5 54.5t135 20 q27 0 53.5 -13t47.5 -34t34 -47.5t13 -53.5q-21 0 -38 8.5t-32.5 19t-33 19.5t-39.5 9q-67 0 -124.5 -26.5t-100 -71t-67 -103.5t-24.5 -124q0 -4 0.5 -16t0.5 -25.5t0.5 -25.5t0.5 -16q41 -14 92 -20.5t103 -8t100.5 0.5t85.5 5q4 -3 12.5 -12t10.5 -13q0 -3 1 -5l2 -6 q0 -24 -24.5 -37t-62.5 -19.5t-84 -8.5t-88.5 -3.5t-76.5 -4.5t-48 -11q15 -66 52 -129l76 -124q39 -62 69 -125.5t30 -130.5q-4 0 -20 -0.5t-34 2t-34 9.5t-19 22z" />
<glyph unicode="&#xfb04;" horiz-adv-x="1830" d="M1619 629q0 32 -4.5 62.5t-2 54.5t17.5 38.5t55 14.5q12 -26 23.5 -78t22.5 -120t21 -147t18.5 -159.5t14.5 -157.5t9 -140q-36 -25 -58.5 -3.5t-36.5 72t-22 123t-15.5 151t-17 154.5t-25.5 135zM1259 -103q-23 43 -51 108l-58 135l-63.5 139t-65.5 118q-14 10 -37 12 t-48.5 1.5t-50.5 1t-43.5 11.5t-27.5 31.5t-3 61.5h186q6 62 19.5 123t36 116.5t55 103.5t78 82.5t104.5 54.5t135 20q27 0 53.5 -13t47.5 -34t34 -47.5t13 -53.5q-21 0 -38 8.5t-32.5 19t-33 19.5t-39.5 9q-67 0 -124.5 -26.5t-100 -71t-67 -103.5t-24.5 -124q0 -4 0.5 -16 t0.5 -25.5t0.5 -25.5t0.5 -16q41 -14 92 -20.5t103 -8t100.5 0.5t85.5 5q4 -3 12.5 -12t10.5 -13q0 -3 1 -5l2 -6q0 -24 -24.5 -37t-62.5 -19.5t-84 -8.5t-88.5 -3.5t-76.5 -4.5t-48 -11q15 -66 52 -129l76 -124q39 -62 69 -125.5t30 -130.5q-4 0 -20 -0.5t-34 2t-34 9.5 t-19 22zM474 -103q-23 43 -51 108l-59 135q-30 71 -62.5 139t-65.5 118q-14 10 -37 12t-48.5 1.5t-50.5 1t-43.5 11.5t-27.5 31.5t-3 61.5h186q6 62 19.5 123t36 116.5t55 103.5t78 82.5t104.5 54.5t135 20q27 0 53.5 -13t47.5 -34t34 -47.5t13 -53.5q-21 0 -38 8.5 t-32.5 19t-33 19.5t-39.5 9q-67 0 -124.5 -26.5t-100 -71t-67 -103.5t-24.5 -124q0 -4 0.5 -16t0.5 -25.5t0.5 -25.5t0.5 -16q41 -14 92 -20.5t103 -8t100.5 0.5t85.5 5q4 -3 12.5 -12t10.5 -13q0 -3 1 -5l2 -6q0 -24 -24.5 -37t-62.5 -19.5t-84 -8.5t-88.5 -3.5t-76.5 -4.5 t-48 -11q15 -66 52 -129l76 -124q39 -62 69 -125.5t30 -130.5q-4 0 -20 -0.5t-34 2t-34 9.5t-19 22z" />
</font>
</defs>
</svg>
